<?xml version="1.0" encoding="UTF-8" standalone="no"?>
<!-- Created with Inkscape (http://www.inkscape.org/) -->

<svg
   xmlns:dc="http://purl.org/dc/elements/1.1/"
   xmlns:cc="http://creativecommons.org/ns#"
   xmlns:rdf="http://www.w3.org/1999/02/22-rdf-syntax-ns#"
   xmlns:svg="http://www.w3.org/2000/svg"
   xmlns="http://www.w3.org/2000/svg"
   xmlns:sodipodi="http://sodipodi.sourceforge.net/DTD/sodipodi-0.dtd"
   xmlns:inkscape="http://www.inkscape.org/namespaces/inkscape"
   width="3in"
   height="3in"
   viewBox="0 0 270 270.00001"
   id="svg3972"
   version="1.1"
   inkscape:version="0.91 r13725"
   sodipodi:docname="alcoa.svg">
  <defs
     id="defs3974" />
  <sodipodi:namedview
     id="base"
     pagecolor="#ffffff"
     bordercolor="#666666"
     borderopacity="1.0"
     inkscape:pageopacity="0.0"
     inkscape:pageshadow="2"
     inkscape:zoom="1.4"
     inkscape:cx="108.54751"
     inkscape:cy="177.77951"
     inkscape:document-units="px"
     inkscape:current-layer="layer1"
     showgrid="false"
     units="in"
     inkscape:window-width="1366"
     inkscape:window-height="700"
     inkscape:window-x="0"
     inkscape:window-y="34"
     inkscape:window-maximized="1" />
  <metadata
     id="metadata3977">
    <rdf:RDF>
      <cc:Work
         rdf:about="">
        <dc:format>image/svg+xml</dc:format>
        <dc:type
           rdf:resource="http://purl.org/dc/dcmitype/StillImage" />
        <dc:title></dc:title>
      </cc:Work>
    </rdf:RDF>
  </metadata>
  <g
     inkscape:label="Layer 1"
     inkscape:groupmode="layer"
     id="layer1"
     transform="translate(0,-782.36215)">
    <g
       id="g3445"
       transform="matrix(4.9888835,0,0,4.9888835,-1575.5435,-4069.8477)">
      <path
         id="path2796"
         style="fill:#000000;fill-opacity:1;fill-rule:evenodd;stroke:none"
         d="m 334.75417,982.12054 16.12704,0 c 0,0 4.61687,0.0953 4.61687,4.63536 l 0,16.5507 c 0,0 0.0555,3.8548 -4.61687,3.8548 l -16.12704,0 c 0,0 -4.70503,0.074 -4.70503,-3.8548 l 0,-16.5507 c 0,0 -0.0583,-4.63536 4.70503,-4.63536 m -2.90919,15.67917 10.80492,-12.62068 10.96845,12.49413 -5.25956,6.39284 -5.52261,-6.22932 5.09746,-5.85677 -10.41816,0 5.13442,5.85677 -5.32069,6.11692 -5.48423,-6.15389 z"
         inkscape:connector-curvature="0" />
      <path
         id="path2808"
         style="fill:#000000;fill-opacity:1;fill-rule:evenodd;stroke:none"
         d="m 320.96327,1017.2085 -1.96504,0 4.34102,-6.9943 c 0,0 1.06357,-1.8542 2.18829,0.064 l 4.41922,6.9303 -1.91812,0 -1.20292,-1.7119 -4.78465,0 -1.0778,1.7119 z m 1.85415,-3.0699 3.24759,0 -1.66219,-2.6532 -1.5854,2.6532 z"
         inkscape:connector-curvature="0" />
      <path
         id="path2820"
         style="fill:#000000;fill-opacity:1;fill-rule:evenodd;stroke:none"
         d="m 353.82452,1017.2085 -5.46573,0 c 0,0 -1.74324,-0.017 -1.74324,-1.7119 l 0,-4.2131 c 0,0 0.0626,-1.8129 1.74324,-1.8129 l 5.49702,0 c 0,0 1.64227,0.057 1.64227,1.8129 l 0,4.2131 c 0,0 0.0825,1.7119 -1.67356,1.7119 m -5.46573,-5.925 5.25956,0 0,4.2131 -5.25956,0 0,-4.2131 z"
         inkscape:connector-curvature="0" />
      <path
         id="path2832"
         style="fill:#000000;fill-opacity:1;fill-rule:evenodd;stroke:none"
         d="m 357.76031,1017.2085 -1.96505,0 4.34103,-6.9943 c 0,0 1.06356,-1.8542 2.18828,0.064 l 4.41923,6.9303 -1.91813,0 -1.20292,-1.7119 -4.78607,0 -1.07637,1.7119 z m 1.85414,-3.0699 3.24759,0 -1.66219,-2.6532 -1.5854,2.6532 z"
         inkscape:connector-curvature="0" />
      <path
         id="path2844"
         style="fill:#000000;fill-opacity:1;fill-rule:nonzero;stroke:none"
         d="m 330.04914,1009.4706 1.96505,0 0,6.026 5.28657,0 0,1.7119 -5.28657,0 c 0,0 -1.7347,-0.098 -1.96505,-2.1414 l 0,-5.5965 z"
         inkscape:connector-curvature="0" />
      <path
         id="path2856"
         style="fill:#000000;fill-opacity:1;fill-rule:nonzero;stroke:none"
         d="m 345.82641,1009.4706 0,1.8129 -6.05582,0 0,4.2131 6.14682,0 0,1.7119 -6.3203,0 c 0,0 -1.7802,-0.5404 -1.7802,-2.1727 l 0,-3.7523 c 0,0 0.43225,-1.8129 1.85983,-1.8129 l 6.14967,0 z"
         inkscape:connector-curvature="0" />
    </g>
    <g
       id="g6150"
       transform="matrix(1.0037092,0,0,1.0037092,-441.42803,-243.30038)"
       style="fill:#000000">
      <g
         transform="matrix(0.94442071,0,0,0.94442071,23.019685,55.447816)"
         id="g6136"
         style="fill:#000000">
        <path
           d="m 471.25685,961.93155 c -0.0176,-0.0428 -0.0276,-0.0887 -0.0297,-0.13897 0.002,0.0134 0.002,0.0174 0.002,0.0254 0.0453,0.47665 0.17102,1.37368 0.27314,2.04459 0.15896,-0.30083 0.31641,-0.6206 0.48341,-0.95929 0.12576,-0.25701 0.0628,-0.3367 -0.0473,-0.37754 -0.3159,-0.11256 -0.63835,-0.34915 -0.68161,-0.5942 z"
           id="path3098"
           inkscape:connector-curvature="0"
           style="display:inline;fill:#000000" />
        <path
           d="m 476.74292,954.70648 c 0.0453,0.51152 0.43713,0.57378 0.75757,0.12452 0.0845,-0.12452 0.18059,-0.27643 0.29477,-0.44827 -0.0906,-0.12054 -0.1826,-0.23758 -0.27918,-0.35712 -0.4472,-0.52447 -1.5101,-1.6566 -2.5388,-2.54466 1.02316,0.96576 1.64793,2.14471 1.76564,3.22553 z"
           id="path3119"
           inkscape:connector-curvature="0"
           style="display:inline;fill:#000000" />
        <path
           d="m 456.2227,919.48565 c 0.0473,0.0658 0.0885,0.13597 0.12979,0.21118 -0.0412,-0.0807 -0.0825,-0.1549 -0.12979,-0.21118 z"
           id="path3413"
           inkscape:connector-curvature="0"
           style="display:inline;fill:#000000" />
        <path
           d="m 414.18225,997.63451 c -75.5067,0 -136.71471,-21.09245 -136.71471,-47.11186 0,-26.02388 61.2085,-47.11334 136.71471,-47.11334 75.49917,0 136.70516,21.08946 136.70516,47.11334 0,26.01941 -61.20599,47.11186 -136.70516,47.11186 z m 0,-90.14498 c -72.85371,0 -131.90723,19.26252 -131.90723,43.03263 0,23.7701 59.05352,43.03561 131.90723,43.03561 72.85322,0 131.90272,-19.26551 131.90272,-43.03561 0,-23.77011 -59.0495,-43.03263 -131.90272,-43.03263 z"
           id="path3534"
           inkscape:connector-curvature="0"
           style="display:inline;fill:#000000" />
        <path
           d="m 499.30493,935.10676 c 0.18864,-0.32774 -0.0101,-0.56831 -0.42857,-0.56831 -2.18316,0 -5.04693,0.005 -7.32164,0.005 -0.54227,0 -0.82246,0.0653 -1.078,0.56332 -0.83906,1.59334 -11.07175,16.77614 -12.97674,19.72474 -0.32042,0.44926 -0.71229,0.387 -0.75756,-0.12452 -0.19267,-1.75122 -1.72038,-3.76394 -4.12638,-4.72672 -1.83406,-0.73715 -3.62737,-0.87064 -5.49111,-0.62558 -3.36478,0.44726 -6.36336,2.20646 -8.99975,4.1878 -3.97296,2.99144 -7.40012,6.86695 -11.82529,9.73088 -2.41607,1.55847 -5.72301,2.91822 -7.93635,0.88906 -2.00307,-1.83839 -1.77721,-5.9236 1.28726,-9.08188 0.32345,-0.33073 0.71028,-0.0543 0.64941,0.24306 -0.28874,1.42898 0.0669,2.84948 1.16151,3.84563 1.33706,1.18591 3.25009,1.32089 4.88797,0.52945 1.93265,-0.94833 3.06849,-2.77925 3.39949,-4.85722 0.5131,-3.22403 -1.99352,-6.06754 -5.12942,-6.29516 -2.54736,-0.17682 -4.99009,0.70029 -7.37044,2.64627 -1.19269,0.97971 -1.87178,1.70441 -2.903,3.15779 -0.25152,0.35712 -0.63785,0.39397 -0.62577,-0.13448 0.11972,-4.12754 -1.60518,-6.44956 -5.05196,-6.52577 -2.67412,-0.0623 -5.53235,1.37369 -7.75978,3.13239 -2.44173,1.94149 -4.57659,4.51455 -6.86439,6.9322 -0.28471,0.29785 -0.53371,0.2839 -0.61319,-0.29386 -0.0689,-2.73443 -0.76361,-5.38369 -2.04181,-7.26392 -0.45223,-0.65447 -1.40346,-0.97872 -2.20329,-0.53593 -0.36922,0.20023 -1.65547,0.78497 -2.58961,1.53108 -0.4648,0.37854 -0.64438,0.92592 -0.44115,1.62871 1.23494,4.0847 0.96279,8.72974 -0.71029,12.65307 -1.53676,3.59262 -4.52428,6.83408 -8.03494,7.93034 -2.31294,0.7257 -4.71844,0.37057 -6.20591,-1.65958 -2.04382,-2.80266 -1.21835,-7.67532 1.82702,-11.72218 2.6892,-3.56223 6.57664,-5.82597 10.45552,-7.28334 0.45676,-0.17433 0.55033,-0.46421 0.42155,-0.84822 -0.21128,-0.63255 -0.5463,-1.49123 -0.68463,-1.88422 -0.35564,-0.93687 -1.35215,-1.08979 -2.56747,-0.95829 -2.818,0.32475 -5.36032,1.28105 -7.87146,2.6119 -6.57514,3.48652 -9.87202,10.23493 -11.31774,13.84497 -0.69519,1.7333 -1.29028,2.81611 -2.05941,3.77541 -1.03675,1.29001 -2.33709,2.46397 -4.71745,4.53347 -0.21478,0.18977 -0.37526,0.58574 -0.19466,0.95331 0.24296,0.49808 1.48042,2.22789 1.82953,2.38229 0.38783,0.18877 0.83755,-0.0747 1.01713,-0.20321 1.66554,-1.11768 3.65705,-2.88833 4.63243,-4.08969 0.34155,-0.41141 0.69267,-0.23857 0.87376,0.386 0.90999,3.21408 3.29285,5.83793 6.58671,6.9352 6.02935,2.01371 12.28406,-0.90102 17.00402,-5.97391 3.00059,-3.22403 4.08311,-5.29802 5.23204,-6.70756 1.94824,-2.39126 5.79292,-7.73959 10.37102,-11.1738 1.67912,-1.26561 3.66661,-2.23138 4.66563,-1.59036 0.80184,0.51352 1.0609,1.71039 -0.22586,4.02743 -4.66764,8.43987 -11.53655,18.35653 -12.79615,20.76173 -0.22988,0.41739 -0.0297,0.74512 0.41149,0.74512 2.44222,-0.0115 4.86432,-0.006 7.08168,-0.006 0.36923,-0.0174 0.53473,-0.1838 0.71935,-0.4418 3.58209,-5.55253 6.95392,-10.83809 10.5677,-16.30147 0.20222,-0.32176 0.38884,-0.0727 0.39689,0.0682 0.0745,1.2676 0.38886,3.0019 1.14843,4.14049 1.36574,2.10536 3.30191,3.00987 5.44885,3.02332 1.7083,0.0194 2.572,-0.23758 4.41411,-0.91846 1.49904,-0.55037 2.70279,-1.27357 3.62637,-1.92705 0.53925,-0.37056 0.63381,0.25004 0.61973,0.34517 -0.828,4.40796 0.19467,9.63076 4.61986,11.79639 5.29441,2.58452 11.11198,-1.04794 14.45916,-4.32776 0.32697,-0.31628 0.6791,-0.28291 0.7123,0.39796 0.0709,1.25216 0.64237,2.73841 1.68868,3.77839 2.8049,2.78722 8.46503,1.68299 14.14478,-2.67018 3.64698,-2.78722 7.46298,-6.72499 10.91026,-10.89537 0.12778,-0.16038 0.22285,-0.42138 -0.0236,-0.68286 -0.52466,-0.5439 -1.28524,-1.16649 -1.80488,-1.64614 -0.23793,-0.19923 -0.58553,-0.14195 -0.78624,0.008 -3.5328,3.32714 -6.71347,7.12097 -11.31019,10.25933 -1.55034,1.07086 -4.02023,1.93502 -5.13043,0.44827 -0.4321,-0.57677 -0.38331,-1.37668 0.0432,-2.42413 1.3416,-3.31069 22.56001,-35.29703 23.66166,-37.18423 z m -28.04808,26.82479 c 0.0432,0.24505 0.3657,0.48163 0.6816,0.5942 0.11017,0.0409 0.17305,0.12053 0.0473,0.37754 -0.90294,1.91459 -1.73194,3.01882 -2.86276,4.6819 -1.03927,1.53705 -2.21132,2.73642 -3.63038,3.88945 -2.1399,1.75373 -5.11182,3.66285 -7.56914,2.37931 -1.09158,-0.56133 -1.56292,-2.07299 -1.54129,-3.29775 0.0568,-3.44269 1.59864,-6.97703 4.45435,-10.4506 3.482,-4.24409 7.3312,-6.44558 9.85744,-5.24223 2.61325,1.23473 1.77921,4.23065 0.61017,6.58305 -0.0876,0.1818 -0.0936,0.3362 -0.0473,0.48513 z"
           id="path3549"
           inkscape:connector-curvature="0"
           style="display:inline;fill:#000000;fill-opacity:1" />
        <path
           d="m 345.39154,980.14065 c -7.91221,0.0562 -14.88223,-4.786 -15.68155,-13.1671 -0.44468,-4.64405 0.88131,-8.78354 3.53481,-12.19286 2.35521,-3.03825 6.34023,-5.56249 9.71356,-6.17911 1.09813,-0.19923 2.57301,-0.0722 3.18219,0.647 0.95677,1.10224 0.68111,2.31256 -0.27415,2.79569 -2.57352,1.30147 -5.67069,3.52836 -7.20243,6.5691 -1.24399,2.48241 -1.49451,5.47484 0.40394,8.32432 3.17765,4.75013 12.03405,4.88063 20.26869,-2.69459 2.0388,-1.85332 3.8643,-3.63444 5.71899,-5.74429 3.62686,-4.10612 4.83313,-5.60233 9.6542,-12.22423 0.0579,-0.0757 0.0734,-0.17682 0.0483,-0.22563 -0.0398,-0.0847 -0.10715,-0.10808 -0.2475,-0.11655 -3.2179,0.0877 -6.02431,1.03799 -8.75075,3.05668 -0.78574,0.56632 -1.91555,0.48662 -2.41053,-0.25949 -0.55032,-0.84324 -0.15644,-1.94349 0.75052,-2.5631 4.38695,-3.02131 9.17985,-3.5692 14.07435,-4.38753 -0.004,0 0.34056,0.0164 0.62024,-0.35214 2.00861,-2.55263 3.52676,-4.85622 5.66767,-7.43825 2.15751,-2.61987 4.94682,-5.02506 7.07666,-6.83208 2.97293,-2.53171 4.87891,-3.38291 6.8166,-4.42788 0.51008,-0.26298 -0.0659,-0.57976 -0.22033,-0.57976 -10.81872,-2.01271 -22.06301,-4.61765 -32.80829,-0.67887 -7.43985,2.74987 -10.70001,8.59228 -9.13155,12.49619 1.11472,2.76879 4.7939,3.21905 8.23716,1.5505 2.86074,-1.38813 5.50619,-3.62349 7.383,-6.50335 1.05084,-1.59833 3.26217,-0.44528 2.06797,2.33098 -3.14395,7.31721 -9.15066,13.12127 -16.46728,13.36533 -6.22603,0.20023 -10.24375,-4.33474 -10.23067,-9.93061 0.0232,-11.03633 12.43447,-18.30622 25.47458,-19.39302 15.70518,-1.28503 30.57935,2.85645 46.17286,4.72972 11.94703,1.43196 23.40108,1.46283 35.40898,-1.2696 1.41956,-0.30482 2.41606,0.59171 2.32351,2.01122 -0.11771,2.05257 -1.72239,4.02843 -5.67774,6.16467 -4.49761,2.44256 -9.20298,3.18319 -14.1171,3.22304 -11.88415,0.0976 -22.95389,-4.48864 -34.40895,-6.95312 0.0166,0.49609 0.14537,1.08929 -0.27516,1.40159 -6.34475,4.63458 -12.08032,9.33989 -15.92198,15.94883 -0.12979,0.15291 -0.0593,0.29884 0.16448,0.28291 3.33511,-0.17532 6.33519,-0.2605 9.44897,-0.50704 0.54328,-0.0448 0.5639,-0.17881 0.51561,-0.57278 -0.27415,-2.2782 0.39689,-4.87566 2.4211,-6.66275 2.07098,-1.83939 4.66563,-2.04858 6.38398,-0.7237 1.9563,1.50867 1.78325,4.22118 0.71331,6.25532 -1.08857,2.06451 -2.8854,3.16725 -4.61181,3.70368 0,0 -0.36067,0.0787 -0.30836,0.40394 0.0689,0.52148 2.41908,1.81149 2.6203,2.15466 0.19367,0.32674 0.0945,0.83378 -0.26309,1.22178 -0.25051,0.28191 -0.63885,0.54788 -1.13786,0.53792 -0.40393,-0.008 -0.64942,-0.14593 -1.16351,-0.42236 -1.05638,-0.56632 -2.37382,-1.49622 -3.25211,-2.59248 -0.30081,-0.37057 -0.45172,-0.37854 -1.20074,-0.33869 -3.36931,0.19275 -8.62399,0.69531 -12.18395,1.1361 -0.8617,0.10609 -0.98896,0.26548 -1.16654,0.56133 -5.67471,9.26668 -11.73474,19.25954 -18.38735,25.94968 -7.13652,7.17376 -13.06879,9.06196 -19.36524,9.11078 z m 54.08154,-41.17481 c 0.0896,0.47565 0.27717,0.5673 0.49397,0.52745 1.08052,-0.21417 2.26466,-1.09526 2.96337,-2.11482 0.63935,-0.92492 0.93816,-2.26076 0.30534,-2.79569 -0.56691,-0.48064 -1.48646,-0.34417 -2.16757,0.25202 -1.35718,1.18692 -1.77118,2.8729 -1.59511,4.13104 l 0,0"
           id="path3564"
           inkscape:connector-curvature="0"
           style="display:inline;fill:#000000;fill-opacity:1" />
      </g>
      <g
         style="font-style:normal;font-variant:normal;font-weight:normal;font-stretch:normal;font-size:54.08856583px;line-height:125%;font-family:ChunkFive;-inkscape-font-specification:ChunkFive;letter-spacing:0px;word-spacing:0px;display:inline;fill:#000000;fill-opacity:1;stroke:none"
         id="text5950">
        <path
           d="m 329.057,899.53888 10.81771,0 0,-13.52214 2.16354,0 0,-5.78748 -17.9574,0 0,5.78748 3.2994,0 0,2.27172 c -0.81133,1.4063 -2.10946,2.65034 -5.1925,2.65034 -4.7057,0 -7.41014,-4.43527 -7.41014,-9.9523 0,-5.40885 3.02897,-10.16865 7.41014,-10.16865 3.19122,0 6.00383,2.48808 6.16609,6.86925 l 9.68186,0 0,-15.95613 -8.0592,0 -1.13586,3.89438 c -0.86541,-0.86542 -2.70443,-4.54344 -10.54727,-4.54344 -8.43781,0 -16.60519,8.1133 -16.60519,19.90459 0,11.68312 7.51832,19.03918 16.98381,19.03918 4.16482,0 7.51831,-1.89311 8.70826,-3.89438 l 1.67675,3.40758"
           style="text-align:center;text-anchor:middle;fill:#000000"
           id="path3412"
           inkscape:connector-curvature="0" />
        <path
           d="m 386.52018,892.45328 -3.7862,0 -9.57368,-30.72231 -20.77,0 0,6.97743 2.21763,0 -7.30196,23.74488 -3.67802,0 0,7.0856 17.20016,0 0,-7.0856 -4.21891,0 1.13586,-3.67803 11.08816,0 1.13586,3.67803 -5.13841,0 0,7.0856 21.68951,0 0,-7.0856 m -23.25808,-21.85178 3.56984,11.68313 -7.0856,0 3.51576,-11.68313"
           style="text-align:center;text-anchor:middle;fill:#000000"
           id="path3414"
           inkscape:connector-curvature="0" />
        <path
           d="m 388.644,868.87066 2.97487,0 0,23.47444 -2.97487,0 0,7.19378 30.2896,0 0,-14.06303 -9.08688,0 0,6.86925 -6.97743,0 0,-23.47444 2.8667,0 0,-7.13969 -17.09199,0 0,7.13969"
           style="text-align:center;text-anchor:middle;fill:#000000"
           id="path3416"
           inkscape:connector-curvature="0" />
        <path
           d="m 421.60422,868.81657 3.02896,0 0,23.58262 -3.02896,0 0,7.13969 17.41652,0 0,-7.13969 -3.2994,0 0,-8.38373 4.11073,0 c 7.73465,0 14.22529,-3.56985 14.22529,-10.70954 0,-6.16609 -2.37991,-11.57495 -14.92844,-11.57495 l -17.5247,0 0,7.0856 m 16.82154,-0.0541 c 3.13714,0 5.03024,1.73083 5.03024,4.92205 0,2.8667 -2.16355,4.48936 -5.30068,4.48936 l -2.43398,0 0,-9.41141 2.70442,0"
           style="text-align:center;text-anchor:middle;fill:#000000"
           id="path3418"
           inkscape:connector-curvature="0" />
        <path
           d="m 456.2547,868.87066 3.40758,0 0,23.47444 -3.40758,0 0,7.19378 17.95741,0 0,-7.19378 -3.35349,0 0,-23.47444 3.35349,0 0,-7.13969 -17.95741,0 0,7.13969"
           style="text-align:center;text-anchor:middle;fill:#000000"
           id="path3420"
           inkscape:connector-curvature="0" />
        <path
           d="m 518.39232,861.73097 -16.28065,0 0,6.97743 3.67802,0 0.0541,12.87308 -13.30579,-19.85051 -15.52342,0 0,6.97743 3.13714,0 0,23.85305 -3.19123,0 0,6.97743 16.60519,0 0,-6.97743 -4.16482,0 0,-13.63031 13.79259,20.60774 11.62904,0 0,-30.83048 3.56984,0 0,-6.97743"
           style="text-align:center;text-anchor:middle;fill:#000000"
           id="path3422"
           inkscape:connector-curvature="0" />
      </g>
    </g>
    <path
       style="fill:#000000"
       d="m 98.326938,754.57284 c 0.503657,-0.96119 2.210952,-3.97261 3.793942,-6.69212 l 2.87818,-4.945 -19.93799,-0.0937 c -18.769873,-0.0877 -19.924791,-0.133 -19.713001,-0.73245 0.123873,-0.35082 1.163963,-3.06914 2.311595,-6.04036 l 2.086619,-5.40265 21.269559,0 21.269538,0 3.50969,-6.13511 c 1.93031,-3.37435 5.31523,-9.26682 7.52204,-13.09442 2.20679,-3.8276 4.74359,-8.23491 5.63738,-9.79401 l 1.625,-2.83477 6.86771,-0.003 c 3.77723,-0.002 6.86771,0.0764 6.86771,0.17435 0,0.0981 -5.05968,9.03983 -11.24371,19.87051 -6.184,10.83045 -13.50054,23.64778 -16.25894,28.48249 l -5.01528,8.79069 -7.19288,0.0997 -7.192874,0.0998 0.915712,-1.74744 z m 27.307832,1.50088 c 0,-0.12697 1.15148,-2.24421 2.55885,-4.70477 4.70951,-8.23349 4.69507,-8.33501 -1.22502,-8.61633 l -3.85559,-0.18433 3.20529,-5.86025 3.20526,-5.86053 1.94651,-0.11214 c 2.40792,-0.13903 5.44812,0.48377 6.3508,1.30064 0.58657,0.53083 0.72472,0.54152 1.02147,0.0792 0.18886,-0.29431 4.66986,-7.91074 9.95802,-16.92577 l 9.61488,-16.3909 6.72441,0 c 6.00597,0 6.70044,0.0626 6.50012,0.5845 -0.12322,0.32143 -6.02272,10.66418 -13.10974,22.98388 -7.087,12.31959 -14.37322,24.99527 -16.19166,28.16834 l -3.30617,5.7687 -6.69871,0 c -3.68428,0 -6.69872,-0.10269 -6.69872,-0.23267 z m 19.41268,0.0574 c 0,-0.22662 2.42186,-4.40561 19.85022,-34.2571 l 13.36531,-22.89233 6.69325,-0.10007 c 5.30472,-0.0792 6.65387,-0.003 6.50336,0.36629 -0.10464,0.25653 -7.43526,13.15772 -16.29072,28.66956 l -16.10089,28.20332 -7.01025,0.0997 c -3.85566,0.0544 -7.01028,0 -7.01028,-0.0877 z m 37.36026,-5.34536 c 0,-7.79112 -0.23206,-8.03406 -7.68004,-8.03406 -2.42391,0 -4.4071,-0.0817 -4.4071,-0.18129 0,-0.0997 1.4934,-2.81985 3.31868,-6.04338 l 3.3187,-5.86102 1.53449,0.002 c 0.84396,10e-4 2.00659,0.24838 2.58361,0.54941 0.57702,0.30096 1.07148,0.54698 1.09883,0.54677 0.0272,-2.1e-4 0.0495,-2.26656 0.0495,-5.03631 l 0,-5.03594 5.76543,-9.88358 5.76544,-9.88357 0.0949,18.44308 0.0949,18.44298 11.85147,-20.00559 11.85152,-20.00565 7.13319,0 7.13324,0 -0.72315,1.19042 c -0.39775,0.65472 -7.10205,12.39847 -14.89848,26.09722 -7.79643,13.6987 -14.86039,26.0997 -15.69764,27.55797 l -1.52229,2.65093 -8.33279,0.003 -8.33282,0.003 0,-5.51821 z m 39.85783,-0.33299 c -0.15435,-7.74066 0.1048,-7.44966 -6.85826,-7.70107 l -5.0733,-0.18433 3.34347,-5.94365 3.34344,-5.94354 1.46512,-0.007 c 0.80579,-0.003 1.9372,0.24021 2.51422,0.54109 0.57702,0.30095 1.0715,0.54734 1.09885,0.54755 0.0272,2.5e-4 -0.003,-1.9026 -0.0704,-4.22851 l -0.11996,-4.22898 5.74464,-10.24189 c 3.15957,-5.63299 5.89196,-10.33289 6.072,-10.44418 0.19097,-0.11816 0.3273,11.00994 0.3273,26.74073 l 0,26.9431 -5.83524,0 -5.8352,0 -0.11703,-5.8515 z m 16.18255,0 0,-5.87718 8.92379,0 c 13.68824,0 13.49725,0.0755 17.3389,-6.80998 l 2.6378,-4.72766 -9.2308,-0.18312 c -9.89094,-0.19611 -10.08527,-0.23297 -11.75524,-2.21749 -2.261,-2.68707 -1.88501,-3.74589 6.58886,-18.55564 7.02648,-12.28013 7.21499,-12.50093 11.32229,-13.26019 3.28901,-0.60802 56.36161,-0.55019 56.11153,0.061 -0.10301,0.2517 -1.37956,3.05383 -2.83681,6.2267 l -2.64951,5.76888 -23.15128,0 c -22.59811,0 -23.16695,0.0181 -23.80675,0.72427 -0.36052,0.39838 -1.69661,2.5823 -2.96915,4.8532 l -2.31366,4.12885 9.78007,0.18312 c 16.29624,0.30515 16.28718,0.25715 4.14588,21.97658 -5.64004,10.0894 -6.24749,10.92459 -9.01689,12.39617 l -1.83139,0.97297 -13.64381,0.10872 -13.64383,0.10871 0,-5.87717 z"
       id="path6072"
       inkscape:connector-curvature="0" />
  </g>
</svg>
