<?xml version="1.0" encoding="UTF-8" standalone="no"?>
<!-- Created with Inkscape (http://www.inkscape.org/) -->

<svg
   xmlns:dc="http://purl.org/dc/elements/1.1/"
   xmlns:cc="http://creativecommons.org/ns#"
   xmlns:rdf="http://www.w3.org/1999/02/22-rdf-syntax-ns#"
   xmlns:svg="http://www.w3.org/2000/svg"
   xmlns="http://www.w3.org/2000/svg"
   xmlns:sodipodi="http://sodipodi.sourceforge.net/DTD/sodipodi-0.dtd"
   xmlns:inkscape="http://www.inkscape.org/namespaces/inkscape"
   width="15in"
   height="15in"
   viewBox="0 0 1350 1350"
   id="svg2"
   version="1.1"
   inkscape:version="0.91 r13725"
   inkscape:export-filename="/home/ta/Downloads/temp.png"
   inkscape:export-xdpi="48"
   inkscape:export-ydpi="48"
   sodipodi:docname="robot_stickers.svg">
  <defs
     id="defs4" />
  <sodipodi:namedview
     id="base"
     pagecolor="#ffffff"
     bordercolor="#666666"
     borderopacity="1.0"
     inkscape:pageopacity="0.0"
     inkscape:pageshadow="2"
     inkscape:zoom="0.21185185"
     inkscape:cx="-68.067384"
     inkscape:cy="857.42336"
     inkscape:document-units="px"
     inkscape:current-layer="text3785"
     showgrid="false"
     units="in"
     inkscape:window-width="1366"
     inkscape:window-height="700"
     inkscape:window-x="0"
     inkscape:window-y="34"
     inkscape:window-maximized="1">
    <inkscape:grid
       type="xygrid"
       id="grid3336"
       units="in"
       spacingx="11.25"
       spacingy="11.25"
       empspacing="8"
       dotted="false" />
  </sodipodi:namedview>
  <metadata
     id="metadata7">
    <rdf:RDF>
      <cc:Work
         rdf:about="">
        <dc:format>image/svg+xml</dc:format>
        <dc:type
           rdf:resource="http://purl.org/dc/dcmitype/StillImage" />
        <dc:title></dc:title>
      </cc:Work>
    </rdf:RDF>
  </metadata>
  <g
     inkscape:label="Layer 1"
     inkscape:groupmode="layer"
     id="layer1"
     transform="translate(0,297.63785)">
    <g
       transform="translate(1557.9322,-2079.5594)"
       style="font-style:normal;font-variant:normal;font-weight:300;font-stretch:normal;font-size:123.17951965px;line-height:125%;font-family:'Devil Breeze';-inkscape-font-specification:'Devil Breeze Light';text-align:end;letter-spacing:0px;word-spacing:0px;writing-mode:lr-tb;text-anchor:end;display:inline;fill:#00e677;fill-opacity:1;stroke:none;enable-background:new"
       id="text3785">
      <rect
         style="opacity:1;fill:#ffffff;fill-opacity:1;stroke:none;stroke-width:1.89999998;stroke-linecap:round;stroke-linejoin:round;stroke-miterlimit:4;stroke-dasharray:none;stroke-opacity:1"
         id="rect3649"
         width="1439.6853"
         height="1434.9651"
         x="-1609.8552"
         y="1739.4391" />
      <g
         id="g3352"
         transform="matrix(4.8709382,0,0,4.8709382,6050.6593,-5857.7084)"
         style="fill:#000000">
        <path
           id="path3790"
           style="font-style:normal;font-variant:normal;font-weight:bold;font-stretch:normal;font-size:73.90770721px;font-family:'Devil Breeze';-inkscape-font-specification:'Devil Breeze Bold';text-align:end;text-anchor:end;fill:#000000;fill-opacity:1"
           d="m -1517.9482,1810.3761 q 0.7391,1.6999 1.0348,3.5476 0.3695,1.7738 0.3695,3.6954 0,3.991 -1.5521,7.6125 -2.5867,5.9865 -7.6864,9.0906 -5.0257,3.0302 -11.5296,3.0302 -3.6954,0 -7.0951,-1.0347 -3.3998,-1.0347 -6.2083,-3.0302 -2.7345,-1.9955 -4.6561,-4.8779 -1.9216,-2.9563 -2.6607,-6.7256 l 13.9685,0 q 1.1086,1.626 2.7346,2.5128 1.6999,0.8869 3.6215,0.8869 1.4781,0 2.8085,-0.5173 1.3303,-0.5913 2.2911,-1.5521 1.0347,-1.0347 1.5521,-2.2911 0.5912,-1.3304 0.5912,-2.8085 0,-3.2519 -2.1433,-5.1735 -2.1433,-1.9216 -5.2474,-1.9216 -5.0997,0 -7.0952,4.6561 l -11.16,-2.7345 4.6562,-30.7457 17.7378,0 12.1209,0 0.074,0 0,11.6775 -0.074,0 0,2.8085 -12.1209,0 0,-2.8085 -7.0951,0 -1.1826,7.3907 q 1.8477,-1.0347 3.5476,-1.3303 1.6999,-0.2956 3.7693,-0.2956 5.7648,0 10.1254,2.8085 4.3605,2.8084 6.5038,8.1298 z"
           inkscape:connector-curvature="0" />
        <path
           id="path3792"
           style="font-style:normal;font-variant:normal;font-weight:bold;font-stretch:normal;font-size:73.90770721px;font-family:'Devil Breeze';-inkscape-font-specification:'Devil Breeze Bold';text-align:end;text-anchor:end;fill:#000000;fill-opacity:1"
           d="m -1498.388,1821.0188 q -3.8432,0 -6.7256,-1.4781 -2.8824,-1.4782 -4.8779,-3.9911 -1.9216,-2.5128 -2.9563,-5.8387 -0.9608,-3.3258 -0.9608,-7.0212 0,-4.5084 1.6259,-8.2777 1.626,-3.7693 4.4345,-6.5038 2.8824,-2.7346 6.7256,-4.2867 3.8432,-1.552 8.3516,-1.552 4.5822,0 8.4994,1.552 3.9171,1.4782 6.7256,4.2128 2.8824,2.7345 4.5083,6.6516 1.626,3.8432 1.626,8.4994 0,3.991 -1.4043,7.6125 -1.4042,3.6215 -3.6214,6.8734 l -13.3773,19.8812 -16.1119,0 19.8073,-31.7803 q 0.1478,-0.2956 0.2956,-0.5174 0.1478,-0.2217 0.2956,-0.5912 0.2957,-0.5913 0.3696,-1.2564 0.074,-0.7391 0.074,-1.4782 0,-3.1041 -2.0695,-5.3214 -1.9955,-2.2172 -5.1735,-2.2172 -3.178,0 -5.3953,2.0694 -2.2172,2.0694 -2.2172,5.2475 0,3.3258 2.1433,5.3952 2.2173,2.0695 5.4692,2.0695 1.0347,0 2.2911,-0.3696 l -8.3515,12.4165 0,0 z"
           inkscape:connector-curvature="0" />
        <path
           id="path3794"
           style="font-style:normal;font-variant:normal;font-weight:bold;font-stretch:normal;font-size:73.90770721px;font-family:'Devil Breeze';-inkscape-font-specification:'Devil Breeze Bold';text-align:end;text-anchor:end;fill:#000000;fill-opacity:1"
           d="m -1426.895,1816.4365 3.178,0 0,11.1601 -6.2082,0 0,9.7558 -13.5251,0 0,-9.7558 -24.3896,0 0,-11.1601 0,-34.5149 12.6382,0 0,34.5149 1.626,0 11.0123,0 0,-34.5149 12.6382,0 0,34.5149 3.0302,0 0,0 z"
           inkscape:connector-curvature="0" />
        <path
           id="path3796"
           style="font-style:normal;font-variant:normal;font-weight:bold;font-stretch:normal;font-size:73.90770721px;font-family:'Devil Breeze';-inkscape-font-specification:'Devil Breeze Bold';text-align:end;text-anchor:end;fill:#000000;fill-opacity:1"
           d="m -1382.0677,1822.7926 0,2.8085 0,6.7256 0,5.0257 -12.2687,0 -26.0155,0 0,-10.8644 q 4.5084,-2.9563 8.6472,-5.9865 4.1389,-3.0303 7.8342,-7.0952 1.1826,-1.3303 2.5129,-2.9563 1.3303,-1.6999 2.439,-3.5476 1.1086,-1.8477 1.7737,-3.7693 0.7391,-1.9216 0.7391,-3.6953 0,-2.2912 -1.4042,-3.7693 -1.3304,-1.5521 -3.6954,-1.5521 -1.8477,0 -3.0302,0.813 -1.1825,0.7391 -1.8477,1.9955 -0.6652,1.2564 -0.9608,2.8085 -0.2956,1.4781 -0.3696,3.0302 l -13.2294,0 q 0.1478,-3.5476 0.6651,-6.5039 0.5913,-3.0302 2.5129,-6.0604 2.8085,-4.2866 7.3169,-6.2822 4.5822,-1.9955 9.4601,-1.9955 2.6607,0 5.1736,0.5913 2.5868,0.5174 4.804,1.6999 2.2911,1.1825 4.1388,3.0302 1.8477,1.7738 3.0302,4.2127 1.3304,3.0302 1.3304,6.2822 0,4.4344 -1.6999,8.3516 -1.626,3.9171 -4.2867,7.3907 -2.5867,3.3998 -5.7648,6.43 -3.178,3.0302 -6.2082,5.6909 l 6.1343,0 0,-2.8085 12.2687,0 z"
           inkscape:connector-curvature="0" />
      </g>
      <g
         transform="matrix(4.8709382,0,0,4.8709382,6050.6593,-6184.3751)"
         id="g3358"
         style="fill:#000000">
        <path
           inkscape:connector-curvature="0"
           d="m -1517.9482,1810.3761 q 0.7391,1.6999 1.0348,3.5476 0.3695,1.7738 0.3695,3.6954 0,3.991 -1.5521,7.6125 -2.5867,5.9865 -7.6864,9.0906 -5.0257,3.0302 -11.5296,3.0302 -3.6954,0 -7.0951,-1.0347 -3.3998,-1.0347 -6.2083,-3.0302 -2.7345,-1.9955 -4.6561,-4.8779 -1.9216,-2.9563 -2.6607,-6.7256 l 13.9685,0 q 1.1086,1.626 2.7346,2.5128 1.6999,0.8869 3.6215,0.8869 1.4781,0 2.8085,-0.5173 1.3303,-0.5913 2.2911,-1.5521 1.0347,-1.0347 1.5521,-2.2911 0.5912,-1.3304 0.5912,-2.8085 0,-3.2519 -2.1433,-5.1735 -2.1433,-1.9216 -5.2474,-1.9216 -5.0997,0 -7.0952,4.6561 l -11.16,-2.7345 4.6562,-30.7457 17.7378,0 12.1209,0 0.074,0 0,11.6775 -0.074,0 0,2.8085 -12.1209,0 0,-2.8085 -7.0951,0 -1.1826,7.3907 q 1.8477,-1.0347 3.5476,-1.3303 1.6999,-0.2956 3.7693,-0.2956 5.7648,0 10.1254,2.8085 4.3605,2.8084 6.5038,8.1298 z"
           style="font-style:normal;font-variant:normal;font-weight:bold;font-stretch:normal;font-size:73.90770721px;font-family:'Devil Breeze';-inkscape-font-specification:'Devil Breeze Bold';text-align:end;text-anchor:end;fill:#000000;fill-opacity:1"
           id="path3360" />
        <path
           inkscape:connector-curvature="0"
           d="m -1498.388,1821.0188 q -3.8432,0 -6.7256,-1.4781 -2.8824,-1.4782 -4.8779,-3.9911 -1.9216,-2.5128 -2.9563,-5.8387 -0.9608,-3.3258 -0.9608,-7.0212 0,-4.5084 1.6259,-8.2777 1.626,-3.7693 4.4345,-6.5038 2.8824,-2.7346 6.7256,-4.2867 3.8432,-1.552 8.3516,-1.552 4.5822,0 8.4994,1.552 3.9171,1.4782 6.7256,4.2128 2.8824,2.7345 4.5083,6.6516 1.626,3.8432 1.626,8.4994 0,3.991 -1.4043,7.6125 -1.4042,3.6215 -3.6214,6.8734 l -13.3773,19.8812 -16.1119,0 19.8073,-31.7803 q 0.1478,-0.2956 0.2956,-0.5174 0.1478,-0.2217 0.2956,-0.5912 0.2957,-0.5913 0.3696,-1.2564 0.074,-0.7391 0.074,-1.4782 0,-3.1041 -2.0695,-5.3214 -1.9955,-2.2172 -5.1735,-2.2172 -3.178,0 -5.3953,2.0694 -2.2172,2.0694 -2.2172,5.2475 0,3.3258 2.1433,5.3952 2.2173,2.0695 5.4692,2.0695 1.0347,0 2.2911,-0.3696 l -8.3515,12.4165 0,0 z"
           style="font-style:normal;font-variant:normal;font-weight:bold;font-stretch:normal;font-size:73.90770721px;font-family:'Devil Breeze';-inkscape-font-specification:'Devil Breeze Bold';text-align:end;text-anchor:end;fill:#000000;fill-opacity:1"
           id="path3362" />
        <path
           inkscape:connector-curvature="0"
           d="m -1426.895,1816.4365 3.178,0 0,11.1601 -6.2082,0 0,9.7558 -13.5251,0 0,-9.7558 -24.3896,0 0,-11.1601 0,-34.5149 12.6382,0 0,34.5149 1.626,0 11.0123,0 0,-34.5149 12.6382,0 0,34.5149 3.0302,0 0,0 z"
           style="font-style:normal;font-variant:normal;font-weight:bold;font-stretch:normal;font-size:73.90770721px;font-family:'Devil Breeze';-inkscape-font-specification:'Devil Breeze Bold';text-align:end;text-anchor:end;fill:#000000;fill-opacity:1"
           id="path3364" />
        <path
           inkscape:connector-curvature="0"
           d="m -1382.0677,1822.7926 0,2.8085 0,6.7256 0,5.0257 -12.2687,0 -26.0155,0 0,-10.8644 q 4.5084,-2.9563 8.6472,-5.9865 4.1389,-3.0303 7.8342,-7.0952 1.1826,-1.3303 2.5129,-2.9563 1.3303,-1.6999 2.439,-3.5476 1.1086,-1.8477 1.7737,-3.7693 0.7391,-1.9216 0.7391,-3.6953 0,-2.2912 -1.4042,-3.7693 -1.3304,-1.5521 -3.6954,-1.5521 -1.8477,0 -3.0302,0.813 -1.1825,0.7391 -1.8477,1.9955 -0.6652,1.2564 -0.9608,2.8085 -0.2956,1.4781 -0.3696,3.0302 l -13.2294,0 q 0.1478,-3.5476 0.6651,-6.5039 0.5913,-3.0302 2.5129,-6.0604 2.8085,-4.2866 7.3169,-6.2822 4.5822,-1.9955 9.4601,-1.9955 2.6607,0 5.1736,0.5913 2.5868,0.5174 4.804,1.6999 2.2911,1.1825 4.1388,3.0302 1.8477,1.7738 3.0302,4.2127 1.3304,3.0302 1.3304,6.2822 0,4.4344 -1.6999,8.3516 -1.626,3.9171 -4.2867,7.3907 -2.5867,3.3998 -5.7648,6.43 -3.178,3.0302 -6.2082,5.6909 l 6.1343,0 0,-2.8085 12.2687,0 z"
           style="font-style:normal;font-variant:normal;font-weight:bold;font-stretch:normal;font-size:73.90770721px;font-family:'Devil Breeze';-inkscape-font-specification:'Devil Breeze Bold';text-align:end;text-anchor:end;fill:#000000;fill-opacity:1"
           id="path3366" />
      </g>
      <g
         id="g3445"
         transform="matrix(4.9888835,0,0,4.9888835,-2062.3645,-2224.7769)">
        <path
           id="path2796"
           style="fill:#000000;fill-opacity:1;fill-rule:evenodd;stroke:none"
           d="m 334.75417,982.12054 16.12704,0 c 0,0 4.61687,0.0953 4.61687,4.63536 l 0,16.5507 c 0,0 0.0555,3.8548 -4.61687,3.8548 l -16.12704,0 c 0,0 -4.70503,0.074 -4.70503,-3.8548 l 0,-16.5507 c 0,0 -0.0583,-4.63536 4.70503,-4.63536 m -2.90919,15.67917 10.80492,-12.62068 10.96845,12.49413 -5.25956,6.39284 -5.52261,-6.22932 5.09746,-5.85677 -10.41816,0 5.13442,5.85677 -5.32069,6.11692 -5.48423,-6.15389 z"
           inkscape:connector-curvature="0" />
        <path
           id="path2808"
           style="fill:#000000;fill-opacity:1;fill-rule:evenodd;stroke:none"
           d="m 320.96327,1017.2085 -1.96504,0 4.34102,-6.9943 c 0,0 1.06357,-1.8542 2.18829,0.064 l 4.41922,6.9303 -1.91812,0 -1.20292,-1.7119 -4.78465,0 -1.0778,1.7119 z m 1.85415,-3.0699 3.24759,0 -1.66219,-2.6532 -1.5854,2.6532 z"
           inkscape:connector-curvature="0" />
        <path
           id="path2820"
           style="fill:#000000;fill-opacity:1;fill-rule:evenodd;stroke:none"
           d="m 353.82452,1017.2085 -5.46573,0 c 0,0 -1.74324,-0.017 -1.74324,-1.7119 l 0,-4.2131 c 0,0 0.0626,-1.8129 1.74324,-1.8129 l 5.49702,0 c 0,0 1.64227,0.057 1.64227,1.8129 l 0,4.2131 c 0,0 0.0825,1.7119 -1.67356,1.7119 m -5.46573,-5.925 5.25956,0 0,4.2131 -5.25956,0 0,-4.2131 z"
           inkscape:connector-curvature="0" />
        <path
           id="path2832"
           style="fill:#000000;fill-opacity:1;fill-rule:evenodd;stroke:none"
           d="m 357.76031,1017.2085 -1.96505,0 4.34103,-6.9943 c 0,0 1.06356,-1.8542 2.18828,0.064 l 4.41923,6.9303 -1.91813,0 -1.20292,-1.7119 -4.78607,0 -1.07637,1.7119 z m 1.85414,-3.0699 3.24759,0 -1.66219,-2.6532 -1.5854,2.6532 z"
           inkscape:connector-curvature="0" />
        <path
           id="path2844"
           style="fill:#000000;fill-opacity:1;fill-rule:nonzero;stroke:none"
           d="m 330.04914,1009.4706 1.96505,0 0,6.026 5.28657,0 0,1.7119 -5.28657,0 c 0,0 -1.7347,-0.098 -1.96505,-2.1414 l 0,-5.5965 z"
           inkscape:connector-curvature="0" />
        <path
           id="path2856"
           style="fill:#000000;fill-opacity:1;fill-rule:nonzero;stroke:none"
           d="m 345.82641,1009.4706 0,1.8129 -6.05582,0 0,4.2131 6.14682,0 0,1.7119 -6.3203,0 c 0,0 -1.7802,-0.5404 -1.7802,-2.1727 l 0,-3.7523 c 0,0 0.43225,-1.8129 1.85983,-1.8129 l 6.14967,0 z"
           inkscape:connector-curvature="0" />
      </g>
      <g
         id="g6150"
         transform="matrix(1.0456063,0,0,1.0453115,-808.0669,1577.3486)"
         style="fill:#000000">
        <g
           transform="matrix(0.94442071,0,0,0.94442071,23.019685,55.447816)"
           id="g6136"
           style="fill:#000000">
          <path
             d="m 471.25685,961.93155 c -0.0176,-0.0428 -0.0276,-0.0887 -0.0297,-0.13897 0.002,0.0134 0.002,0.0174 0.002,0.0254 0.0453,0.47665 0.17102,1.37368 0.27314,2.04459 0.15896,-0.30083 0.31641,-0.6206 0.48341,-0.95929 0.12576,-0.25701 0.0628,-0.3367 -0.0473,-0.37754 -0.3159,-0.11256 -0.63835,-0.34915 -0.68161,-0.5942 z"
             id="path3098"
             inkscape:connector-curvature="0"
             style="display:inline;fill:#000000" />
          <path
             d="m 476.74292,954.70648 c 0.0453,0.51152 0.43713,0.57378 0.75757,0.12452 0.0845,-0.12452 0.18059,-0.27643 0.29477,-0.44827 -0.0906,-0.12054 -0.1826,-0.23758 -0.27918,-0.35712 -0.4472,-0.52447 -1.5101,-1.6566 -2.5388,-2.54466 1.02316,0.96576 1.64793,2.14471 1.76564,3.22553 z"
             id="path3119"
             inkscape:connector-curvature="0"
             style="display:inline;fill:#000000" />
          <path
             d="m 456.2227,919.48565 c 0.0473,0.0658 0.0885,0.13597 0.12979,0.21118 -0.0412,-0.0807 -0.0825,-0.1549 -0.12979,-0.21118 z"
             id="path3413"
             inkscape:connector-curvature="0"
             style="display:inline;fill:#000000" />
          <path
             d="m 414.18225,997.63451 c -75.5067,0 -136.71471,-21.09245 -136.71471,-47.11186 0,-26.02388 61.2085,-47.11334 136.71471,-47.11334 75.49917,0 136.70516,21.08946 136.70516,47.11334 0,26.01941 -61.20599,47.11186 -136.70516,47.11186 z m 0,-90.14498 c -72.85371,0 -131.90723,19.26252 -131.90723,43.03263 0,23.7701 59.05352,43.03561 131.90723,43.03561 72.85322,0 131.90272,-19.26551 131.90272,-43.03561 0,-23.77011 -59.0495,-43.03263 -131.90272,-43.03263 z"
             id="path3534"
             inkscape:connector-curvature="0"
             style="display:inline;fill:#000000" />
          <path
             d="m 499.30493,935.10676 c 0.18864,-0.32774 -0.0101,-0.56831 -0.42857,-0.56831 -2.18316,0 -5.04693,0.005 -7.32164,0.005 -0.54227,0 -0.82246,0.0653 -1.078,0.56332 -0.83906,1.59334 -11.07175,16.77614 -12.97674,19.72474 -0.32042,0.44926 -0.71229,0.387 -0.75756,-0.12452 -0.19267,-1.75122 -1.72038,-3.76394 -4.12638,-4.72672 -1.83406,-0.73715 -3.62737,-0.87064 -5.49111,-0.62558 -3.36478,0.44726 -6.36336,2.20646 -8.99975,4.1878 -3.97296,2.99144 -7.40012,6.86695 -11.82529,9.73088 -2.41607,1.55847 -5.72301,2.91822 -7.93635,0.88906 -2.00307,-1.83839 -1.77721,-5.9236 1.28726,-9.08188 0.32345,-0.33073 0.71028,-0.0543 0.64941,0.24306 -0.28874,1.42898 0.0669,2.84948 1.16151,3.84563 1.33706,1.18591 3.25009,1.32089 4.88797,0.52945 1.93265,-0.94833 3.06849,-2.77925 3.39949,-4.85722 0.5131,-3.22403 -1.99352,-6.06754 -5.12942,-6.29516 -2.54736,-0.17682 -4.99009,0.70029 -7.37044,2.64627 -1.19269,0.97971 -1.87178,1.70441 -2.903,3.15779 -0.25152,0.35712 -0.63785,0.39397 -0.62577,-0.13448 0.11972,-4.12754 -1.60518,-6.44956 -5.05196,-6.52577 -2.67412,-0.0623 -5.53235,1.37369 -7.75978,3.13239 -2.44173,1.94149 -4.57659,4.51455 -6.86439,6.9322 -0.28471,0.29785 -0.53371,0.2839 -0.61319,-0.29386 -0.0689,-2.73443 -0.76361,-5.38369 -2.04181,-7.26392 -0.45223,-0.65447 -1.40346,-0.97872 -2.20329,-0.53593 -0.36922,0.20023 -1.65547,0.78497 -2.58961,1.53108 -0.4648,0.37854 -0.64438,0.92592 -0.44115,1.62871 1.23494,4.0847 0.96279,8.72974 -0.71029,12.65307 -1.53676,3.59262 -4.52428,6.83408 -8.03494,7.93034 -2.31294,0.7257 -4.71844,0.37057 -6.20591,-1.65958 -2.04382,-2.80266 -1.21835,-7.67532 1.82702,-11.72218 2.6892,-3.56223 6.57664,-5.82597 10.45552,-7.28334 0.45676,-0.17433 0.55033,-0.46421 0.42155,-0.84822 -0.21128,-0.63255 -0.5463,-1.49123 -0.68463,-1.88422 -0.35564,-0.93687 -1.35215,-1.08979 -2.56747,-0.95829 -2.818,0.32475 -5.36032,1.28105 -7.87146,2.6119 -6.57514,3.48652 -9.87202,10.23493 -11.31774,13.84497 -0.69519,1.7333 -1.29028,2.81611 -2.05941,3.77541 -1.03675,1.29001 -2.33709,2.46397 -4.71745,4.53347 -0.21478,0.18977 -0.37526,0.58574 -0.19466,0.95331 0.24296,0.49808 1.48042,2.22789 1.82953,2.38229 0.38783,0.18877 0.83755,-0.0747 1.01713,-0.20321 1.66554,-1.11768 3.65705,-2.88833 4.63243,-4.08969 0.34155,-0.41141 0.69267,-0.23857 0.87376,0.386 0.90999,3.21408 3.29285,5.83793 6.58671,6.9352 6.02935,2.01371 12.28406,-0.90102 17.00402,-5.97391 3.00059,-3.22403 4.08311,-5.29802 5.23204,-6.70756 1.94824,-2.39126 5.79292,-7.73959 10.37102,-11.1738 1.67912,-1.26561 3.66661,-2.23138 4.66563,-1.59036 0.80184,0.51352 1.0609,1.71039 -0.22586,4.02743 -4.66764,8.43987 -11.53655,18.35653 -12.79615,20.76173 -0.22988,0.41739 -0.0297,0.74512 0.41149,0.74512 2.44222,-0.0115 4.86432,-0.006 7.08168,-0.006 0.36923,-0.0174 0.53473,-0.1838 0.71935,-0.4418 3.58209,-5.55253 6.95392,-10.83809 10.5677,-16.30147 0.20222,-0.32176 0.38884,-0.0727 0.39689,0.0682 0.0745,1.2676 0.38886,3.0019 1.14843,4.14049 1.36574,2.10536 3.30191,3.00987 5.44885,3.02332 1.7083,0.0194 2.572,-0.23758 4.41411,-0.91846 1.49904,-0.55037 2.70279,-1.27357 3.62637,-1.92705 0.53925,-0.37056 0.63381,0.25004 0.61973,0.34517 -0.828,4.40796 0.19467,9.63076 4.61986,11.79639 5.29441,2.58452 11.11198,-1.04794 14.45916,-4.32776 0.32697,-0.31628 0.6791,-0.28291 0.7123,0.39796 0.0709,1.25216 0.64237,2.73841 1.68868,3.77839 2.8049,2.78722 8.46503,1.68299 14.14478,-2.67018 3.64698,-2.78722 7.46298,-6.72499 10.91026,-10.89537 0.12778,-0.16038 0.22285,-0.42138 -0.0236,-0.68286 -0.52466,-0.5439 -1.28524,-1.16649 -1.80488,-1.64614 -0.23793,-0.19923 -0.58553,-0.14195 -0.78624,0.008 -3.5328,3.32714 -6.71347,7.12097 -11.31019,10.25933 -1.55034,1.07086 -4.02023,1.93502 -5.13043,0.44827 -0.4321,-0.57677 -0.38331,-1.37668 0.0432,-2.42413 1.3416,-3.31069 22.56001,-35.29703 23.66166,-37.18423 z m -28.04808,26.82479 c 0.0432,0.24505 0.3657,0.48163 0.6816,0.5942 0.11017,0.0409 0.17305,0.12053 0.0473,0.37754 -0.90294,1.91459 -1.73194,3.01882 -2.86276,4.6819 -1.03927,1.53705 -2.21132,2.73642 -3.63038,3.88945 -2.1399,1.75373 -5.11182,3.66285 -7.56914,2.37931 -1.09158,-0.56133 -1.56292,-2.07299 -1.54129,-3.29775 0.0568,-3.44269 1.59864,-6.97703 4.45435,-10.4506 3.482,-4.24409 7.3312,-6.44558 9.85744,-5.24223 2.61325,1.23473 1.77921,4.23065 0.61017,6.58305 -0.0876,0.1818 -0.0936,0.3362 -0.0473,0.48513 z"
             id="path3549"
             inkscape:connector-curvature="0"
             style="display:inline;fill:#000000;fill-opacity:1" />
          <path
             d="m 345.39154,980.14065 c -7.91221,0.0562 -14.88223,-4.786 -15.68155,-13.1671 -0.44468,-4.64405 0.88131,-8.78354 3.53481,-12.19286 2.35521,-3.03825 6.34023,-5.56249 9.71356,-6.17911 1.09813,-0.19923 2.57301,-0.0722 3.18219,0.647 0.95677,1.10224 0.68111,2.31256 -0.27415,2.79569 -2.57352,1.30147 -5.67069,3.52836 -7.20243,6.5691 -1.24399,2.48241 -1.49451,5.47484 0.40394,8.32432 3.17765,4.75013 12.03405,4.88063 20.26869,-2.69459 2.0388,-1.85332 3.8643,-3.63444 5.71899,-5.74429 3.62686,-4.10612 4.83313,-5.60233 9.6542,-12.22423 0.0579,-0.0757 0.0734,-0.17682 0.0483,-0.22563 -0.0398,-0.0847 -0.10715,-0.10808 -0.2475,-0.11655 -3.2179,0.0877 -6.02431,1.03799 -8.75075,3.05668 -0.78574,0.56632 -1.91555,0.48662 -2.41053,-0.25949 -0.55032,-0.84324 -0.15644,-1.94349 0.75052,-2.5631 4.38695,-3.02131 9.17985,-3.5692 14.07435,-4.38753 -0.004,0 0.34056,0.0164 0.62024,-0.35214 2.00861,-2.55263 3.52676,-4.85622 5.66767,-7.43825 2.15751,-2.61987 4.94682,-5.02506 7.07666,-6.83208 2.97293,-2.53171 4.87891,-3.38291 6.8166,-4.42788 0.51008,-0.26298 -0.0659,-0.57976 -0.22033,-0.57976 -10.81872,-2.01271 -22.06301,-4.61765 -32.80829,-0.67887 -7.43985,2.74987 -10.70001,8.59228 -9.13155,12.49619 1.11472,2.76879 4.7939,3.21905 8.23716,1.5505 2.86074,-1.38813 5.50619,-3.62349 7.383,-6.50335 1.05084,-1.59833 3.26217,-0.44528 2.06797,2.33098 -3.14395,7.31721 -9.15066,13.12127 -16.46728,13.36533 -6.22603,0.20023 -10.24375,-4.33474 -10.23067,-9.93061 0.0232,-11.03633 12.43447,-18.30622 25.47458,-19.39302 15.70518,-1.28503 30.57935,2.85645 46.17286,4.72972 11.94703,1.43196 23.40108,1.46283 35.40898,-1.2696 1.41956,-0.30482 2.41606,0.59171 2.32351,2.01122 -0.11771,2.05257 -1.72239,4.02843 -5.67774,6.16467 -4.49761,2.44256 -9.20298,3.18319 -14.1171,3.22304 -11.88415,0.0976 -22.95389,-4.48864 -34.40895,-6.95312 0.0166,0.49609 0.14537,1.08929 -0.27516,1.40159 -6.34475,4.63458 -12.08032,9.33989 -15.92198,15.94883 -0.12979,0.15291 -0.0593,0.29884 0.16448,0.28291 3.33511,-0.17532 6.33519,-0.2605 9.44897,-0.50704 0.54328,-0.0448 0.5639,-0.17881 0.51561,-0.57278 -0.27415,-2.2782 0.39689,-4.87566 2.4211,-6.66275 2.07098,-1.83939 4.66563,-2.04858 6.38398,-0.7237 1.9563,1.50867 1.78325,4.22118 0.71331,6.25532 -1.08857,2.06451 -2.8854,3.16725 -4.61181,3.70368 0,0 -0.36067,0.0787 -0.30836,0.40394 0.0689,0.52148 2.41908,1.81149 2.6203,2.15466 0.19367,0.32674 0.0945,0.83378 -0.26309,1.22178 -0.25051,0.28191 -0.63885,0.54788 -1.13786,0.53792 -0.40393,-0.008 -0.64942,-0.14593 -1.16351,-0.42236 -1.05638,-0.56632 -2.37382,-1.49622 -3.25211,-2.59248 -0.30081,-0.37057 -0.45172,-0.37854 -1.20074,-0.33869 -3.36931,0.19275 -8.62399,0.69531 -12.18395,1.1361 -0.8617,0.10609 -0.98896,0.26548 -1.16654,0.56133 -5.67471,9.26668 -11.73474,19.25954 -18.38735,25.94968 -7.13652,7.17376 -13.06879,9.06196 -19.36524,9.11078 z m 54.08154,-41.17481 c 0.0896,0.47565 0.27717,0.5673 0.49397,0.52745 1.08052,-0.21417 2.26466,-1.09526 2.96337,-2.11482 0.63935,-0.92492 0.93816,-2.26076 0.30534,-2.79569 -0.56691,-0.48064 -1.48646,-0.34417 -2.16757,0.25202 -1.35718,1.18692 -1.77118,2.8729 -1.59511,4.13104 l 0,0"
             id="path3564"
             inkscape:connector-curvature="0"
             style="display:inline;fill:#000000;fill-opacity:1" />
        </g>
        <g
           style="font-style:normal;font-variant:normal;font-weight:normal;font-stretch:normal;font-size:54.08856583px;line-height:125%;font-family:ChunkFive;-inkscape-font-specification:ChunkFive;letter-spacing:0px;word-spacing:0px;display:inline;fill:#000000;fill-opacity:1;stroke:none"
           id="text5950">
          <path
             d="m 329.057,899.53888 10.81771,0 0,-13.52214 2.16354,0 0,-5.78748 -17.9574,0 0,5.78748 3.2994,0 0,2.27172 c -0.81133,1.4063 -2.10946,2.65034 -5.1925,2.65034 -4.7057,0 -7.41014,-4.43527 -7.41014,-9.9523 0,-5.40885 3.02897,-10.16865 7.41014,-10.16865 3.19122,0 6.00383,2.48808 6.16609,6.86925 l 9.68186,0 0,-15.95613 -8.0592,0 -1.13586,3.89438 c -0.86541,-0.86542 -2.70443,-4.54344 -10.54727,-4.54344 -8.43781,0 -16.60519,8.1133 -16.60519,19.90459 0,11.68312 7.51832,19.03918 16.98381,19.03918 4.16482,0 7.51831,-1.89311 8.70826,-3.89438 l 1.67675,3.40758"
             style="text-align:center;text-anchor:middle;fill:#000000"
             id="path3412"
             inkscape:connector-curvature="0" />
          <path
             d="m 386.52018,892.45328 -3.7862,0 -9.57368,-30.72231 -20.77,0 0,6.97743 2.21763,0 -7.30196,23.74488 -3.67802,0 0,7.0856 17.20016,0 0,-7.0856 -4.21891,0 1.13586,-3.67803 11.08816,0 1.13586,3.67803 -5.13841,0 0,7.0856 21.68951,0 0,-7.0856 m -23.25808,-21.85178 3.56984,11.68313 -7.0856,0 3.51576,-11.68313"
             style="text-align:center;text-anchor:middle;fill:#000000"
             id="path3414"
             inkscape:connector-curvature="0" />
          <path
             d="m 388.644,868.87066 2.97487,0 0,23.47444 -2.97487,0 0,7.19378 30.2896,0 0,-14.06303 -9.08688,0 0,6.86925 -6.97743,0 0,-23.47444 2.8667,0 0,-7.13969 -17.09199,0 0,7.13969"
             style="text-align:center;text-anchor:middle;fill:#000000"
             id="path3416"
             inkscape:connector-curvature="0" />
          <path
             d="m 421.60422,868.81657 3.02896,0 0,23.58262 -3.02896,0 0,7.13969 17.41652,0 0,-7.13969 -3.2994,0 0,-8.38373 4.11073,0 c 7.73465,0 14.22529,-3.56985 14.22529,-10.70954 0,-6.16609 -2.37991,-11.57495 -14.92844,-11.57495 l -17.5247,0 0,7.0856 m 16.82154,-0.0541 c 3.13714,0 5.03024,1.73083 5.03024,4.92205 0,2.8667 -2.16355,4.48936 -5.30068,4.48936 l -2.43398,0 0,-9.41141 2.70442,0"
             style="text-align:center;text-anchor:middle;fill:#000000"
             id="path3418"
             inkscape:connector-curvature="0" />
          <path
             d="m 456.2547,868.87066 3.40758,0 0,23.47444 -3.40758,0 0,7.19378 17.95741,0 0,-7.19378 -3.35349,0 0,-23.47444 3.35349,0 0,-7.13969 -17.95741,0 0,7.13969"
             style="text-align:center;text-anchor:middle;fill:#000000"
             id="path3420"
             inkscape:connector-curvature="0" />
          <path
             d="m 518.39232,861.73097 -16.28065,0 0,6.97743 3.67802,0 0.0541,12.87308 -13.30579,-19.85051 -15.52342,0 0,6.97743 3.13714,0 0,23.85305 -3.19123,0 0,6.97743 16.60519,0 0,-6.97743 -4.16482,0 0,-13.63031 13.79259,20.60774 11.62904,0 0,-30.83048 3.56984,0 0,-6.97743"
             style="text-align:center;text-anchor:middle;fill:#000000"
             id="path3422"
             inkscape:connector-curvature="0" />
        </g>
      </g>
      <path
         style="fill:#000000"
         d="m -427.40842,3103.1955 c -1.12938,-0.3279 -1.68776,-1.0468 -1.59044,-2.0477 0.12087,-1.2434 1.11774,-1.7099 4.30237,-2.0133 3.06759,-0.2922 3.55431,-0.4154 3.55431,-0.899 0,-0.5881 -0.8903,-0.884 -2.65989,-0.884 -1.33384,0 -1.77727,0.1035 -2.18357,0.5098 -0.60053,0.6005 -2.54919,0.732 -2.54919,0.1719 0,-0.5971 1.11233,-1.4014 2.37605,-1.7181 1.56187,-0.3913 5.1648,-0.1835 6.21267,0.3585 1.00043,0.5173 1.0982,0.8064 1.0982,3.2479 0,1.9831 0.0111,2.0185 0.6373,2.0185 0.50152,0 0.63729,0.1295 0.63729,0.6076 0,0.9402 -1.56833,1.2309 -2.89847,0.5372 -0.64993,-0.3389 -0.87581,-0.3388 -2.02189,0 -1.40834,0.4182 -3.67668,0.4685 -4.91474,0.109 z m 5.3066,-1.4207 c 0.63791,-0.3238 1.20554,-1.4583 0.88832,-1.7755 -0.26586,-0.2659 -4.87058,0.4004 -5.22639,0.7562 -0.47602,0.476 -0.0262,1.3596 0.77234,1.517 0.86193,0.1699 2.77696,-0.097 3.56573,-0.4977 z m 6.83138,1.3784 c -1.73169,-0.6291 -2.02669,-2.6 -0.50678,-3.386 0.43147,-0.2231 2.00978,-0.5066 3.59566,-0.6458 3.03023,-0.2659 3.27548,-0.3321 3.27548,-0.8838 0,-0.5904 -0.88845,-0.8861 -2.66238,-0.8861 -1.36077,0 -1.75838,0.096 -2.11277,0.5098 -0.31025,0.3623 -0.75198,0.5098 -1.52701,0.5098 -0.59977,0 -1.09049,-0.1199 -1.09049,-0.2665 0,-0.5096 1.21555,-1.4776 2.19799,-1.7504 1.28174,-0.356 4.15501,-0.3539 5.57592,0 1.64914,0.4151 1.87883,0.799 1.96553,3.2844 0.0717,2.0554 0.10252,2.1548 0.71224,2.297 0.86487,0.2018 1.00701,1.1508 0.20457,1.3657 -0.96191,0.2577 -1.73468,0.1878 -2.63162,-0.2378 -0.6827,-0.3239 -0.95785,-0.3427 -1.41755,-0.097 -0.83474,0.4467 -4.5194,0.5672 -5.57879,0.1824 z m 5.37417,-1.3559 c 0.67416,-0.3486 0.99019,-0.8435 0.99019,-1.5506 0,-0.3131 -0.31314,-0.3491 -1.84816,-0.2129 -2.67142,0.2371 -3.50513,0.5386 -3.50513,1.2674 0,1.1122 2.60005,1.4078 4.3631,0.4961 z m 7.50121,1.2986 c -1.14549,-0.3075 -2.17739,-1.1102 -2.17739,-1.694 0,-0.4604 2.32399,-0.2403 2.98946,0.2831 1.14491,0.9007 4.6581,0.6129 4.6581,-0.3814 0,-0.4284 -1.24194,-0.7789 -3.56887,-1.0074 -2.89692,-0.2844 -3.82377,-0.798 -3.82377,-2.1188 0,-1.726 4.28752,-2.6924 7.59177,-1.7111 1.15675,0.3436 2.09515,1.1079 2.09515,1.7066 0,0.4387 -2.34662,0.1941 -2.98948,-0.3116 -0.46239,-0.3638 -1.03415,-0.5098 -1.99498,-0.5098 -1.66399,0 -2.15327,0.176 -2.15327,0.7749 0,0.5372 0.32296,0.6535 2.42173,0.8721 3.9539,0.4118 5.08924,0.9464 4.92629,2.3202 -0.10002,0.8432 -1.04198,1.5926 -2.39684,1.9067 -1.42214,0.3299 -4.09778,0.2677 -5.5779,-0.1295 z m 31.31341,0.01 c -1.38102,-0.6011 -1.62594,-1.2265 -1.62594,-4.1516 l 0,-2.6198 1.14713,0 1.14714,0 0,2.2375 c 0,2.5955 0.29867,3.2264 1.64695,3.4794 1.18565,0.2224 2.82741,-0.2419 3.31463,-0.9376 0.27575,-0.3936 0.39171,-1.1838 0.39171,-2.6693 l 0,-2.11 1.14713,0 1.14715,0 0,3.4413 0,3.4414 -1.14715,0 c -0.88366,0 -1.14713,-0.094 -1.14713,-0.4097 0,-0.2922 -0.12783,-0.3553 -0.44611,-0.2204 -2.268,0.9617 -4.15449,1.1372 -5.57551,0.5188 z m 12.85406,0.1243 c -1.6031,-0.3117 -1.73406,-0.5558 -1.73406,-3.2306 l 0,-2.3906 -1.01968,0 c -0.9177,0 -1.01967,-0.064 -1.01967,-0.6373 0,-0.5735 0.10197,-0.6372 1.01967,-0.6372 1.01968,0 1.01968,0 1.01968,-1.0198 l 0,-1.0196 1.14714,0 1.14713,0 0,1.0196 0,1.0198 1.2746,0 c 1.18962,0 1.27459,0.043 1.27459,0.6372 0,0.5949 -0.085,0.6373 -1.27459,0.6373 l -1.2746,0 0,1.7636 c 0,2.4141 0.0867,2.5701 1.42932,2.5701 1.00887,0 1.11987,0.06 1.11987,0.6054 0,0.848 -1.06047,1.0805 -3.1094,0.6821 z m 6.93597,-0.2576 c -2.3813,-0.822 -3.32336,-2.6073 -2.38708,-4.524 0.68233,-1.3968 2.16036,-2.1296 4.63788,-2.2994 2.67396,-0.1832 4.52951,0.3513 5.6503,1.6278 0.74548,0.849 0.80906,1.0512 0.69717,2.2155 -0.10157,1.0572 -0.27878,1.4239 -1.01316,2.0969 -1.52025,1.3932 -4.95032,1.7926 -7.58511,0.8832 z m 4.38705,-1.0413 c 1.13776,-0.3159 1.72822,-1.0757 1.72822,-2.2238 0,-2.3652 -4.24814,-3.2015 -5.85915,-1.1535 -0.65567,0.8336 -0.65183,1.6149 0.0121,2.4589 0.81367,1.0345 2.41526,1.3915 4.11888,0.9184 z m 26.05224,1.2668 c -2.06599,-0.5998 -2.313,-2.8563 -0.3926,-3.5865 0.34502,-0.1311 1.77759,-0.348 3.1835,-0.482 2.9868,-0.2845 3.47534,-0.4099 3.47534,-0.8915 0,-0.5881 -0.8903,-0.884 -2.65989,-0.884 -1.34814,0 -1.77552,0.1018 -2.19698,0.5233 -0.40644,0.4064 -0.78513,0.506 -1.69618,0.4461 l -1.17292,-0.077 0.67808,-0.8034 c 0.89297,-1.0581 2.61061,-1.4735 5.37804,-1.3009 2.14485,0.1338 3.52698,0.6245 3.80577,1.351 0.0871,0.227 0.15835,1.321 0.15835,2.4312 0,1.9831 0.0111,2.0185 0.6373,2.0185 0.50152,0 0.63729,0.1294 0.63729,0.6075 0,0.9403 -1.56833,1.231 -2.89847,0.5372 -0.64993,-0.3389 -0.87581,-0.3387 -2.02189,0 -1.40835,0.4182 -3.67668,0.4685 -4.91474,0.109 z m 5.19445,-1.424 c 0.61078,-0.3844 1.2591,-1.5135 1.01126,-1.7614 -0.29409,-0.2941 -4.87548,0.3837 -5.27171,0.7799 -0.49543,0.4955 -0.12746,1.1856 0.76782,1.4403 0.8461,0.2406 2.78616,-0.015 3.49263,-0.4588 z m 8.13282,1.4518 c -0.53289,-0.1031 -1.10646,-0.3249 -1.27459,-0.4928 -0.17998,-0.1797 -0.34201,-1.2961 -0.39402,-2.7147 l -0.0883,-2.4094 -0.8676,0 c -0.75551,0 -0.86762,-0.082 -0.86762,-0.6373 0,-0.5584 0.11046,-0.6372 0.89222,-0.6372 0.87097,0 0.89222,-0.024 0.89222,-1.0198 l 0,-1.0196 1.27459,0 1.2746,0 0,1.0196 0,1.0198 1.30187,0 c 1.08239,0 1.27577,0.068 1.14713,0.4032 -0.0851,0.2217 -0.15473,0.5085 -0.15473,0.6373 0,0.1287 -0.52085,0.234 -1.15745,0.234 l -1.15744,0 0.074,2.1031 0.074,2.1031 1.21087,0.077 c 1.07429,0.069 1.21086,0.1444 1.21086,0.6691 0,0.8463 -1.21741,1.0847 -3.39064,0.6639 z m 11.75603,-0.1567 c -2.03951,-0.6276 -3.24596,-2.315 -2.82877,-3.9564 0.46425,-1.8268 2.02159,-2.768 4.90686,-2.9658 3.87848,-0.2658 6.38117,1.1727 6.38117,3.6676 0,2.2702 -2.31431,3.6884 -5.93941,3.6398 -0.72917,-0.01 -1.86311,-0.183 -2.51985,-0.3852 z m 5.03536,-1.497 c 0.82999,-0.5438 1.14405,-1.6588 0.73876,-2.6226 -0.38548,-0.9168 -0.92892,-1.2603 -2.35516,-1.4883 -1.90791,-0.3051 -3.88186,0.8718 -3.88186,2.3145 0,0.809 0.9124,1.8631 1.8642,2.1537 1.01839,0.311 2.89584,0.1265 3.63406,-0.3573 z m 42.88938,1.5121 c -2.8506,-0.9132 -3.81085,-3.6177 -1.94646,-5.482 2.03729,-2.0373 7.53369,-1.993 9.27867,0.074 l 0.69563,0.8242 -1.17822,0.077 c -0.91114,0.06 -1.35825,-0.056 -1.97245,-0.5098 -1.66703,-1.2325 -4.58097,-0.5736 -5.20419,1.1769 -0.81223,2.2813 3.29595,3.9006 5.2198,2.0574 0.51508,-0.4935 0.93107,-0.6351 1.86628,-0.6351 l 1.20346,0 -0.39417,0.7623 c -0.87264,1.6876 -4.79073,2.5437 -7.56835,1.654 z m -196.24059,-4.4556 0,-4.5885 1.40205,0 c 0.77113,0 1.38847,0.086 1.37187,0.1912 -0.0166,0.1051 -0.0166,0.9081 0,1.7843 l 0.0302,1.5933 3.82379,0 3.82379,0 0,-1.7844 0,-1.7844 1.27459,0 1.27459,0 0,4.5885 0,4.5885 -1.27459,0 -1.27459,0 0,-2.1668 0,-2.1667 -3.82379,0 -3.82379,0 0,2.1667 0,2.1668 -1.40205,0 -1.40205,0 0,-4.5885 z m 56.89619,3.6128 c 0.32341,-0.5367 1.56308,-2.606 2.75482,-4.5985 l 2.16682,-3.6226 1.64495,0.073 1.64496,0.073 2.61134,4.3336 c 1.43624,2.3836 2.61746,4.4197 2.62494,4.5248 0.008,0.1052 -0.60874,0.1912 -1.36936,0.1912 -1.3634,0 -1.3914,-0.015 -1.98008,-1.0833 l -0.59712,-1.0835 -2.97543,-0.072 -2.97544,-0.072 -0.67693,1.155 c -0.67193,1.1466 -0.68722,1.1551 -2.06921,1.1551 l -1.39228,0 0.58802,-0.9757 z m 7.68051,-4.5688 c -0.51029,-0.9464 -0.99761,-1.8029 -1.08293,-1.9035 -0.0854,-0.1005 -0.63231,0.6738 -1.21555,1.7208 l -1.06044,1.9035 2.14336,0 2.14337,0 -0.92781,-1.7208 z m 38.41053,2.1031 0,-3.4413 1.27459,0 c 1.09736,0 1.2746,0.07 1.2746,0.5012 0,0.4893 0.0222,0.488 0.93414,-0.05 1.30037,-0.7672 3.92964,-0.7929 5.18568,-0.05 0.8617,0.5094 0.9206,0.5123 1.63134,0.082 1.62941,-0.9856 4.70694,-0.8272 5.91126,0.3042 0.57422,0.5394 0.61303,0.7506 0.61303,3.3356 l 0,2.7596 -1.14713,0 -1.14714,0 0,-2.3821 c 0,-1.9842 -0.0779,-2.4527 -0.46617,-2.8041 -0.69396,-0.6281 -2.85064,-0.5661 -3.70561,0.1064 -0.63601,0.5003 -0.67167,0.6491 -0.67167,2.8041 l 0,2.2757 -1.14714,0 -1.14714,0 0,-2.2375 c 0,-2.9325 -0.27907,-3.3707 -2.14689,-3.3707 -0.98301,0 -1.53696,0.1445 -2.02488,0.5284 -0.63602,0.5003 -0.67168,0.6491 -0.67168,2.8041 l 0,2.2757 -1.2746,0 -1.27459,0 0,-3.4414 z m 38.49275,0 0,-3.4413 1.14714,0 1.14713,0 0,3.4413 0,3.4414 -1.14713,0 -1.14714,0 0,-3.4414 z m 16.99459,3.2715 c -0.0935,-0.094 -0.16995,-1.6421 -0.16995,-3.4415 l 0,-3.2713 1.2746,0 c 1.09736,0 1.27459,0.07 1.27459,0.5012 0,0.4881 0.0245,0.4867 0.94555,-0.057 1.21936,-0.7195 4.10045,-0.7725 5.37465,-0.099 1.11038,0.5868 1.32737,1.2623 1.32737,4.1322 l 0,2.405 -1.2746,0 -1.27459,0 0,-2.4035 c 0,-2.9586 -0.17495,-3.2047 -2.2781,-3.2047 -1.10817,0 -1.64463,0.132 -2.1486,0.5284 -0.63601,0.5002 -0.67168,0.6491 -0.67168,2.8041 l 0,2.2757 -1.10465,0 c -0.60755,0 -1.18112,-0.076 -1.27459,-0.1699 z m 18.43913,-4.4186 0,-4.5885 1.2746,0 1.27459,0 0,4.5885 0,4.5885 -1.27459,0 -1.2746,0 0,-4.5885 z m 4.84346,1.1471 0,-3.4413 1.14714,0 c 0.99797,0 1.14713,0.07 1.14713,0.5391 0,0.5067 0.0359,0.5156 0.59661,0.1483 1.75551,-1.1503 4.92699,-1.1547 6.28883,-0.01 0.76048,0.6399 0.76213,0.6473 0.76213,3.4228 l 0,2.7813 -1.14714,0 -1.14714,0 0,-2.2942 c 0,-2.8975 -0.30673,-3.314 -2.44133,-3.314 -1.23142,0 -1.52138,0.1 -2.16681,0.7452 -0.70058,0.7006 -0.74515,0.8683 -0.74515,2.8041 l 0,2.0589 -1.14713,0 -1.14714,0 0,-3.4413 z m 24.21729,2.5492 0,-0.8922 1.2746,0 1.27459,0 0,0.8922 0,0.8922 -1.27459,0 -1.2746,0 0,-0.8922 z m -64.49447,-7.775 c 0,-0.7364 0.0424,-0.7647 1.14714,-0.7647 1.10465,0 1.14713,0.028 1.14713,0.7647 0,0.7364 -0.0424,0.7647 -1.14713,0.7647 -1.10465,0 -1.14714,-0.028 -1.14714,-0.7647 z m -137.61878,-8.9404 c -1.55795,-0.3075 -3.24058,-1.3627 -4.12938,-2.5897 -1.39224,-1.9219 -1.51625,-2.8383 -1.51625,-11.204 l 0,-7.6013 16.84543,0 16.84544,0 -0.50946,0.8286 c -0.96858,1.5751 -5.94363,10.2611 -5.98801,10.4546 -0.0245,0.1067 2.7639,0.1971 6.19644,0.2007 l 6.241,0.01 2.44525,-4.2795 c 1.34488,-2.3538 7.47737,-13.1125 13.62773,-23.9083 6.15036,-10.7958 11.40129,-20.0016 11.66872,-20.4573 l 0.48624,-0.8284 -6.12166,0 -6.12165,0 -1.24801,2.2305 c -1.20852,2.16 -13.63466,23.6991 -14.19186,24.5997 -0.25903,0.4188 -1.50105,0.4461 -20.2258,0.4461 l -19.9498,0 0,-37.6005 0,-37.6005 -14.75409,0 c -12.7005,0 -14.79756,-0.052 -15.0665,-0.3765 -0.38752,-0.4669 -0.75223,0.2128 10.32875,-19.2523 1.71603,-3.0144 3.42983,-6.0543 3.80846,-6.7553 1.36693,-2.531 0.96985,-2.4218 8.80915,-2.4218 l 6.86296,0 0.0694,-26.9758 0.0693,-26.9759 0.76741,-1.5004 c 0.476,-0.9306 1.18207,-1.8166 1.85941,-2.3332 2.27201,-1.733 -2.57802,-1.6108 63.93333,-1.6108 l 60.22208,0 1.7235,-2.9953 c 0.94792,-1.6474 2.82226,-4.888 4.16519,-7.2015 l 2.4417,-4.2061 16.22027,-0.066 c 14.95489,-0.06 16.23304,-0.033 16.3837,0.3603 0.15962,0.416 -0.6667,1.9815 -5.5474,10.5102 -1.07397,1.8766 -1.95267,3.4539 -1.95267,3.5051 0,0.051 6.73942,0.091 14.97649,0.088 l 14.97648,-0.01 3.28015,-5.5997 c 1.89064,-3.2276 3.39215,-5.5306 3.54453,-5.4363 0.14948,0.093 0.18825,0.041 0.0892,-0.1201 -0.16127,-0.2609 1.18304,-2.963 1.60336,-3.2227 0.10105,-0.063 7.1163,-0.1914 15.58945,-0.2863 15.06379,-0.1689 15.41937,-0.1615 16.02052,0.3277 l 0.61479,0.5004 -0.76797,1.379 c -2.19987,3.9505 -2.73319,4.7859 -2.96424,4.643 -0.13904,-0.086 -0.17409,-0.029 -0.0779,0.1268 0.0962,0.1557 -2.54497,5.02 -5.86925,10.8097 -3.32429,5.7897 -7.22727,12.5916 -8.67331,15.1153 l -2.62917,4.5885 -0.002,56.5195 -0.002,56.5195 -20.20232,0.075 c -21.55237,0.079 -20.79586,0.035 -22.81638,1.3255 -0.45628,0.2913 -1.27114,1.1607 -1.8108,1.9318 -1.28176,1.8315 -10.74482,18.4713 -11.16291,19.6287 -0.68644,1.9004 -0.35105,3.8743 0.88242,5.1935 1.29173,1.3816 1.65949,1.4345 9.98117,1.4345 4.21066,0 7.65574,0.043 7.65574,0.095 0,0.1602 -4.30955,7.6552 -4.65022,8.0875 -0.17638,0.2238 -0.72219,0.6252 -1.21291,0.8921 -0.81552,0.4436 -1.67014,0.4963 -9.94184,0.6128 l -9.04961,0.1275 0,5.1725 0,5.1724 11.25617,-0.015 c 12.10407,-0.016 12.45048,-0.049 14.7216,-1.3799 1.40643,-0.8242 2.64972,-2.2596 3.73246,-4.309 0.45955,-0.8699 2.7489,-5.023 5.08744,-9.2292 4.3311,-7.79 5.18,-9.593 5.46606,-11.6088 0.20477,-1.443 -0.39844,-2.6992 -1.64352,-3.4227 -0.83942,-0.4879 -1.38497,-0.5231 -9.21862,-0.5951 l -8.3264,-0.076 2.02506,-3.6197 c 1.11379,-1.9909 2.31469,-3.8779 2.66867,-4.1933 l 0.64361,-0.5737 17.95756,0 17.95757,0 -0.003,21.8594 -0.003,21.8593 -0.59806,1.2843 c -0.68338,1.4675 -2.47111,3.1629 -3.90227,3.7007 -0.84154,0.3162 -14.55336,0.3717 -99.88397,0.404 -54.39969,0.02 -99.4079,-0.061 -100.01825,-0.1816 z m 60.23258,-14.8491 c 2.98257,-5.2342 9.82306,-17.1586 16.25813,-28.3414 7.28767,-12.6644 9.12462,-15.8937 9.12462,-16.0411 0,-0.08 -2.66709,-0.1417 -5.92687,-0.1362 l -5.92686,0.011 -5.73567,9.8373 c -6.59052,11.3034 -10.97972,18.7824 -11.09593,18.9069 -0.0443,0.047 -0.40965,-0.1572 -0.81202,-0.4547 -0.85948,-0.6354 -3.44358,-1.0948 -5.53325,-0.9837 l -1.4591,0.077 -2.78596,5.0827 c -1.53227,2.7955 -2.78596,5.1757 -2.78596,5.2896 0,0.1137 1.48864,0.2069 3.30807,0.2069 3.23388,0 3.3173,0.014 3.71938,0.6278 0.38678,0.5902 0.37404,0.7081 -0.21367,1.9756 -0.34375,0.7413 -1.60241,3.0343 -2.79706,5.0955 -1.19463,2.0613 -2.138,3.7819 -2.09638,3.8238 0.0417,0.042 2.75253,0.039 6.02422,-0.01 l 5.94852,-0.082 2.78579,-4.8889 z m 53.50706,-3.8692 c 10.39805,-18.2237 22.53462,-39.5362 22.82713,-40.086 l 0.30519,-0.5736 -6.19075,0 -6.19076,0 -5.01732,8.473 c -2.75955,4.6602 -7.3194,12.3654 -10.13303,17.1228 l -5.1157,8.6497 0,-15.7746 c 0,-9.5494 -0.092,-15.6792 -0.23331,-15.5326 -0.12834,0.1332 -2.4226,4.0094 -5.09838,8.6138 l -4.86506,8.3718 0,4.0257 0,4.0258 -1.05918,-0.3649 c -0.58254,-0.2007 -1.57635,-0.3306 -2.20846,-0.2888 l -1.14929,0.076 -2.88766,5.0984 c -1.58821,2.8041 -2.88867,5.1845 -2.88991,5.2896 -9.7e-4,0.1052 1.77949,0.1912 3.95718,0.1912 6.48053,0 6.49224,0.012 6.49224,6.6421 0,2.6094 0.0476,4.7921 0.10579,4.8505 0.0582,0.058 3.32331,0.049 7.25585,-0.021 l 7.15007,-0.1275 4.94536,-8.6673 z m -34.42737,0.3076 c 2.63226,-4.6557 7.20374,-12.7094 10.15884,-17.897 10.85961,-19.0638 12.96887,-22.7931 12.96887,-22.9301 0,-0.077 -2.60974,-0.1371 -5.79941,-0.1334 l -5.7994,0.01 -14.27547,24.4832 c -7.8515,13.4656 -14.31369,24.59 -14.36042,24.7205 -0.051,0.1426 2.39152,0.233 6.11805,0.2264 l 6.20303,-0.011 4.78591,-8.4651 z m 59.32618,-14.838 c 0,-12.8287 -0.086,-23.3216 -0.19119,-23.3175 -0.10515,0 -1.28096,1.9648 -2.61291,4.3569 -3.25202,5.8404 -3.1726,5.6984 -5.55534,9.9327 l -2.09224,3.7181 -0.004,3.802 c -0.002,2.0912 -0.0905,3.6659 -0.19638,3.4994 -0.30737,-0.4834 -1.52004,-0.845 -2.81161,-0.8383 l -1.19427,0.01 -1.25544,2.2243 c -2.83607,5.0248 -4.48023,8.0547 -4.48023,8.2562 0,0.1175 1.78939,0.2136 3.97644,0.2136 4.5335,0 5.48232,0.2534 5.94765,1.5883 0.15421,0.4423 0.27265,2.7589 0.27265,5.3326 l 0,4.5506 5.09839,0 5.09837,0 0,-23.3251 z m -52.32282,-44.0613 c 0.14975,-0.3286 3.56791,-6.3798 7.59587,-13.447 7.73693,-13.5745 18.60629,-32.6577 21.58453,-37.8957 1.04777,-1.8428 1.88701,-3.0547 2.04688,-2.9559 0.16334,0.1009 0.19578,0.045 0.0817,-0.1388 -0.16392,-0.2653 3.36408,-6.8138 5.43955,-10.0967 0.35455,-0.5608 0.64965,-1.077 0.65576,-1.1472 0.0242,-0.2774 7.87937,-13.9032 8.09919,-14.049 0.12926,-0.086 0.19671,-0.2005 0.14988,-0.2549 -0.0896,-0.1042 0.79659,-1.6938 6.37856,-11.4429 1.88652,-3.2947 3.77545,-6.6214 4.19762,-7.3926 0.42217,-0.7712 1.01943,-1.8052 1.32724,-2.2978 0.30781,-0.4927 0.86616,-1.5007 1.24079,-2.2401 0.4175,-0.8238 0.79157,-1.2759 0.96639,-1.1678 0.17261,0.1066 0.21402,0.061 0.10488,-0.1155 -0.0992,-0.1606 0.69148,-1.7916 1.75704,-3.6247 1.06555,-1.8331 2.27496,-3.9569 2.68757,-4.7195 0.41261,-0.7627 1.03814,-1.8427 1.39007,-2.4002 0.35193,-0.5575 0.63987,-1.0596 0.63987,-1.1157 0,-0.056 1.95013,-3.517 4.33362,-7.6906 2.38349,-4.1736 4.33362,-7.6288 4.33362,-7.678 0,-0.049 -6.99487,-0.09 -15.54417,-0.09 l -15.54417,0 -0.34991,0.5736 c -0.19245,0.3155 -2.79783,4.84 -5.78974,10.0546 -2.99191,5.2145 -5.55059,9.4125 -5.68595,9.3288 -0.13537,-0.084 -0.16857,-0.027 -0.0738,0.1268 0.0947,0.1534 -0.74784,1.8513 -1.87251,3.7732 -1.12466,1.9219 -2.04484,3.5282 -2.04484,3.5696 0,0.041 -0.74564,1.3504 -1.65697,2.9088 -0.91134,1.5584 -1.65698,2.8821 -1.65698,2.9413 0,0.059 -0.38429,0.7123 -0.854,1.4511 -0.4697,0.7388 -1.23275,2.0315 -1.69567,2.8727 -2.01228,3.6569 -5.72963,9.9577 -5.97602,10.1293 -0.14795,0.1029 -0.19208,0.1889 -0.0981,0.1911 0.0941,0 -1.00363,2.04 -2.4392,4.5287 -1.43558,2.4887 -4.83741,8.3953 -7.55962,13.126 l -4.94948,8.6011 -53.40154,0 c -42.27938,0 -53.46491,0.07 -53.70579,0.321 -0.16733,0.1746 -1.27084,2.0382 -2.45225,4.1413 -5.16552,9.1954 -6.42225,11.3039 -6.65259,11.1616 -0.13475,-0.083 -0.16659,-0.024 -0.0708,0.1305 0.0958,0.1551 -0.49987,1.4634 -1.3238,2.9073 -4.00148,7.0124 -4.63481,8.1391 -4.63481,8.2453 0,0.063 23.90352,0.1433 53.11895,0.1787 l 53.11895,0.065 -2.3447,4.0786 c -3.44588,5.9943 -14.65241,25.3572 -15.23325,26.3204 l -0.4996,0.8285 16.29468,0 16.29469,0 0.2723,-0.5976 z m 67.75567,-9.5354 c 3.19994,-5.5732 7.7063,-13.4023 10.01413,-17.3982 2.30783,-3.9958 4.48239,-7.7814 4.83238,-8.4123 0.34999,-0.631 1.06483,-1.8928 1.58852,-2.8041 0.5237,-0.9113 2.30283,-4.0086 3.95362,-6.8828 1.65079,-2.8742 3.60112,-6.2583 4.33406,-7.5201 0.73293,-1.2619 1.88551,-3.2694 2.56128,-4.4612 0.67575,-1.1917 1.34968,-2.251 1.49759,-2.354 0.1479,-0.103 0.19234,-0.1891 0.0988,-0.1912 -0.0936,0 0.97799,-1.9827 2.3813,-4.4012 1.40331,-2.4186 2.95915,-5.1431 3.45741,-6.0544 0.49828,-0.9113 0.98863,-1.7717 1.08969,-1.9118 0.10104,-0.1403 1.9914,-3.4096 4.20078,-7.2653 2.20939,-3.8556 4.3931,-7.6411 4.85269,-8.4123 0.45959,-0.7711 3.35674,-5.8185 6.43812,-11.2164 3.08136,-5.3979 8.46606,-14.8044 11.966,-20.9033 3.49991,-6.099 6.50031,-11.3472 6.66751,-11.6626 l 0.30402,-0.5736 -15.26772,0 -15.2677,0 -4.93293,8.3486 c -2.71311,4.5918 -6.98742,11.8474 -9.49846,16.1236 -2.51104,4.2763 -4.78143,8.0796 -5.04531,8.4517 -0.26388,0.3722 -0.47977,0.7328 -0.47977,0.8015 0,0.3939 -3.64757,6.1574 -3.86011,6.0994 -0.14107,-0.039 -0.18449,0.046 -0.0965,0.1888 0.16167,0.2616 -1.4962,3.3175 -1.95629,3.6061 -0.13678,0.086 -0.21023,0.203 -0.1632,0.2605 0.0471,0.057 -3.06912,5.4727 -6.92477,12.0336 -3.85564,6.5609 -7.41176,12.6488 -7.90248,13.5286 -0.49072,0.8797 -1.97798,3.4897 -3.30502,5.7998 l -2.4128,4.2003 -0.48419,-0.9787 c -1.0222,-2.066 -3.41663,-3.3628 -7.48128,-4.0515 -1.81756,-0.308 -11.86143,-0.516 -12.27502,-0.2541 -0.21898,0.1386 -7.91814,14.1673 -11.20505,20.4168 -0.77429,1.4721 -1.85221,3.4668 -2.39538,4.4326 -0.54317,0.9659 -0.94141,1.8023 -0.88497,1.8587 0.0565,0.056 3.12822,0.1448 6.82618,0.1962 4.08182,0.057 7.1057,0.2094 7.69609,0.3884 2.38874,0.7243 3.96458,3.6364 3.64981,6.7446 -0.19735,1.9488 -0.48148,2.5079 -7.36991,14.5043 -3.0455,5.3038 -5.53726,9.6916 -5.53726,9.7506 0,0.059 6.86658,0.1074 15.25906,0.1074 l 15.25907,0 5.81806,-10.133 z"
         id="path3559"
         inkscape:connector-curvature="0" />
      <g
         style="fill:#000000"
         id="g3561"
         transform="matrix(4.8709382,0,0,4.8709382,6050.6593,-6521.0418)">
        <path
           id="path3563"
           style="font-style:normal;font-variant:normal;font-weight:bold;font-stretch:normal;font-size:73.90770721px;font-family:'Devil Breeze';-inkscape-font-specification:'Devil Breeze Bold';text-align:end;text-anchor:end;fill:#000000;fill-opacity:1"
           d="m -1517.9482,1810.3761 q 0.7391,1.6999 1.0348,3.5476 0.3695,1.7738 0.3695,3.6954 0,3.991 -1.5521,7.6125 -2.5867,5.9865 -7.6864,9.0906 -5.0257,3.0302 -11.5296,3.0302 -3.6954,0 -7.0951,-1.0347 -3.3998,-1.0347 -6.2083,-3.0302 -2.7345,-1.9955 -4.6561,-4.8779 -1.9216,-2.9563 -2.6607,-6.7256 l 13.9685,0 q 1.1086,1.626 2.7346,2.5128 1.6999,0.8869 3.6215,0.8869 1.4781,0 2.8085,-0.5173 1.3303,-0.5913 2.2911,-1.5521 1.0347,-1.0347 1.5521,-2.2911 0.5912,-1.3304 0.5912,-2.8085 0,-3.2519 -2.1433,-5.1735 -2.1433,-1.9216 -5.2474,-1.9216 -5.0997,0 -7.0952,4.6561 l -11.16,-2.7345 4.6562,-30.7457 17.7378,0 12.1209,0 0.074,0 0,11.6775 -0.074,0 0,2.8085 -12.1209,0 0,-2.8085 -7.0951,0 -1.1826,7.3907 q 1.8477,-1.0347 3.5476,-1.3303 1.6999,-0.2956 3.7693,-0.2956 5.7648,0 10.1254,2.8085 4.3605,2.8084 6.5038,8.1298 z"
           inkscape:connector-curvature="0" />
        <path
           id="path3565"
           style="font-style:normal;font-variant:normal;font-weight:bold;font-stretch:normal;font-size:73.90770721px;font-family:'Devil Breeze';-inkscape-font-specification:'Devil Breeze Bold';text-align:end;text-anchor:end;fill:#000000;fill-opacity:1"
           d="m -1498.388,1821.0188 q -3.8432,0 -6.7256,-1.4781 -2.8824,-1.4782 -4.8779,-3.9911 -1.9216,-2.5128 -2.9563,-5.8387 -0.9608,-3.3258 -0.9608,-7.0212 0,-4.5084 1.6259,-8.2777 1.626,-3.7693 4.4345,-6.5038 2.8824,-2.7346 6.7256,-4.2867 3.8432,-1.552 8.3516,-1.552 4.5822,0 8.4994,1.552 3.9171,1.4782 6.7256,4.2128 2.8824,2.7345 4.5083,6.6516 1.626,3.8432 1.626,8.4994 0,3.991 -1.4043,7.6125 -1.4042,3.6215 -3.6214,6.8734 l -13.3773,19.8812 -16.1119,0 19.8073,-31.7803 q 0.1478,-0.2956 0.2956,-0.5174 0.1478,-0.2217 0.2956,-0.5912 0.2957,-0.5913 0.3696,-1.2564 0.074,-0.7391 0.074,-1.4782 0,-3.1041 -2.0695,-5.3214 -1.9955,-2.2172 -5.1735,-2.2172 -3.178,0 -5.3953,2.0694 -2.2172,2.0694 -2.2172,5.2475 0,3.3258 2.1433,5.3952 2.2173,2.0695 5.4692,2.0695 1.0347,0 2.2911,-0.3696 l -8.3515,12.4165 0,0 z"
           inkscape:connector-curvature="0" />
        <path
           id="path3567"
           style="font-style:normal;font-variant:normal;font-weight:bold;font-stretch:normal;font-size:73.90770721px;font-family:'Devil Breeze';-inkscape-font-specification:'Devil Breeze Bold';text-align:end;text-anchor:end;fill:#000000;fill-opacity:1"
           d="m -1426.895,1816.4365 3.178,0 0,11.1601 -6.2082,0 0,9.7558 -13.5251,0 0,-9.7558 -24.3896,0 0,-11.1601 0,-34.5149 12.6382,0 0,34.5149 1.626,0 11.0123,0 0,-34.5149 12.6382,0 0,34.5149 3.0302,0 0,0 z"
           inkscape:connector-curvature="0" />
        <path
           id="path3569"
           style="font-style:normal;font-variant:normal;font-weight:bold;font-stretch:normal;font-size:73.90770721px;font-family:'Devil Breeze';-inkscape-font-specification:'Devil Breeze Bold';text-align:end;text-anchor:end;fill:#000000;fill-opacity:1"
           d="m -1382.0677,1822.7926 0,2.8085 0,6.7256 0,5.0257 -12.2687,0 -26.0155,0 0,-10.8644 q 4.5084,-2.9563 8.6472,-5.9865 4.1389,-3.0303 7.8342,-7.0952 1.1826,-1.3303 2.5129,-2.9563 1.3303,-1.6999 2.439,-3.5476 1.1086,-1.8477 1.7737,-3.7693 0.7391,-1.9216 0.7391,-3.6953 0,-2.2912 -1.4042,-3.7693 -1.3304,-1.5521 -3.6954,-1.5521 -1.8477,0 -3.0302,0.813 -1.1825,0.7391 -1.8477,1.9955 -0.6652,1.2564 -0.9608,2.8085 -0.2956,1.4781 -0.3696,3.0302 l -13.2294,0 q 0.1478,-3.5476 0.6651,-6.5039 0.5913,-3.0302 2.5129,-6.0604 2.8085,-4.2866 7.3169,-6.2822 4.5822,-1.9955 9.4601,-1.9955 2.6607,0 5.1736,0.5913 2.5868,0.5174 4.804,1.6999 2.2911,1.1825 4.1388,3.0302 1.8477,1.7738 3.0302,4.2127 1.3304,3.0302 1.3304,6.2822 0,4.4344 -1.6999,8.3516 -1.626,3.9171 -4.2867,7.3907 -2.5867,3.3998 -5.7648,6.43 -3.178,3.0302 -6.2082,5.6909 l 6.1343,0 0,-2.8085 12.2687,0 z"
           inkscape:connector-curvature="0" />
      </g>
      <g
         transform="matrix(4.8709382,0,0,4.8709382,6050.6593,-6857.7084)"
         id="g3571"
         style="fill:#000000">
        <path
           inkscape:connector-curvature="0"
           d="m -1517.9482,1810.3761 q 0.7391,1.6999 1.0348,3.5476 0.3695,1.7738 0.3695,3.6954 0,3.991 -1.5521,7.6125 -2.5867,5.9865 -7.6864,9.0906 -5.0257,3.0302 -11.5296,3.0302 -3.6954,0 -7.0951,-1.0347 -3.3998,-1.0347 -6.2083,-3.0302 -2.7345,-1.9955 -4.6561,-4.8779 -1.9216,-2.9563 -2.6607,-6.7256 l 13.9685,0 q 1.1086,1.626 2.7346,2.5128 1.6999,0.8869 3.6215,0.8869 1.4781,0 2.8085,-0.5173 1.3303,-0.5913 2.2911,-1.5521 1.0347,-1.0347 1.5521,-2.2911 0.5912,-1.3304 0.5912,-2.8085 0,-3.2519 -2.1433,-5.1735 -2.1433,-1.9216 -5.2474,-1.9216 -5.0997,0 -7.0952,4.6561 l -11.16,-2.7345 4.6562,-30.7457 17.7378,0 12.1209,0 0.074,0 0,11.6775 -0.074,0 0,2.8085 -12.1209,0 0,-2.8085 -7.0951,0 -1.1826,7.3907 q 1.8477,-1.0347 3.5476,-1.3303 1.6999,-0.2956 3.7693,-0.2956 5.7648,0 10.1254,2.8085 4.3605,2.8084 6.5038,8.1298 z"
           style="font-style:normal;font-variant:normal;font-weight:bold;font-stretch:normal;font-size:73.90770721px;font-family:'Devil Breeze';-inkscape-font-specification:'Devil Breeze Bold';text-align:end;text-anchor:end;fill:#000000;fill-opacity:1"
           id="path3573" />
        <path
           inkscape:connector-curvature="0"
           d="m -1498.388,1821.0188 q -3.8432,0 -6.7256,-1.4781 -2.8824,-1.4782 -4.8779,-3.9911 -1.9216,-2.5128 -2.9563,-5.8387 -0.9608,-3.3258 -0.9608,-7.0212 0,-4.5084 1.6259,-8.2777 1.626,-3.7693 4.4345,-6.5038 2.8824,-2.7346 6.7256,-4.2867 3.8432,-1.552 8.3516,-1.552 4.5822,0 8.4994,1.552 3.9171,1.4782 6.7256,4.2128 2.8824,2.7345 4.5083,6.6516 1.626,3.8432 1.626,8.4994 0,3.991 -1.4043,7.6125 -1.4042,3.6215 -3.6214,6.8734 l -13.3773,19.8812 -16.1119,0 19.8073,-31.7803 q 0.1478,-0.2956 0.2956,-0.5174 0.1478,-0.2217 0.2956,-0.5912 0.2957,-0.5913 0.3696,-1.2564 0.074,-0.7391 0.074,-1.4782 0,-3.1041 -2.0695,-5.3214 -1.9955,-2.2172 -5.1735,-2.2172 -3.178,0 -5.3953,2.0694 -2.2172,2.0694 -2.2172,5.2475 0,3.3258 2.1433,5.3952 2.2173,2.0695 5.4692,2.0695 1.0347,0 2.2911,-0.3696 l -8.3515,12.4165 0,0 z"
           style="font-style:normal;font-variant:normal;font-weight:bold;font-stretch:normal;font-size:73.90770721px;font-family:'Devil Breeze';-inkscape-font-specification:'Devil Breeze Bold';text-align:end;text-anchor:end;fill:#000000;fill-opacity:1"
           id="path3575" />
        <path
           inkscape:connector-curvature="0"
           d="m -1426.895,1816.4365 3.178,0 0,11.1601 -6.2082,0 0,9.7558 -13.5251,0 0,-9.7558 -24.3896,0 0,-11.1601 0,-34.5149 12.6382,0 0,34.5149 1.626,0 11.0123,0 0,-34.5149 12.6382,0 0,34.5149 3.0302,0 0,0 z"
           style="font-style:normal;font-variant:normal;font-weight:bold;font-stretch:normal;font-size:73.90770721px;font-family:'Devil Breeze';-inkscape-font-specification:'Devil Breeze Bold';text-align:end;text-anchor:end;fill:#000000;fill-opacity:1"
           id="path3577" />
        <path
           inkscape:connector-curvature="0"
           d="m -1382.0677,1822.7926 0,2.8085 0,6.7256 0,5.0257 -12.2687,0 -26.0155,0 0,-10.8644 q 4.5084,-2.9563 8.6472,-5.9865 4.1389,-3.0303 7.8342,-7.0952 1.1826,-1.3303 2.5129,-2.9563 1.3303,-1.6999 2.439,-3.5476 1.1086,-1.8477 1.7737,-3.7693 0.7391,-1.9216 0.7391,-3.6953 0,-2.2912 -1.4042,-3.7693 -1.3304,-1.5521 -3.6954,-1.5521 -1.8477,0 -3.0302,0.813 -1.1825,0.7391 -1.8477,1.9955 -0.6652,1.2564 -0.9608,2.8085 -0.2956,1.4781 -0.3696,3.0302 l -13.2294,0 q 0.1478,-3.5476 0.6651,-6.5039 0.5913,-3.0302 2.5129,-6.0604 2.8085,-4.2866 7.3169,-6.2822 4.5822,-1.9955 9.4601,-1.9955 2.6607,0 5.1736,0.5913 2.5868,0.5174 4.804,1.6999 2.2911,1.1825 4.1388,3.0302 1.8477,1.7738 3.0302,4.2127 1.3304,3.0302 1.3304,6.2822 0,4.4344 -1.6999,8.3516 -1.626,3.9171 -4.2867,7.3907 -2.5867,3.3998 -5.7648,6.43 -3.178,3.0302 -6.2082,5.6909 l 6.1343,0 0,-2.8085 12.2687,0 z"
           style="font-style:normal;font-variant:normal;font-weight:bold;font-stretch:normal;font-size:73.90770721px;font-family:'Devil Breeze';-inkscape-font-specification:'Devil Breeze Bold';text-align:end;text-anchor:end;fill:#000000;fill-opacity:1"
           id="path3579" />
      </g>
      <text
         xml:space="preserve"
         style="font-style:normal;font-weight:normal;font-size:87.92649841px;line-height:100%;font-family:sans-serif;text-align:center;letter-spacing:0px;word-spacing:0px;text-anchor:middle;fill:#000000;fill-opacity:1;stroke:none;stroke-width:1px;stroke-linecap:butt;stroke-linejoin:miter;stroke-opacity:1"
         x="2929.6506"
         y="532.51642"
         id="text4476"
         sodipodi:linespacing="100%"
         transform="matrix(0,1,-1,0,0,0)"><tspan
           sodipodi:role="line"
           x="2929.6506"
           y="532.51642"
           style="font-style:normal;font-variant:normal;font-weight:normal;font-stretch:normal;font-size:49.45866013px;line-height:100%;font-family:'Big John';-inkscape-font-specification:'Big John';text-align:center;text-anchor:middle;fill:#000000"
           id="tspan5280">centers of</tspan><tspan
           sodipodi:role="line"
           x="2929.6506"
           y="581.9751"
           style="font-style:normal;font-variant:normal;font-weight:normal;font-stretch:normal;font-size:49.45866013px;line-height:100%;font-family:'Big John';-inkscape-font-specification:'Big John';text-align:center;text-anchor:middle;fill:#000000"
           id="tspan3593">learning</tspan><tspan
           sodipodi:role="line"
           x="2940.7595"
           y="631.43372"
           style="font-style:normal;font-variant:normal;font-weight:normal;font-stretch:normal;font-size:49.45866013px;line-height:100%;font-family:'Big John';-inkscape-font-specification:'Big John';text-align:center;text-anchor:middle;fill:#000000"
           id="tspan3589">robotics </tspan></text>
      <g
         transform="matrix(4.9888835,0,0,4.9888835,-2062.3645,-2884.7769)"
         id="g3595">
        <path
           inkscape:connector-curvature="0"
           d="m 334.75417,982.12054 16.12704,0 c 0,0 4.61687,0.0953 4.61687,4.63536 l 0,16.5507 c 0,0 0.0555,3.8548 -4.61687,3.8548 l -16.12704,0 c 0,0 -4.70503,0.074 -4.70503,-3.8548 l 0,-16.5507 c 0,0 -0.0583,-4.63536 4.70503,-4.63536 m -2.90919,15.67917 10.80492,-12.62068 10.96845,12.49413 -5.25956,6.39284 -5.52261,-6.22932 5.09746,-5.85677 -10.41816,0 5.13442,5.85677 -5.32069,6.11692 -5.48423,-6.15389 z"
           style="fill:#000000;fill-opacity:1;fill-rule:evenodd;stroke:none"
           id="path3597" />
        <path
           inkscape:connector-curvature="0"
           d="m 320.96327,1017.2085 -1.96504,0 4.34102,-6.9943 c 0,0 1.06357,-1.8542 2.18829,0.064 l 4.41922,6.9303 -1.91812,0 -1.20292,-1.7119 -4.78465,0 -1.0778,1.7119 z m 1.85415,-3.0699 3.24759,0 -1.66219,-2.6532 -1.5854,2.6532 z"
           style="fill:#000000;fill-opacity:1;fill-rule:evenodd;stroke:none"
           id="path3599" />
        <path
           inkscape:connector-curvature="0"
           d="m 353.82452,1017.2085 -5.46573,0 c 0,0 -1.74324,-0.017 -1.74324,-1.7119 l 0,-4.2131 c 0,0 0.0626,-1.8129 1.74324,-1.8129 l 5.49702,0 c 0,0 1.64227,0.057 1.64227,1.8129 l 0,4.2131 c 0,0 0.0825,1.7119 -1.67356,1.7119 m -5.46573,-5.925 5.25956,0 0,4.2131 -5.25956,0 0,-4.2131 z"
           style="fill:#000000;fill-opacity:1;fill-rule:evenodd;stroke:none"
           id="path3601" />
        <path
           inkscape:connector-curvature="0"
           d="m 357.76031,1017.2085 -1.96505,0 4.34103,-6.9943 c 0,0 1.06356,-1.8542 2.18828,0.064 l 4.41923,6.9303 -1.91813,0 -1.20292,-1.7119 -4.78607,0 -1.07637,1.7119 z m 1.85414,-3.0699 3.24759,0 -1.66219,-2.6532 -1.5854,2.6532 z"
           style="fill:#000000;fill-opacity:1;fill-rule:evenodd;stroke:none"
           id="path3603" />
        <path
           inkscape:connector-curvature="0"
           d="m 330.04914,1009.4706 1.96505,0 0,6.026 5.28657,0 0,1.7119 -5.28657,0 c 0,0 -1.7347,-0.098 -1.96505,-2.1414 l 0,-5.5965 z"
           style="fill:#000000;fill-opacity:1;fill-rule:nonzero;stroke:none"
           id="path3605" />
        <path
           inkscape:connector-curvature="0"
           d="m 345.82641,1009.4706 0,1.8129 -6.05582,0 0,4.2131 6.14682,0 0,1.7119 -6.3203,0 c 0,0 -1.7802,-0.5404 -1.7802,-2.1727 l 0,-3.7523 c 0,0 0.43225,-1.8129 1.85983,-1.8129 l 6.14967,0 z"
           style="fill:#000000;fill-opacity:1;fill-rule:nonzero;stroke:none"
           id="path3607" />
      </g>
      <g
         style="fill:#000000"
         transform="matrix(1.0456063,0,0,1.0453115,-808.0669,917.3486)"
         id="g3609">
        <g
           style="fill:#000000"
           id="g3611"
           transform="matrix(0.94442071,0,0,0.94442071,23.019685,55.447816)">
          <path
             style="display:inline;fill:#000000"
             inkscape:connector-curvature="0"
             id="path3613"
             d="m 471.25685,961.93155 c -0.0176,-0.0428 -0.0276,-0.0887 -0.0297,-0.13897 0.002,0.0134 0.002,0.0174 0.002,0.0254 0.0453,0.47665 0.17102,1.37368 0.27314,2.04459 0.15896,-0.30083 0.31641,-0.6206 0.48341,-0.95929 0.12576,-0.25701 0.0628,-0.3367 -0.0473,-0.37754 -0.3159,-0.11256 -0.63835,-0.34915 -0.68161,-0.5942 z" />
          <path
             style="display:inline;fill:#000000"
             inkscape:connector-curvature="0"
             id="path3615"
             d="m 476.74292,954.70648 c 0.0453,0.51152 0.43713,0.57378 0.75757,0.12452 0.0845,-0.12452 0.18059,-0.27643 0.29477,-0.44827 -0.0906,-0.12054 -0.1826,-0.23758 -0.27918,-0.35712 -0.4472,-0.52447 -1.5101,-1.6566 -2.5388,-2.54466 1.02316,0.96576 1.64793,2.14471 1.76564,3.22553 z" />
          <path
             style="display:inline;fill:#000000"
             inkscape:connector-curvature="0"
             id="path3617"
             d="m 456.2227,919.48565 c 0.0473,0.0658 0.0885,0.13597 0.12979,0.21118 -0.0412,-0.0807 -0.0825,-0.1549 -0.12979,-0.21118 z" />
          <path
             style="display:inline;fill:#000000"
             inkscape:connector-curvature="0"
             id="path3619"
             d="m 414.18225,997.63451 c -75.5067,0 -136.71471,-21.09245 -136.71471,-47.11186 0,-26.02388 61.2085,-47.11334 136.71471,-47.11334 75.49917,0 136.70516,21.08946 136.70516,47.11334 0,26.01941 -61.20599,47.11186 -136.70516,47.11186 z m 0,-90.14498 c -72.85371,0 -131.90723,19.26252 -131.90723,43.03263 0,23.7701 59.05352,43.03561 131.90723,43.03561 72.85322,0 131.90272,-19.26551 131.90272,-43.03561 0,-23.77011 -59.0495,-43.03263 -131.90272,-43.03263 z" />
          <path
             style="display:inline;fill:#000000;fill-opacity:1"
             inkscape:connector-curvature="0"
             id="path3621"
             d="m 499.30493,935.10676 c 0.18864,-0.32774 -0.0101,-0.56831 -0.42857,-0.56831 -2.18316,0 -5.04693,0.005 -7.32164,0.005 -0.54227,0 -0.82246,0.0653 -1.078,0.56332 -0.83906,1.59334 -11.07175,16.77614 -12.97674,19.72474 -0.32042,0.44926 -0.71229,0.387 -0.75756,-0.12452 -0.19267,-1.75122 -1.72038,-3.76394 -4.12638,-4.72672 -1.83406,-0.73715 -3.62737,-0.87064 -5.49111,-0.62558 -3.36478,0.44726 -6.36336,2.20646 -8.99975,4.1878 -3.97296,2.99144 -7.40012,6.86695 -11.82529,9.73088 -2.41607,1.55847 -5.72301,2.91822 -7.93635,0.88906 -2.00307,-1.83839 -1.77721,-5.9236 1.28726,-9.08188 0.32345,-0.33073 0.71028,-0.0543 0.64941,0.24306 -0.28874,1.42898 0.0669,2.84948 1.16151,3.84563 1.33706,1.18591 3.25009,1.32089 4.88797,0.52945 1.93265,-0.94833 3.06849,-2.77925 3.39949,-4.85722 0.5131,-3.22403 -1.99352,-6.06754 -5.12942,-6.29516 -2.54736,-0.17682 -4.99009,0.70029 -7.37044,2.64627 -1.19269,0.97971 -1.87178,1.70441 -2.903,3.15779 -0.25152,0.35712 -0.63785,0.39397 -0.62577,-0.13448 0.11972,-4.12754 -1.60518,-6.44956 -5.05196,-6.52577 -2.67412,-0.0623 -5.53235,1.37369 -7.75978,3.13239 -2.44173,1.94149 -4.57659,4.51455 -6.86439,6.9322 -0.28471,0.29785 -0.53371,0.2839 -0.61319,-0.29386 -0.0689,-2.73443 -0.76361,-5.38369 -2.04181,-7.26392 -0.45223,-0.65447 -1.40346,-0.97872 -2.20329,-0.53593 -0.36922,0.20023 -1.65547,0.78497 -2.58961,1.53108 -0.4648,0.37854 -0.64438,0.92592 -0.44115,1.62871 1.23494,4.0847 0.96279,8.72974 -0.71029,12.65307 -1.53676,3.59262 -4.52428,6.83408 -8.03494,7.93034 -2.31294,0.7257 -4.71844,0.37057 -6.20591,-1.65958 -2.04382,-2.80266 -1.21835,-7.67532 1.82702,-11.72218 2.6892,-3.56223 6.57664,-5.82597 10.45552,-7.28334 0.45676,-0.17433 0.55033,-0.46421 0.42155,-0.84822 -0.21128,-0.63255 -0.5463,-1.49123 -0.68463,-1.88422 -0.35564,-0.93687 -1.35215,-1.08979 -2.56747,-0.95829 -2.818,0.32475 -5.36032,1.28105 -7.87146,2.6119 -6.57514,3.48652 -9.87202,10.23493 -11.31774,13.84497 -0.69519,1.7333 -1.29028,2.81611 -2.05941,3.77541 -1.03675,1.29001 -2.33709,2.46397 -4.71745,4.53347 -0.21478,0.18977 -0.37526,0.58574 -0.19466,0.95331 0.24296,0.49808 1.48042,2.22789 1.82953,2.38229 0.38783,0.18877 0.83755,-0.0747 1.01713,-0.20321 1.66554,-1.11768 3.65705,-2.88833 4.63243,-4.08969 0.34155,-0.41141 0.69267,-0.23857 0.87376,0.386 0.90999,3.21408 3.29285,5.83793 6.58671,6.9352 6.02935,2.01371 12.28406,-0.90102 17.00402,-5.97391 3.00059,-3.22403 4.08311,-5.29802 5.23204,-6.70756 1.94824,-2.39126 5.79292,-7.73959 10.37102,-11.1738 1.67912,-1.26561 3.66661,-2.23138 4.66563,-1.59036 0.80184,0.51352 1.0609,1.71039 -0.22586,4.02743 -4.66764,8.43987 -11.53655,18.35653 -12.79615,20.76173 -0.22988,0.41739 -0.0297,0.74512 0.41149,0.74512 2.44222,-0.0115 4.86432,-0.006 7.08168,-0.006 0.36923,-0.0174 0.53473,-0.1838 0.71935,-0.4418 3.58209,-5.55253 6.95392,-10.83809 10.5677,-16.30147 0.20222,-0.32176 0.38884,-0.0727 0.39689,0.0682 0.0745,1.2676 0.38886,3.0019 1.14843,4.14049 1.36574,2.10536 3.30191,3.00987 5.44885,3.02332 1.7083,0.0194 2.572,-0.23758 4.41411,-0.91846 1.49904,-0.55037 2.70279,-1.27357 3.62637,-1.92705 0.53925,-0.37056 0.63381,0.25004 0.61973,0.34517 -0.828,4.40796 0.19467,9.63076 4.61986,11.79639 5.29441,2.58452 11.11198,-1.04794 14.45916,-4.32776 0.32697,-0.31628 0.6791,-0.28291 0.7123,0.39796 0.0709,1.25216 0.64237,2.73841 1.68868,3.77839 2.8049,2.78722 8.46503,1.68299 14.14478,-2.67018 3.64698,-2.78722 7.46298,-6.72499 10.91026,-10.89537 0.12778,-0.16038 0.22285,-0.42138 -0.0236,-0.68286 -0.52466,-0.5439 -1.28524,-1.16649 -1.80488,-1.64614 -0.23793,-0.19923 -0.58553,-0.14195 -0.78624,0.008 -3.5328,3.32714 -6.71347,7.12097 -11.31019,10.25933 -1.55034,1.07086 -4.02023,1.93502 -5.13043,0.44827 -0.4321,-0.57677 -0.38331,-1.37668 0.0432,-2.42413 1.3416,-3.31069 22.56001,-35.29703 23.66166,-37.18423 z m -28.04808,26.82479 c 0.0432,0.24505 0.3657,0.48163 0.6816,0.5942 0.11017,0.0409 0.17305,0.12053 0.0473,0.37754 -0.90294,1.91459 -1.73194,3.01882 -2.86276,4.6819 -1.03927,1.53705 -2.21132,2.73642 -3.63038,3.88945 -2.1399,1.75373 -5.11182,3.66285 -7.56914,2.37931 -1.09158,-0.56133 -1.56292,-2.07299 -1.54129,-3.29775 0.0568,-3.44269 1.59864,-6.97703 4.45435,-10.4506 3.482,-4.24409 7.3312,-6.44558 9.85744,-5.24223 2.61325,1.23473 1.77921,4.23065 0.61017,6.58305 -0.0876,0.1818 -0.0936,0.3362 -0.0473,0.48513 z" />
          <path
             style="display:inline;fill:#000000;fill-opacity:1"
             inkscape:connector-curvature="0"
             id="path3623"
             d="m 345.39154,980.14065 c -7.91221,0.0562 -14.88223,-4.786 -15.68155,-13.1671 -0.44468,-4.64405 0.88131,-8.78354 3.53481,-12.19286 2.35521,-3.03825 6.34023,-5.56249 9.71356,-6.17911 1.09813,-0.19923 2.57301,-0.0722 3.18219,0.647 0.95677,1.10224 0.68111,2.31256 -0.27415,2.79569 -2.57352,1.30147 -5.67069,3.52836 -7.20243,6.5691 -1.24399,2.48241 -1.49451,5.47484 0.40394,8.32432 3.17765,4.75013 12.03405,4.88063 20.26869,-2.69459 2.0388,-1.85332 3.8643,-3.63444 5.71899,-5.74429 3.62686,-4.10612 4.83313,-5.60233 9.6542,-12.22423 0.0579,-0.0757 0.0734,-0.17682 0.0483,-0.22563 -0.0398,-0.0847 -0.10715,-0.10808 -0.2475,-0.11655 -3.2179,0.0877 -6.02431,1.03799 -8.75075,3.05668 -0.78574,0.56632 -1.91555,0.48662 -2.41053,-0.25949 -0.55032,-0.84324 -0.15644,-1.94349 0.75052,-2.5631 4.38695,-3.02131 9.17985,-3.5692 14.07435,-4.38753 -0.004,0 0.34056,0.0164 0.62024,-0.35214 2.00861,-2.55263 3.52676,-4.85622 5.66767,-7.43825 2.15751,-2.61987 4.94682,-5.02506 7.07666,-6.83208 2.97293,-2.53171 4.87891,-3.38291 6.8166,-4.42788 0.51008,-0.26298 -0.0659,-0.57976 -0.22033,-0.57976 -10.81872,-2.01271 -22.06301,-4.61765 -32.80829,-0.67887 -7.43985,2.74987 -10.70001,8.59228 -9.13155,12.49619 1.11472,2.76879 4.7939,3.21905 8.23716,1.5505 2.86074,-1.38813 5.50619,-3.62349 7.383,-6.50335 1.05084,-1.59833 3.26217,-0.44528 2.06797,2.33098 -3.14395,7.31721 -9.15066,13.12127 -16.46728,13.36533 -6.22603,0.20023 -10.24375,-4.33474 -10.23067,-9.93061 0.0232,-11.03633 12.43447,-18.30622 25.47458,-19.39302 15.70518,-1.28503 30.57935,2.85645 46.17286,4.72972 11.94703,1.43196 23.40108,1.46283 35.40898,-1.2696 1.41956,-0.30482 2.41606,0.59171 2.32351,2.01122 -0.11771,2.05257 -1.72239,4.02843 -5.67774,6.16467 -4.49761,2.44256 -9.20298,3.18319 -14.1171,3.22304 -11.88415,0.0976 -22.95389,-4.48864 -34.40895,-6.95312 0.0166,0.49609 0.14537,1.08929 -0.27516,1.40159 -6.34475,4.63458 -12.08032,9.33989 -15.92198,15.94883 -0.12979,0.15291 -0.0593,0.29884 0.16448,0.28291 3.33511,-0.17532 6.33519,-0.2605 9.44897,-0.50704 0.54328,-0.0448 0.5639,-0.17881 0.51561,-0.57278 -0.27415,-2.2782 0.39689,-4.87566 2.4211,-6.66275 2.07098,-1.83939 4.66563,-2.04858 6.38398,-0.7237 1.9563,1.50867 1.78325,4.22118 0.71331,6.25532 -1.08857,2.06451 -2.8854,3.16725 -4.61181,3.70368 0,0 -0.36067,0.0787 -0.30836,0.40394 0.0689,0.52148 2.41908,1.81149 2.6203,2.15466 0.19367,0.32674 0.0945,0.83378 -0.26309,1.22178 -0.25051,0.28191 -0.63885,0.54788 -1.13786,0.53792 -0.40393,-0.008 -0.64942,-0.14593 -1.16351,-0.42236 -1.05638,-0.56632 -2.37382,-1.49622 -3.25211,-2.59248 -0.30081,-0.37057 -0.45172,-0.37854 -1.20074,-0.33869 -3.36931,0.19275 -8.62399,0.69531 -12.18395,1.1361 -0.8617,0.10609 -0.98896,0.26548 -1.16654,0.56133 -5.67471,9.26668 -11.73474,19.25954 -18.38735,25.94968 -7.13652,7.17376 -13.06879,9.06196 -19.36524,9.11078 z m 54.08154,-41.17481 c 0.0896,0.47565 0.27717,0.5673 0.49397,0.52745 1.08052,-0.21417 2.26466,-1.09526 2.96337,-2.11482 0.63935,-0.92492 0.93816,-2.26076 0.30534,-2.79569 -0.56691,-0.48064 -1.48646,-0.34417 -2.16757,0.25202 -1.35718,1.18692 -1.77118,2.8729 -1.59511,4.13104 l 0,0" />
        </g>
        <g
           id="g3625"
           style="font-style:normal;font-variant:normal;font-weight:normal;font-stretch:normal;font-size:54.08856583px;line-height:125%;font-family:ChunkFive;-inkscape-font-specification:ChunkFive;letter-spacing:0px;word-spacing:0px;display:inline;fill:#000000;fill-opacity:1;stroke:none">
          <path
             inkscape:connector-curvature="0"
             id="path3627"
             style="text-align:center;text-anchor:middle;fill:#000000"
             d="m 329.057,899.53888 10.81771,0 0,-13.52214 2.16354,0 0,-5.78748 -17.9574,0 0,5.78748 3.2994,0 0,2.27172 c -0.81133,1.4063 -2.10946,2.65034 -5.1925,2.65034 -4.7057,0 -7.41014,-4.43527 -7.41014,-9.9523 0,-5.40885 3.02897,-10.16865 7.41014,-10.16865 3.19122,0 6.00383,2.48808 6.16609,6.86925 l 9.68186,0 0,-15.95613 -8.0592,0 -1.13586,3.89438 c -0.86541,-0.86542 -2.70443,-4.54344 -10.54727,-4.54344 -8.43781,0 -16.60519,8.1133 -16.60519,19.90459 0,11.68312 7.51832,19.03918 16.98381,19.03918 4.16482,0 7.51831,-1.89311 8.70826,-3.89438 l 1.67675,3.40758" />
          <path
             inkscape:connector-curvature="0"
             id="path3629"
             style="text-align:center;text-anchor:middle;fill:#000000"
             d="m 386.52018,892.45328 -3.7862,0 -9.57368,-30.72231 -20.77,0 0,6.97743 2.21763,0 -7.30196,23.74488 -3.67802,0 0,7.0856 17.20016,0 0,-7.0856 -4.21891,0 1.13586,-3.67803 11.08816,0 1.13586,3.67803 -5.13841,0 0,7.0856 21.68951,0 0,-7.0856 m -23.25808,-21.85178 3.56984,11.68313 -7.0856,0 3.51576,-11.68313" />
          <path
             inkscape:connector-curvature="0"
             id="path3631"
             style="text-align:center;text-anchor:middle;fill:#000000"
             d="m 388.644,868.87066 2.97487,0 0,23.47444 -2.97487,0 0,7.19378 30.2896,0 0,-14.06303 -9.08688,0 0,6.86925 -6.97743,0 0,-23.47444 2.8667,0 0,-7.13969 -17.09199,0 0,7.13969" />
          <path
             inkscape:connector-curvature="0"
             id="path3633"
             style="text-align:center;text-anchor:middle;fill:#000000"
             d="m 421.60422,868.81657 3.02896,0 0,23.58262 -3.02896,0 0,7.13969 17.41652,0 0,-7.13969 -3.2994,0 0,-8.38373 4.11073,0 c 7.73465,0 14.22529,-3.56985 14.22529,-10.70954 0,-6.16609 -2.37991,-11.57495 -14.92844,-11.57495 l -17.5247,0 0,7.0856 m 16.82154,-0.0541 c 3.13714,0 5.03024,1.73083 5.03024,4.92205 0,2.8667 -2.16355,4.48936 -5.30068,4.48936 l -2.43398,0 0,-9.41141 2.70442,0" />
          <path
             inkscape:connector-curvature="0"
             id="path3635"
             style="text-align:center;text-anchor:middle;fill:#000000"
             d="m 456.2547,868.87066 3.40758,0 0,23.47444 -3.40758,0 0,7.19378 17.95741,0 0,-7.19378 -3.35349,0 0,-23.47444 3.35349,0 0,-7.13969 -17.95741,0 0,7.13969" />
          <path
             inkscape:connector-curvature="0"
             id="path3637"
             style="text-align:center;text-anchor:middle;fill:#000000"
             d="m 518.39232,861.73097 -16.28065,0 0,6.97743 3.67802,0 0.0541,12.87308 -13.30579,-19.85051 -15.52342,0 0,6.97743 3.13714,0 0,23.85305 -3.19123,0 0,6.97743 16.60519,0 0,-6.97743 -4.16482,0 0,-13.63031 13.79259,20.60774 11.62904,0 0,-30.83048 3.56984,0 0,-6.97743" />
        </g>
      </g>
      <path
         inkscape:connector-curvature="0"
         id="path3639"
         d="m -427.40842,2443.1955 c -1.12938,-0.3279 -1.68776,-1.0468 -1.59044,-2.0477 0.12087,-1.2434 1.11774,-1.7099 4.30237,-2.0133 3.06759,-0.2922 3.55431,-0.4154 3.55431,-0.899 0,-0.5881 -0.8903,-0.884 -2.65989,-0.884 -1.33384,0 -1.77727,0.1035 -2.18357,0.5098 -0.60053,0.6005 -2.54919,0.732 -2.54919,0.1719 0,-0.5971 1.11233,-1.4014 2.37605,-1.7181 1.56187,-0.3913 5.1648,-0.1835 6.21267,0.3585 1.00043,0.5173 1.0982,0.8064 1.0982,3.2479 0,1.9831 0.0111,2.0185 0.6373,2.0185 0.50152,0 0.63729,0.1295 0.63729,0.6076 0,0.9402 -1.56833,1.2309 -2.89847,0.5372 -0.64993,-0.3389 -0.87581,-0.3388 -2.02189,0 -1.40834,0.4182 -3.67668,0.4685 -4.91474,0.109 z m 5.3066,-1.4207 c 0.63791,-0.3238 1.20554,-1.4583 0.88832,-1.7755 -0.26586,-0.2659 -4.87058,0.4004 -5.22639,0.7562 -0.47602,0.476 -0.0262,1.3596 0.77234,1.517 0.86193,0.1699 2.77696,-0.097 3.56573,-0.4977 z m 6.83138,1.3784 c -1.73169,-0.6291 -2.02669,-2.6 -0.50678,-3.386 0.43147,-0.2231 2.00978,-0.5066 3.59566,-0.6458 3.03023,-0.2659 3.27548,-0.3321 3.27548,-0.8838 0,-0.5904 -0.88845,-0.8861 -2.66238,-0.8861 -1.36077,0 -1.75838,0.096 -2.11277,0.5098 -0.31025,0.3623 -0.75198,0.5098 -1.52701,0.5098 -0.59977,0 -1.09049,-0.1199 -1.09049,-0.2665 0,-0.5096 1.21555,-1.4776 2.19799,-1.7504 1.28174,-0.356 4.15501,-0.3539 5.57592,0 1.64914,0.4151 1.87883,0.799 1.96553,3.2844 0.0717,2.0554 0.10252,2.1548 0.71224,2.297 0.86487,0.2018 1.00701,1.1508 0.20457,1.3657 -0.96191,0.2577 -1.73468,0.1878 -2.63162,-0.2378 -0.6827,-0.3239 -0.95785,-0.3427 -1.41755,-0.097 -0.83474,0.4467 -4.5194,0.5672 -5.57879,0.1824 z m 5.37417,-1.3559 c 0.67416,-0.3486 0.99019,-0.8435 0.99019,-1.5506 0,-0.3131 -0.31314,-0.3491 -1.84816,-0.2129 -2.67142,0.2371 -3.50513,0.5386 -3.50513,1.2674 0,1.1122 2.60005,1.4078 4.3631,0.4961 z m 7.50121,1.2986 c -1.14549,-0.3075 -2.17739,-1.1102 -2.17739,-1.694 0,-0.4604 2.32399,-0.2403 2.98946,0.2831 1.14491,0.9007 4.6581,0.6129 4.6581,-0.3814 0,-0.4284 -1.24194,-0.7789 -3.56887,-1.0074 -2.89692,-0.2844 -3.82377,-0.798 -3.82377,-2.1188 0,-1.726 4.28752,-2.6924 7.59177,-1.7111 1.15675,0.3436 2.09515,1.1079 2.09515,1.7066 0,0.4387 -2.34662,0.1941 -2.98948,-0.3116 -0.46239,-0.3638 -1.03415,-0.5098 -1.99498,-0.5098 -1.66399,0 -2.15327,0.176 -2.15327,0.7749 0,0.5372 0.32296,0.6535 2.42173,0.8721 3.9539,0.4118 5.08924,0.9464 4.92629,2.3202 -0.10002,0.8432 -1.04198,1.5926 -2.39684,1.9067 -1.42214,0.3299 -4.09778,0.2677 -5.5779,-0.1295 z m 31.31341,0.01 c -1.38102,-0.6011 -1.62594,-1.2265 -1.62594,-4.1516 l 0,-2.6198 1.14713,0 1.14714,0 0,2.2375 c 0,2.5955 0.29867,3.2264 1.64695,3.4794 1.18565,0.2224 2.82741,-0.2419 3.31463,-0.9376 0.27575,-0.3936 0.39171,-1.1838 0.39171,-2.6693 l 0,-2.11 1.14713,0 1.14715,0 0,3.4413 0,3.4414 -1.14715,0 c -0.88366,0 -1.14713,-0.094 -1.14713,-0.4097 0,-0.2922 -0.12783,-0.3553 -0.44611,-0.2204 -2.268,0.9617 -4.15449,1.1372 -5.57551,0.5188 z m 12.85406,0.1243 c -1.6031,-0.3117 -1.73406,-0.5558 -1.73406,-3.2306 l 0,-2.3906 -1.01968,0 c -0.9177,0 -1.01967,-0.064 -1.01967,-0.6373 0,-0.5735 0.10197,-0.6372 1.01967,-0.6372 1.01968,0 1.01968,0 1.01968,-1.0198 l 0,-1.0196 1.14714,0 1.14713,0 0,1.0196 0,1.0198 1.2746,0 c 1.18962,0 1.27459,0.043 1.27459,0.6372 0,0.5949 -0.085,0.6373 -1.27459,0.6373 l -1.2746,0 0,1.7636 c 0,2.4141 0.0867,2.5701 1.42932,2.5701 1.00887,0 1.11987,0.06 1.11987,0.6054 0,0.848 -1.06047,1.0805 -3.1094,0.6821 z m 6.93597,-0.2576 c -2.3813,-0.822 -3.32336,-2.6073 -2.38708,-4.524 0.68233,-1.3968 2.16036,-2.1296 4.63788,-2.2994 2.67396,-0.1832 4.52951,0.3513 5.6503,1.6278 0.74548,0.849 0.80906,1.0512 0.69717,2.2155 -0.10157,1.0572 -0.27878,1.4239 -1.01316,2.0969 -1.52025,1.3932 -4.95032,1.7926 -7.58511,0.8832 z m 4.38705,-1.0413 c 1.13776,-0.3159 1.72822,-1.0757 1.72822,-2.2238 0,-2.3652 -4.24814,-3.2015 -5.85915,-1.1535 -0.65567,0.8336 -0.65183,1.6149 0.0121,2.4589 0.81367,1.0345 2.41526,1.3915 4.11888,0.9184 z m 26.05224,1.2668 c -2.06599,-0.5998 -2.313,-2.8563 -0.3926,-3.5865 0.34502,-0.1311 1.77759,-0.348 3.1835,-0.482 2.9868,-0.2845 3.47534,-0.4099 3.47534,-0.8915 0,-0.5881 -0.8903,-0.884 -2.65989,-0.884 -1.34814,0 -1.77552,0.1018 -2.19698,0.5233 -0.40644,0.4064 -0.78513,0.506 -1.69618,0.4461 l -1.17292,-0.077 0.67808,-0.8034 c 0.89297,-1.0581 2.61061,-1.4735 5.37804,-1.3009 2.14485,0.1338 3.52698,0.6245 3.80577,1.351 0.0871,0.227 0.15835,1.321 0.15835,2.4312 0,1.9831 0.0111,2.0185 0.6373,2.0185 0.50152,0 0.63729,0.1294 0.63729,0.6075 0,0.9403 -1.56833,1.231 -2.89847,0.5372 -0.64993,-0.3389 -0.87581,-0.3387 -2.02189,0 -1.40835,0.4182 -3.67668,0.4685 -4.91474,0.109 z m 5.19445,-1.424 c 0.61078,-0.3844 1.2591,-1.5135 1.01126,-1.7614 -0.29409,-0.2941 -4.87548,0.3837 -5.27171,0.7799 -0.49543,0.4955 -0.12746,1.1856 0.76782,1.4403 0.8461,0.2406 2.78616,-0.015 3.49263,-0.4588 z m 8.13282,1.4518 c -0.53289,-0.1031 -1.10646,-0.3249 -1.27459,-0.4928 -0.17998,-0.1797 -0.34201,-1.2961 -0.39402,-2.7147 l -0.0883,-2.4094 -0.8676,0 c -0.75551,0 -0.86762,-0.082 -0.86762,-0.6373 0,-0.5584 0.11046,-0.6372 0.89222,-0.6372 0.87097,0 0.89222,-0.024 0.89222,-1.0198 l 0,-1.0196 1.27459,0 1.2746,0 0,1.0196 0,1.0198 1.30187,0 c 1.08239,0 1.27577,0.068 1.14713,0.4032 -0.0851,0.2217 -0.15473,0.5085 -0.15473,0.6373 0,0.1287 -0.52085,0.234 -1.15745,0.234 l -1.15744,0 0.074,2.1031 0.074,2.1031 1.21087,0.077 c 1.07429,0.069 1.21086,0.1444 1.21086,0.6691 0,0.8463 -1.21741,1.0847 -3.39064,0.6639 z m 11.75603,-0.1567 c -2.03951,-0.6276 -3.24596,-2.315 -2.82877,-3.9564 0.46425,-1.8268 2.02159,-2.768 4.90686,-2.9658 3.87848,-0.2658 6.38117,1.1727 6.38117,3.6676 0,2.2702 -2.31431,3.6884 -5.93941,3.6398 -0.72917,-0.01 -1.86311,-0.183 -2.51985,-0.3852 z m 5.03536,-1.497 c 0.82999,-0.5438 1.14405,-1.6588 0.73876,-2.6226 -0.38548,-0.9168 -0.92892,-1.2603 -2.35516,-1.4883 -1.90791,-0.3051 -3.88186,0.8718 -3.88186,2.3145 0,0.809 0.9124,1.8631 1.8642,2.1537 1.01839,0.311 2.89584,0.1265 3.63406,-0.3573 z m 42.88938,1.5121 c -2.8506,-0.9132 -3.81085,-3.6177 -1.94646,-5.482 2.03729,-2.0373 7.53369,-1.993 9.27867,0.074 l 0.69563,0.8242 -1.17822,0.077 c -0.91114,0.06 -1.35825,-0.056 -1.97245,-0.5098 -1.66703,-1.2325 -4.58097,-0.5736 -5.20419,1.1769 -0.81223,2.2813 3.29595,3.9006 5.2198,2.0574 0.51508,-0.4935 0.93107,-0.6351 1.86628,-0.6351 l 1.20346,0 -0.39417,0.7623 c -0.87264,1.6876 -4.79073,2.5437 -7.56835,1.654 z m -196.24059,-4.4556 0,-4.5885 1.40205,0 c 0.77113,0 1.38847,0.086 1.37187,0.1912 -0.0166,0.1051 -0.0166,0.9081 0,1.7843 l 0.0302,1.5933 3.82379,0 3.82379,0 0,-1.7844 0,-1.7844 1.27459,0 1.27459,0 0,4.5885 0,4.5885 -1.27459,0 -1.27459,0 0,-2.1668 0,-2.1667 -3.82379,0 -3.82379,0 0,2.1667 0,2.1668 -1.40205,0 -1.40205,0 0,-4.5885 z m 56.89619,3.6128 c 0.32341,-0.5367 1.56308,-2.606 2.75482,-4.5985 l 2.16682,-3.6226 1.64495,0.073 1.64496,0.073 2.61134,4.3336 c 1.43624,2.3836 2.61746,4.4197 2.62494,4.5248 0.008,0.1052 -0.60874,0.1912 -1.36936,0.1912 -1.3634,0 -1.3914,-0.015 -1.98008,-1.0833 l -0.59712,-1.0835 -2.97543,-0.072 -2.97544,-0.072 -0.67693,1.155 c -0.67193,1.1466 -0.68722,1.1551 -2.06921,1.1551 l -1.39228,0 0.58802,-0.9757 z m 7.68051,-4.5688 c -0.51029,-0.9464 -0.99761,-1.8029 -1.08293,-1.9035 -0.0854,-0.1005 -0.63231,0.6738 -1.21555,1.7208 l -1.06044,1.9035 2.14336,0 2.14337,0 -0.92781,-1.7208 z m 38.41053,2.1031 0,-3.4413 1.27459,0 c 1.09736,0 1.2746,0.07 1.2746,0.5012 0,0.4893 0.0222,0.488 0.93414,-0.05 1.30037,-0.7672 3.92964,-0.7929 5.18568,-0.05 0.8617,0.5094 0.9206,0.5123 1.63134,0.082 1.62941,-0.9856 4.70694,-0.8272 5.91126,0.3042 0.57422,0.5394 0.61303,0.7506 0.61303,3.3356 l 0,2.7596 -1.14713,0 -1.14714,0 0,-2.3821 c 0,-1.9842 -0.0779,-2.4527 -0.46617,-2.8041 -0.69396,-0.6281 -2.85064,-0.5661 -3.70561,0.1064 -0.63601,0.5003 -0.67167,0.6491 -0.67167,2.8041 l 0,2.2757 -1.14714,0 -1.14714,0 0,-2.2375 c 0,-2.9325 -0.27907,-3.3707 -2.14689,-3.3707 -0.98301,0 -1.53696,0.1445 -2.02488,0.5284 -0.63602,0.5003 -0.67168,0.6491 -0.67168,2.8041 l 0,2.2757 -1.2746,0 -1.27459,0 0,-3.4414 z m 38.49275,0 0,-3.4413 1.14714,0 1.14713,0 0,3.4413 0,3.4414 -1.14713,0 -1.14714,0 0,-3.4414 z m 16.99459,3.2715 c -0.0935,-0.094 -0.16995,-1.6421 -0.16995,-3.4415 l 0,-3.2713 1.2746,0 c 1.09736,0 1.27459,0.07 1.27459,0.5012 0,0.4881 0.0245,0.4867 0.94555,-0.057 1.21936,-0.7195 4.10045,-0.7725 5.37465,-0.099 1.11038,0.5868 1.32737,1.2623 1.32737,4.1322 l 0,2.405 -1.2746,0 -1.27459,0 0,-2.4035 c 0,-2.9586 -0.17495,-3.2047 -2.2781,-3.2047 -1.10817,0 -1.64463,0.132 -2.1486,0.5284 -0.63601,0.5002 -0.67168,0.6491 -0.67168,2.8041 l 0,2.2757 -1.10465,0 c -0.60755,0 -1.18112,-0.076 -1.27459,-0.1699 z m 18.43913,-4.4186 0,-4.5885 1.2746,0 1.27459,0 0,4.5885 0,4.5885 -1.27459,0 -1.2746,0 0,-4.5885 z m 4.84346,1.1471 0,-3.4413 1.14714,0 c 0.99797,0 1.14713,0.07 1.14713,0.5391 0,0.5067 0.0359,0.5156 0.59661,0.1483 1.75551,-1.1503 4.92699,-1.1547 6.28883,-0.01 0.76048,0.6399 0.76213,0.6473 0.76213,3.4228 l 0,2.7813 -1.14714,0 -1.14714,0 0,-2.2942 c 0,-2.8975 -0.30673,-3.314 -2.44133,-3.314 -1.23142,0 -1.52138,0.1 -2.16681,0.7452 -0.70058,0.7006 -0.74515,0.8683 -0.74515,2.8041 l 0,2.0589 -1.14713,0 -1.14714,0 0,-3.4413 z m 24.21729,2.5492 0,-0.8922 1.2746,0 1.27459,0 0,0.8922 0,0.8922 -1.27459,0 -1.2746,0 0,-0.8922 z m -64.49447,-7.775 c 0,-0.7364 0.0424,-0.7647 1.14714,-0.7647 1.10465,0 1.14713,0.028 1.14713,0.7647 0,0.7364 -0.0424,0.7647 -1.14713,0.7647 -1.10465,0 -1.14714,-0.028 -1.14714,-0.7647 z m -137.61878,-8.9404 c -1.55795,-0.3075 -3.24058,-1.3627 -4.12938,-2.5897 -1.39224,-1.9219 -1.51625,-2.8383 -1.51625,-11.204 l 0,-7.6013 16.84543,0 16.84544,0 -0.50946,0.8286 c -0.96858,1.5751 -5.94363,10.2611 -5.98801,10.4546 -0.0245,0.1067 2.7639,0.1971 6.19644,0.2007 l 6.241,0.01 2.44525,-4.2795 c 1.34488,-2.3538 7.47737,-13.1125 13.62773,-23.9083 6.15036,-10.7958 11.40129,-20.0016 11.66872,-20.4573 l 0.48624,-0.8284 -6.12166,0 -6.12165,0 -1.24801,2.2305 c -1.20852,2.16 -13.63466,23.6991 -14.19186,24.5997 -0.25903,0.4188 -1.50105,0.4461 -20.2258,0.4461 l -19.9498,0 0,-37.6005 0,-37.6005 -14.75409,0 c -12.7005,0 -14.79756,-0.052 -15.0665,-0.3765 -0.38752,-0.4669 -0.75223,0.2128 10.32875,-19.2523 1.71603,-3.0144 3.42983,-6.0543 3.80846,-6.7553 1.36693,-2.531 0.96985,-2.4218 8.80915,-2.4218 l 6.86296,0 0.0694,-26.9758 0.0693,-26.9759 0.76741,-1.5004 c 0.476,-0.9306 1.18207,-1.8166 1.85941,-2.3332 2.27201,-1.733 -2.57802,-1.6108 63.93333,-1.6108 l 60.22208,0 1.7235,-2.9953 c 0.94792,-1.6474 2.82226,-4.888 4.16519,-7.2015 l 2.4417,-4.2061 16.22027,-0.066 c 14.95489,-0.06 16.23304,-0.033 16.3837,0.3603 0.15962,0.416 -0.6667,1.9815 -5.5474,10.5102 -1.07397,1.8766 -1.95267,3.4539 -1.95267,3.5051 0,0.051 6.73942,0.091 14.97649,0.088 l 14.97648,-0.01 3.28015,-5.5997 c 1.89064,-3.2276 3.39215,-5.5306 3.54453,-5.4363 0.14948,0.093 0.18825,0.041 0.0892,-0.1201 -0.16127,-0.2609 1.18304,-2.963 1.60336,-3.2227 0.10105,-0.063 7.1163,-0.1914 15.58945,-0.2863 15.06379,-0.1689 15.41937,-0.1615 16.02052,0.3277 l 0.61479,0.5004 -0.76797,1.379 c -2.19987,3.9505 -2.73319,4.7859 -2.96424,4.643 -0.13904,-0.086 -0.17409,-0.029 -0.0779,0.1268 0.0962,0.1557 -2.54497,5.02 -5.86925,10.8097 -3.32429,5.7897 -7.22727,12.5916 -8.67331,15.1153 l -2.62917,4.5885 -0.002,56.5195 -0.002,56.5195 -20.20232,0.075 c -21.55237,0.079 -20.79586,0.035 -22.81638,1.3255 -0.45628,0.2913 -1.27114,1.1607 -1.8108,1.9318 -1.28176,1.8315 -10.74482,18.4713 -11.16291,19.6287 -0.68644,1.9004 -0.35105,3.8743 0.88242,5.1935 1.29173,1.3816 1.65949,1.4345 9.98117,1.4345 4.21066,0 7.65574,0.043 7.65574,0.095 0,0.1602 -4.30955,7.6552 -4.65022,8.0875 -0.17638,0.2238 -0.72219,0.6252 -1.21291,0.8921 -0.81552,0.4436 -1.67014,0.4963 -9.94184,0.6128 l -9.04961,0.1275 0,5.1725 0,5.1724 11.25617,-0.015 c 12.10407,-0.016 12.45048,-0.049 14.7216,-1.3799 1.40643,-0.8242 2.64972,-2.2596 3.73246,-4.309 0.45955,-0.8699 2.7489,-5.023 5.08744,-9.2292 4.3311,-7.79 5.18,-9.593 5.46606,-11.6088 0.20477,-1.443 -0.39844,-2.6992 -1.64352,-3.4227 -0.83942,-0.4879 -1.38497,-0.5231 -9.21862,-0.5951 l -8.3264,-0.076 2.02506,-3.6197 c 1.11379,-1.9909 2.31469,-3.8779 2.66867,-4.1933 l 0.64361,-0.5737 17.95756,0 17.95757,0 -0.003,21.8594 -0.003,21.8593 -0.59806,1.2843 c -0.68338,1.4675 -2.47111,3.1629 -3.90227,3.7007 -0.84154,0.3162 -14.55336,0.3717 -99.88397,0.404 -54.39969,0.02 -99.4079,-0.061 -100.01825,-0.1816 z m 60.23258,-14.8491 c 2.98257,-5.2342 9.82306,-17.1586 16.25813,-28.3414 7.28767,-12.6644 9.12462,-15.8937 9.12462,-16.0411 0,-0.08 -2.66709,-0.1417 -5.92687,-0.1362 l -5.92686,0.011 -5.73567,9.8373 c -6.59052,11.3034 -10.97972,18.7824 -11.09593,18.9069 -0.0443,0.047 -0.40965,-0.1572 -0.81202,-0.4547 -0.85948,-0.6354 -3.44358,-1.0948 -5.53325,-0.9837 l -1.4591,0.077 -2.78596,5.0827 c -1.53227,2.7955 -2.78596,5.1757 -2.78596,5.2896 0,0.1137 1.48864,0.2069 3.30807,0.2069 3.23388,0 3.3173,0.014 3.71938,0.6278 0.38678,0.5902 0.37404,0.7081 -0.21367,1.9756 -0.34375,0.7413 -1.60241,3.0343 -2.79706,5.0955 -1.19463,2.0613 -2.138,3.7819 -2.09638,3.8238 0.0417,0.042 2.75253,0.039 6.02422,-0.01 l 5.94852,-0.082 2.78579,-4.8889 z m 53.50706,-3.8692 c 10.39805,-18.2237 22.53462,-39.5362 22.82713,-40.086 l 0.30519,-0.5736 -6.19075,0 -6.19076,0 -5.01732,8.473 c -2.75955,4.6602 -7.3194,12.3654 -10.13303,17.1228 l -5.1157,8.6497 0,-15.7746 c 0,-9.5494 -0.092,-15.6792 -0.23331,-15.5326 -0.12834,0.1332 -2.4226,4.0094 -5.09838,8.6138 l -4.86506,8.3718 0,4.0257 0,4.0258 -1.05918,-0.3649 c -0.58254,-0.2007 -1.57635,-0.3306 -2.20846,-0.2888 l -1.14929,0.076 -2.88766,5.0984 c -1.58821,2.8041 -2.88867,5.1845 -2.88991,5.2896 -9.7e-4,0.1052 1.77949,0.1912 3.95718,0.1912 6.48053,0 6.49224,0.012 6.49224,6.6421 0,2.6094 0.0476,4.7921 0.10579,4.8505 0.0582,0.058 3.32331,0.049 7.25585,-0.021 l 7.15007,-0.1275 4.94536,-8.6673 z m -34.42737,0.3076 c 2.63226,-4.6557 7.20374,-12.7094 10.15884,-17.897 10.85961,-19.0638 12.96887,-22.7931 12.96887,-22.9301 0,-0.077 -2.60974,-0.1371 -5.79941,-0.1334 l -5.7994,0.01 -14.27547,24.4832 c -7.8515,13.4656 -14.31369,24.59 -14.36042,24.7205 -0.051,0.1426 2.39152,0.233 6.11805,0.2264 l 6.20303,-0.011 4.78591,-8.4651 z m 59.32618,-14.838 c 0,-12.8287 -0.086,-23.3216 -0.19119,-23.3175 -0.10515,0 -1.28096,1.9648 -2.61291,4.3569 -3.25202,5.8404 -3.1726,5.6984 -5.55534,9.9327 l -2.09224,3.7181 -0.004,3.802 c -0.002,2.0912 -0.0905,3.6659 -0.19638,3.4994 -0.30737,-0.4834 -1.52004,-0.845 -2.81161,-0.8383 l -1.19427,0.01 -1.25544,2.2243 c -2.83607,5.0248 -4.48023,8.0547 -4.48023,8.2562 0,0.1175 1.78939,0.2136 3.97644,0.2136 4.5335,0 5.48232,0.2534 5.94765,1.5883 0.15421,0.4423 0.27265,2.7589 0.27265,5.3326 l 0,4.5506 5.09839,0 5.09837,0 0,-23.3251 z m -52.32282,-44.0613 c 0.14975,-0.3286 3.56791,-6.3798 7.59587,-13.447 7.73693,-13.5745 18.60629,-32.6577 21.58453,-37.8957 1.04777,-1.8428 1.88701,-3.0547 2.04688,-2.9559 0.16334,0.1009 0.19578,0.045 0.0817,-0.1388 -0.16392,-0.2653 3.36408,-6.8138 5.43955,-10.0967 0.35455,-0.5608 0.64965,-1.077 0.65576,-1.1472 0.0242,-0.2774 7.87937,-13.9032 8.09919,-14.049 0.12926,-0.086 0.19671,-0.2005 0.14988,-0.2549 -0.0896,-0.1042 0.79659,-1.6938 6.37856,-11.4429 1.88652,-3.2947 3.77545,-6.6214 4.19762,-7.3926 0.42217,-0.7712 1.01943,-1.8052 1.32724,-2.2978 0.30781,-0.4927 0.86616,-1.5007 1.24079,-2.2401 0.4175,-0.8238 0.79157,-1.2759 0.96639,-1.1678 0.17261,0.1066 0.21402,0.061 0.10488,-0.1155 -0.0992,-0.1606 0.69148,-1.7916 1.75704,-3.6247 1.06555,-1.8331 2.27496,-3.9569 2.68757,-4.7195 0.41261,-0.7627 1.03814,-1.8427 1.39007,-2.4002 0.35193,-0.5575 0.63987,-1.0596 0.63987,-1.1157 0,-0.056 1.95013,-3.517 4.33362,-7.6906 2.38349,-4.1736 4.33362,-7.6288 4.33362,-7.678 0,-0.049 -6.99487,-0.09 -15.54417,-0.09 l -15.54417,0 -0.34991,0.5736 c -0.19245,0.3155 -2.79783,4.84 -5.78974,10.0546 -2.99191,5.2145 -5.55059,9.4125 -5.68595,9.3288 -0.13537,-0.084 -0.16857,-0.027 -0.0738,0.1268 0.0947,0.1534 -0.74784,1.8513 -1.87251,3.7732 -1.12466,1.9219 -2.04484,3.5282 -2.04484,3.5696 0,0.041 -0.74564,1.3504 -1.65697,2.9088 -0.91134,1.5584 -1.65698,2.8821 -1.65698,2.9413 0,0.059 -0.38429,0.7123 -0.854,1.4511 -0.4697,0.7388 -1.23275,2.0315 -1.69567,2.8727 -2.01228,3.6569 -5.72963,9.9577 -5.97602,10.1293 -0.14795,0.1029 -0.19208,0.1889 -0.0981,0.1911 0.0941,0 -1.00363,2.04 -2.4392,4.5287 -1.43558,2.4887 -4.83741,8.3953 -7.55962,13.126 l -4.94948,8.6011 -53.40154,0 c -42.27938,0 -53.46491,0.07 -53.70579,0.321 -0.16733,0.1746 -1.27084,2.0382 -2.45225,4.1413 -5.16552,9.1954 -6.42225,11.3039 -6.65259,11.1616 -0.13475,-0.083 -0.16659,-0.024 -0.0708,0.1305 0.0958,0.1551 -0.49987,1.4634 -1.3238,2.9073 -4.00148,7.0124 -4.63481,8.1391 -4.63481,8.2453 0,0.063 23.90352,0.1433 53.11895,0.1787 l 53.11895,0.065 -2.3447,4.0786 c -3.44588,5.9943 -14.65241,25.3572 -15.23325,26.3204 l -0.4996,0.8285 16.29468,0 16.29469,0 0.2723,-0.5976 z m 67.75567,-9.5354 c 3.19994,-5.5732 7.7063,-13.4023 10.01413,-17.3982 2.30783,-3.9958 4.48239,-7.7814 4.83238,-8.4123 0.34999,-0.631 1.06483,-1.8928 1.58852,-2.8041 0.5237,-0.9113 2.30283,-4.0086 3.95362,-6.8828 1.65079,-2.8742 3.60112,-6.2583 4.33406,-7.5201 0.73293,-1.2619 1.88551,-3.2694 2.56128,-4.4612 0.67575,-1.1917 1.34968,-2.251 1.49759,-2.354 0.1479,-0.103 0.19234,-0.1891 0.0988,-0.1912 -0.0936,0 0.97799,-1.9827 2.3813,-4.4012 1.40331,-2.4186 2.95915,-5.1431 3.45741,-6.0544 0.49828,-0.9113 0.98863,-1.7717 1.08969,-1.9118 0.10104,-0.1403 1.9914,-3.4096 4.20078,-7.2653 2.20939,-3.8556 4.3931,-7.6411 4.85269,-8.4123 0.45959,-0.7711 3.35674,-5.8185 6.43812,-11.2164 3.08136,-5.3979 8.46606,-14.8044 11.966,-20.9033 3.49991,-6.099 6.50031,-11.3472 6.66751,-11.6626 l 0.30402,-0.5736 -15.26772,0 -15.2677,0 -4.93293,8.3486 c -2.71311,4.5918 -6.98742,11.8474 -9.49846,16.1236 -2.51104,4.2763 -4.78143,8.0796 -5.04531,8.4517 -0.26388,0.3722 -0.47977,0.7328 -0.47977,0.8015 0,0.3939 -3.64757,6.1574 -3.86011,6.0994 -0.14107,-0.039 -0.18449,0.046 -0.0965,0.1888 0.16167,0.2616 -1.4962,3.3175 -1.95629,3.6061 -0.13678,0.086 -0.21023,0.203 -0.1632,0.2605 0.0471,0.057 -3.06912,5.4727 -6.92477,12.0336 -3.85564,6.5609 -7.41176,12.6488 -7.90248,13.5286 -0.49072,0.8797 -1.97798,3.4897 -3.30502,5.7998 l -2.4128,4.2003 -0.48419,-0.9787 c -1.0222,-2.066 -3.41663,-3.3628 -7.48128,-4.0515 -1.81756,-0.308 -11.86143,-0.516 -12.27502,-0.2541 -0.21898,0.1386 -7.91814,14.1673 -11.20505,20.4168 -0.77429,1.4721 -1.85221,3.4668 -2.39538,4.4326 -0.54317,0.9659 -0.94141,1.8023 -0.88497,1.8587 0.0565,0.056 3.12822,0.1448 6.82618,0.1962 4.08182,0.057 7.1057,0.2094 7.69609,0.3884 2.38874,0.7243 3.96458,3.6364 3.64981,6.7446 -0.19735,1.9488 -0.48148,2.5079 -7.36991,14.5043 -3.0455,5.3038 -5.53726,9.6916 -5.53726,9.7506 0,0.059 6.86658,0.1074 15.25906,0.1074 l 15.25907,0 5.81806,-10.133 z"
         style="fill:#000000" />
      <text
         transform="matrix(0,1,-1,0,0,0)"
         sodipodi:linespacing="100%"
         id="text3641"
         y="532.51642"
         x="2269.6506"
         style="font-style:normal;font-weight:normal;font-size:87.92649841px;line-height:100%;font-family:sans-serif;text-align:center;letter-spacing:0px;word-spacing:0px;text-anchor:middle;fill:#000000;fill-opacity:1;stroke:none;stroke-width:1px;stroke-linecap:butt;stroke-linejoin:miter;stroke-opacity:1"
         xml:space="preserve"><tspan
           id="tspan3643"
           style="font-style:normal;font-variant:normal;font-weight:normal;font-stretch:normal;font-size:49.45866013px;line-height:100%;font-family:'Big John';-inkscape-font-specification:'Big John';text-align:center;text-anchor:middle;fill:#000000"
           y="532.51642"
           x="2269.6506"
           sodipodi:role="line">centers of</tspan><tspan
           id="tspan3645"
           style="font-style:normal;font-variant:normal;font-weight:normal;font-stretch:normal;font-size:49.45866013px;line-height:100%;font-family:'Big John';-inkscape-font-specification:'Big John';text-align:center;text-anchor:middle;fill:#000000"
           y="581.9751"
           x="2269.6506"
           sodipodi:role="line">learning</tspan><tspan
           id="tspan3647"
           style="font-style:normal;font-variant:normal;font-weight:normal;font-stretch:normal;font-size:49.45866013px;line-height:100%;font-family:'Big John';-inkscape-font-specification:'Big John';text-align:center;text-anchor:middle;fill:#000000"
           y="631.43372"
           x="2280.7595"
           sodipodi:role="line">robotics </tspan></text>
    </g>
  </g>
</svg>
