<?xml version="1.0" encoding="UTF-8" standalone="no"?>
<!-- Created with Inkscape (http://www.inkscape.org/) -->
<svg
   xmlns:dc="http://purl.org/dc/elements/1.1/"
   xmlns:cc="http://creativecommons.org/ns#"
   xmlns:rdf="http://www.w3.org/1999/02/22-rdf-syntax-ns#"
   xmlns:svg="http://www.w3.org/2000/svg"
   xmlns="http://www.w3.org/2000/svg"
   xmlns:sodipodi="http://sodipodi.sourceforge.net/DTD/sodipodi-0.dtd"
   xmlns:inkscape="http://www.inkscape.org/namespaces/inkscape"
   width="420"
   height="320"
   id="svg4047"
   sodipodi:version="0.32"
   inkscape:version="0.46"
   version="1.0"
   sodipodi:docname="Logo_ALCOA.svg"
   inkscape:output_extension="org.inkscape.output.svg.inkscape">
  <defs
     id="defs4049">
    <clipPath
       clipPathUnits="userSpaceOnUse"
       id="clipPath2862">
      <path
         d="M 467.755,28.389 L 501.725,28.389 L 501.725,53.282 L 467.755,53.282 L 467.755,28.389 z"
         id="path2864" />
    </clipPath>
    <clipPath
       clipPathUnits="userSpaceOnUse"
       id="clipPath2850">
      <path
         d="M 467.755,28.389 L 501.725,28.389 L 501.725,53.282 L 467.755,53.282 L 467.755,28.389 z"
         id="path2852" />
    </clipPath>
    <clipPath
       clipPathUnits="userSpaceOnUse"
       id="clipPath2838">
      <path
         d="M 467.755,28.389 L 501.725,28.389 L 501.725,53.282 L 467.755,53.282 L 467.755,28.389 z"
         id="path2840" />
    </clipPath>
    <clipPath
       clipPathUnits="userSpaceOnUse"
       id="clipPath2826">
      <path
         d="M 467.755,28.389 L 501.725,28.389 L 501.725,53.282 L 467.755,53.282 L 467.755,28.389 z"
         id="path2828" />
    </clipPath>
    <clipPath
       clipPathUnits="userSpaceOnUse"
       id="clipPath2814">
      <path
         d="M 467.755,28.389 L 501.725,28.389 L 501.725,53.282 L 467.755,53.282 L 467.755,28.389 z"
         id="path2816" />
    </clipPath>
    <clipPath
       clipPathUnits="userSpaceOnUse"
       id="clipPath2802">
      <path
         d="M 467.755,28.389 L 501.725,28.389 L 501.725,53.282 L 467.755,53.282 L 467.755,28.389 z"
         id="path2804" />
    </clipPath>
    <clipPath
       clipPathUnits="userSpaceOnUse"
       id="clipPath2792">
      <path
         d="M 465.309,26.271 L 503.532,26.271 L 503.532,54.711 L 465.309,54.711 L 465.309,26.271 z"
         id="path2794" />
    </clipPath>
    <inkscape:perspective
       sodipodi:type="inkscape:persp3d"
       inkscape:vp_x="0 : 526.18109 : 1"
       inkscape:vp_y="0 : 1000 : 0"
       inkscape:vp_z="744.09448 : 526.18109 : 1"
       inkscape:persp3d-origin="372.04724 : 350.78739 : 1"
       id="perspective4055" />
  </defs>
  <sodipodi:namedview
     id="base"
     pagecolor="#ffffff"
     bordercolor="#666666"
     borderopacity="1.0"
     inkscape:pageopacity="0.0"
     inkscape:pageshadow="2"
     inkscape:zoom="1.3361111"
     inkscape:cx="294.81661"
     inkscape:cy="152.4861"
     inkscape:document-units="px"
     inkscape:current-layer="layer1"
     showgrid="false" />
  <metadata
     id="metadata4052">
    <rdf:RDF>
      <cc:Work
         rdf:about="">
        <dc:format>image/svg+xml</dc:format>
        <dc:type
           rdf:resource="http://purl.org/dc/dcmitype/StillImage" />
      </cc:Work>
    </rdf:RDF>
  </metadata>
  <g
     inkscape:label="Ebene 1"
     inkscape:groupmode="layer"
     id="layer1"
     transform="translate(-241.73527,-593.9469)">
    <g
       id="g2788"
       transform="matrix(11.833342,0,0,-11.833342,-5282.4124,1234.9293)">
      <g
         id="g2790"
         clip-path="url(#clipPath2792)">
        <path
           d="M 479.03,53.174 L 490.372,53.174 C 490.372,53.174 493.619,53.107 493.619,49.914 L 493.619,38.274 C 493.619,38.274 493.658,35.563 490.372,35.563 L 479.03,35.563 C 479.03,35.563 475.721,35.511 475.721,38.274 L 475.721,49.914 C 475.721,49.914 475.68,53.174 479.03,53.174 M 476.984,42.147 L 484.583,51.023 L 492.297,42.236 L 488.598,37.74 L 484.714,42.121 L 488.299,46.24 L 480.972,46.24 L 484.583,42.121 L 480.841,37.819 L 476.984,42.147 z"
           style="fill:#1450a1;fill-opacity:1;fill-rule:evenodd;stroke:none"
           id="path2796" />
        <g
           id="g2798">
          <g
             id="g2800"
             clip-path="url(#clipPath2802)">
            <path
               d="M 479.03,53.174 L 490.372,53.174 C 490.372,53.174 493.619,53.107 493.619,49.914 L 493.619,38.274 C 493.619,38.274 493.658,35.563 490.372,35.563 L 479.03,35.563 C 479.03,35.563 475.721,35.511 475.721,38.274 L 475.721,49.914 C 475.721,49.914 475.68,53.174 479.03,53.174 z M 476.984,42.147 L 484.583,51.023 L 492.297,42.236 L 488.598,37.74 L 484.714,42.121 L 488.299,46.24 L 480.972,46.24 L 484.583,42.121 L 480.841,37.819 L 476.984,42.147 z"
               style="fill:none;stroke:#1450a1;stroke-width:0.21600001;stroke-linecap:butt;stroke-linejoin:miter;stroke-miterlimit:3.86400008;stroke-dasharray:none;stroke-opacity:1"
               id="path2806" />
          </g>
        </g>
        <path
           d="M 469.331,28.497 L 467.949,28.497 L 471.002,33.416 C 471.002,33.416 471.75,34.72 472.541,33.371 L 475.649,28.497 L 474.3,28.497 L 473.454,29.701 L 470.089,29.701 L 469.331,28.497 z M 470.635,30.656 L 472.919,30.656 L 471.75,32.522 L 470.635,30.656 z"
           style="fill:#1450a1;fill-opacity:1;fill-rule:evenodd;stroke:none"
           id="path2808" />
        <g
           id="g2810">
          <g
             id="g2812"
             clip-path="url(#clipPath2814)">
            <path
               d="M 469.331,28.497 L 467.949,28.497 L 471.002,33.416 C 471.002,33.416 471.75,34.72 472.541,33.371 L 475.649,28.497 L 474.3,28.497 L 473.454,29.701 L 470.089,29.701 L 469.331,28.497 z M 470.635,30.656 L 472.919,30.656 L 471.75,32.522 L 470.635,30.656 z"
               style="fill:none;stroke:#1450a1;stroke-width:0.21600001;stroke-linecap:butt;stroke-linejoin:miter;stroke-miterlimit:3.86400008;stroke-dasharray:none;stroke-opacity:1"
               id="path2818" />
          </g>
        </g>
        <path
           d="M 492.442,28.497 L 488.598,28.497 C 488.598,28.497 487.372,28.509 487.372,29.701 L 487.372,32.664 C 487.372,32.664 487.416,33.939 488.598,33.939 L 492.464,33.939 C 492.464,33.939 493.619,33.899 493.619,32.664 L 493.619,29.701 C 493.619,29.701 493.677,28.497 492.442,28.497 M 488.598,32.664 L 492.297,32.664 L 492.297,29.701 L 488.598,29.701 L 488.598,32.664 z"
           style="fill:#1450a1;fill-opacity:1;fill-rule:evenodd;stroke:none"
           id="path2820" />
        <g
           id="g2822">
          <g
             id="g2824"
             clip-path="url(#clipPath2826)">
            <path
               d="M 492.442,28.497 L 488.598,28.497 C 488.598,28.497 487.372,28.509 487.372,29.701 L 487.372,32.664 C 487.372,32.664 487.416,33.939 488.598,33.939 L 492.464,33.939 C 492.464,33.939 493.619,33.899 493.619,32.664 L 493.619,29.701 C 493.619,29.701 493.677,28.497 492.442,28.497 z M 488.598,32.664 L 492.297,32.664 L 492.297,29.701 L 488.598,29.701 L 488.598,32.664 z"
               style="fill:none;stroke:#1450a1;stroke-width:0.21600001;stroke-linecap:butt;stroke-linejoin:miter;stroke-miterlimit:3.86400008;stroke-dasharray:none;stroke-opacity:1"
               id="path2830" />
          </g>
        </g>
        <path
           d="M 495.21,28.497 L 493.828,28.497 L 496.881,33.416 C 496.881,33.416 497.629,34.72 498.42,33.371 L 501.528,28.497 L 500.179,28.497 L 499.333,29.701 L 495.967,29.701 L 495.21,28.497 z M 496.514,30.656 L 498.798,30.656 L 497.629,32.522 L 496.514,30.656 z"
           style="fill:#1450a1;fill-opacity:1;fill-rule:evenodd;stroke:none"
           id="path2832" />
        <g
           id="g2834">
          <g
             id="g2836"
             clip-path="url(#clipPath2838)">
            <path
               d="M 495.21,28.497 L 493.828,28.497 L 496.881,33.416 C 496.881,33.416 497.629,34.72 498.42,33.371 L 501.528,28.497 L 500.179,28.497 L 499.333,29.701 L 495.967,29.701 L 495.21,28.497 z M 496.514,30.656 L 498.798,30.656 L 497.629,32.522 L 496.514,30.656 z"
               style="fill:none;stroke:#1450a1;stroke-width:0.21600001;stroke-linecap:butt;stroke-linejoin:miter;stroke-miterlimit:3.86400008;stroke-dasharray:none;stroke-opacity:1"
               id="path2842" />
          </g>
        </g>
        <path
           d="M 475.721,33.939 L 477.103,33.939 L 477.103,29.701 L 480.821,29.701 L 480.821,28.497 L 477.103,28.497 C 477.103,28.497 475.883,28.566 475.721,30.003 L 475.721,33.939 z"
           style="fill:#1450a1;fill-opacity:1;fill-rule:nonzero;stroke:none"
           id="path2844" />
        <g
           id="g2846">
          <g
             id="g2848"
             clip-path="url(#clipPath2850)">
            <path
               d="M 475.721,33.939 L 477.103,33.939 L 477.103,29.701 L 480.821,29.701 L 480.821,28.497 L 477.103,28.497 C 477.103,28.497 475.883,28.566 475.721,30.003 L 475.721,33.939 z"
               style="fill:none;stroke:#1450a1;stroke-width:0.21600001;stroke-linecap:butt;stroke-linejoin:miter;stroke-miterlimit:3.86400008;stroke-dasharray:none;stroke-opacity:1"
               id="path2854" />
          </g>
        </g>
        <path
           d="M 486.817,33.939 L 486.817,32.664 L 482.558,32.664 L 482.558,29.701 L 486.881,29.701 L 486.881,28.497 L 482.436,28.497 C 482.436,28.497 481.184,28.877 481.184,30.025 L 481.184,32.664 C 481.184,32.664 481.488,33.939 482.492,33.939 L 486.817,33.939 z"
           style="fill:#1450a1;fill-opacity:1;fill-rule:nonzero;stroke:none"
           id="path2856" />
        <g
           id="g2858">
          <g
             id="g2860"
             clip-path="url(#clipPath2862)">
            <path
               d="M 486.817,33.939 L 486.817,32.664 L 482.558,32.664 L 482.558,29.701 L 486.881,29.701 L 486.881,28.497 L 482.436,28.497 C 482.436,28.497 481.184,28.877 481.184,30.025 L 481.184,32.664 C 481.184,32.664 481.488,33.939 482.492,33.939 L 486.817,33.939 z"
               style="fill:none;stroke:#1450a1;stroke-width:0.21600001;stroke-linecap:butt;stroke-linejoin:miter;stroke-miterlimit:3.86400008;stroke-dasharray:none;stroke-opacity:1"
               id="path2866" />
          </g>
        </g>
      </g>
    </g>
  </g>
</svg>
