<?xml version="1.0" encoding="UTF-8" standalone="no"?>
<!-- Created with Inkscape (http://www.inkscape.org/) -->

<svg
   xmlns:dc="http://purl.org/dc/elements/1.1/"
   xmlns:cc="http://creativecommons.org/ns#"
   xmlns:rdf="http://www.w3.org/1999/02/22-rdf-syntax-ns#"
   xmlns:svg="http://www.w3.org/2000/svg"
   xmlns="http://www.w3.org/2000/svg"
   xmlns:xlink="http://www.w3.org/1999/xlink"
   xmlns:sodipodi="http://sodipodi.sourceforge.net/DTD/sodipodi-0.dtd"
   xmlns:inkscape="http://www.inkscape.org/namespaces/inkscape"
   width="3.8in"
   height="3.2in"
   viewBox="0 0 342.00001 288.00001"
   id="svg2"
   version="1.1"
   inkscape:version="0.91 r13725"
   sodipodi:docname="program_book_2016_17.svg"
   inkscape:export-filename="/home/ta/Downloads/programbook.png"
   inkscape:export-xdpi="336.84"
   inkscape:export-ydpi="336.84">
  <defs
     id="defs4">
    <clipPath
       clipPathUnits="userSpaceOnUse"
       id="clipPath3670">
      <rect
         style="opacity:1;fill:#ffffff;fill-opacity:1;stroke:none;stroke-width:1.89999998;stroke-linecap:round;stroke-linejoin:round;stroke-miterlimit:4;stroke-dasharray:none;stroke-opacity:1"
         id="rect3672"
         width="459.18881"
         height="459.18881"
         x="366.54547"
         y="591.15936" />
    </clipPath>
    <clipPath
       clipPathUnits="userSpaceOnUse"
       id="clipPath3738">
      <rect
         style="opacity:1;fill:#ffffff;fill-opacity:1;stroke:none;stroke-width:1.89999998;stroke-linecap:round;stroke-linejoin:round;stroke-miterlimit:4;stroke-dasharray:none;stroke-opacity:1"
         id="rect3740"
         width="765"
         height="495.00003"
         x="-135"
         y="782.36212" />
    </clipPath>
  </defs>
  <sodipodi:namedview
     id="base"
     pagecolor="#ffffff"
     bordercolor="#666666"
     borderopacity="1.0"
     inkscape:pageopacity="0.0"
     inkscape:pageshadow="2"
     inkscape:zoom="2.1180555"
     inkscape:cx="171"
     inkscape:cy="144"
     inkscape:document-units="px"
     inkscape:current-layer="layer1"
     showgrid="false"
     units="in"
     inkscape:window-width="1366"
     inkscape:window-height="735"
     inkscape:window-x="0"
     inkscape:window-y="0"
     inkscape:window-maximized="0">
    <inkscape:grid
       type="xygrid"
       id="grid3336"
       units="in"
       spacingx="9.0000003"
       spacingy="9" />
  </sodipodi:namedview>
  <metadata
     id="metadata7">
    <rdf:RDF>
      <cc:Work
         rdf:about="">
        <dc:format>image/svg+xml</dc:format>
        <dc:type
           rdf:resource="http://purl.org/dc/dcmitype/StillImage" />
        <dc:title />
      </cc:Work>
    </rdf:RDF>
  </metadata>
  <g
     inkscape:label="Layer 1"
     inkscape:groupmode="layer"
     id="layer1"
     transform="translate(0,-764.36215)">
    <rect
       style="fill:#00e676;fill-opacity:1;stroke:none;stroke-width:5.30000019;stroke-miterlimit:4;stroke-dasharray:none"
       id="rect4925"
       width="342"
       height="288"
       x="0"
       y="764.36218" />
    <rect
       style="opacity:1;fill:#4d4d4d;fill-opacity:1;stroke:none;stroke-width:1.89999998;stroke-linecap:round;stroke-linejoin:round;stroke-miterlimit:4;stroke-dasharray:none;stroke-opacity:1"
       id="rect4357"
       width="342"
       height="68.286713"
       x="0"
       y="764.36212" />
    <text
       xml:space="preserve"
       style="font-style:normal;font-weight:normal;font-size:36.20060349px;line-height:100%;font-family:sans-serif;letter-spacing:0px;word-spacing:0px;fill:#ffffff;fill-opacity:1;stroke:none;stroke-width:1px;stroke-linecap:butt;stroke-linejoin:miter;stroke-opacity:1"
       x="65.720421"
       y="801.56494"
       id="text4939"
       sodipodi:linespacing="100%"><tspan
         sodipodi:role="line"
         x="65.720421"
         y="801.56494"
         style="font-style:normal;font-variant:normal;font-weight:normal;font-stretch:normal;line-height:100%;font-family:'Big John';-inkscape-font-specification:'Big John';fill:#ffffff;fill-opacity:1"
         id="tspan3779">TEAM TORCH</tspan></text>
    <image
       sodipodi:absref="/home/ta/git/branding/program book/bot.jpg"
       xlink:href="bot.jpg"
       y="176.78177"
       x="366.54547"
       id="image3665"
       preserveAspectRatio="none"
       height="873.56641"
       width="491.3811"
       clip-path="url(#clipPath3670)"
       transform="matrix(0.29399671,0,0,0.29399671,-107.76316,658.84993)" />
    <image
       sodipodi:absref="/home/ta/git/branding/program book/team.jpg"
       xlink:href="team.jpg"
       y="355.11926"
       x="-626.65497"
       id="image3733"
       preserveAspectRatio="none"
       height="1094"
       width="1944"
       clip-path="url(#clipPath3738)"
       transform="matrix(0.27272726,0,0,0.27272726,170.18183,619.27736)" />
    <text
       xml:space="preserve"
       style="font-style:normal;font-weight:normal;font-size:14.03372383px;line-height:110.00000238%;font-family:sans-serif;text-align:start;letter-spacing:0px;word-spacing:0px;text-anchor:start;fill:#000000;fill-opacity:1;stroke:none;stroke-width:1px;stroke-linecap:butt;stroke-linejoin:miter;stroke-opacity:1"
       x="179.94847"
       y="991.02148"
       id="text3742"
       sodipodi:linespacing="110%"><tspan
         sodipodi:role="line"
         id="tspan3744"
         x="179.94847"
         y="991.02148"
         style="font-style:normal;font-variant:normal;font-weight:bold;font-stretch:normal;line-height:110.00000238%;font-family:Dosis;-inkscape-font-specification:Dosis;fill:#ffffff">teamtorch5942@gmail.com</tspan><tspan
         sodipodi:role="line"
         x="179.94847"
         y="1006.4586"
         id="tspan3746"
         style="font-style:normal;font-variant:normal;font-weight:bold;font-stretch:normal;line-height:110.00000238%;font-family:Dosis;-inkscape-font-specification:Dosis;fill:#ffffff">Facebook: teamtorch5942</tspan><tspan
         sodipodi:role="line"
         x="179.94847"
         y="1021.8957"
         id="tspan3748"
         style="font-style:normal;font-variant:normal;font-weight:bold;font-stretch:normal;line-height:110.00000238%;font-family:Dosis;-inkscape-font-specification:Dosis;fill:#ffffff">twitter: @teamtorch5942</tspan><tspan
         sodipodi:role="line"
         x="179.94847"
         y="1037.3328"
         style="font-style:normal;font-variant:normal;font-weight:bold;font-stretch:normal;line-height:110.00000238%;font-family:Dosis;-inkscape-font-specification:Dosis;fill:#ffffff"
         id="tspan4359">North Hills, CA</tspan></text>
    <rect
       y="644.36218"
       x="0"
       height="36"
       width="342"
       id="rect3767"
       style="fill:#00e676;fill-opacity:1;stroke:none;stroke-width:5.30000019;stroke-miterlimit:4;stroke-dasharray:none" />
    <g
       id="g3791"
       transform="matrix(0.59422145,0,0,0.59422145,5.9712211,385.48461)">
      <ellipse
         ry="46.530586"
         rx="46.530556"
         cy="695.06219"
         cx="51.0093"
         style="fill:#ffffff;fill-opacity:1;stroke:none"
         id="ellipse3769" />
      <ellipse
         id="ellipse3771"
         style="fill:#00e676;fill-opacity:1;stroke:none"
         cx="51.0093"
         cy="695.06219"
         rx="43.612183"
         ry="43.612209" />
      <g
         style="fill:#333333;fill-opacity:1"
         id="g3773"
         transform="matrix(0.52775074,0,0,0.52775074,657.60543,50.98249)">
        <path
           sodipodi:nodetypes="cccscsccccsc"
           style="fill:#333333;fill-opacity:1"
           inkscape:connector-curvature="0"
           d="m -1161.4306,1141.9197 c -0.4488,7.9191 -1.6386,41.3454 -5.8556,47.594 -2.8825,-1.4713 -8.6221,-10.4618 -8.6221,-10.4618 0,0 -17.8517,28.9796 -17.8517,42.4471 0,17.6767 11.3728,28.9882 27.1902,34.468 -4.6651,-3.6209 -10.9429,-11.3636 -10.9429,-18.6676 0,-13.8094 7.0325,-17.9484 10.6882,-32.9509 8.7819,7.6291 8.9785,17.9577 8.9785,17.9577 0,0 12.2681,-18.0794 8.9785,-40.4039 35.9141,31.4254 21.2721,64.8578 7.0061,74.6349 15.9142,-2.3236 28.908,-16.993 28.908,-35.3186 0,-26.9358 -13.5984,-46.9094 -48.4772,-79.2989 z"
           id="path3775" />
        <path
           sodipodi:nodetypes="cczcc"
           inkscape:connector-curvature="0"
           id="path3777"
           d="m -1199.7892,1263.312 c 4.6708,16.8686 21.7506,32.6275 21.7506,32.6275 -5.6583,-11.1575 -5.0511,-21.0692 -3.0171,-25.1082 2.0341,-4.039 79.0681,-3.6626 97.2821,-5.1516 0,0 -68.2595,-5.8758 -116.0156,-2.3677 z"
           style="fill:#333333;fill-opacity:1;stroke:none" />
      </g>
    </g>
    <g
       id="g4361"
       transform="matrix(0.92167826,0,0,0.92167826,0.37481441,198.00057)">
      <g
         id="g3445"
         transform="matrix(1.2311916,0,0,1.2311916,-337.48025,-339.53601)"
         style="font-style:normal;font-variant:normal;font-weight:300;font-stretch:normal;font-size:medium;line-height:125%;font-family:'Devil Breeze';-inkscape-font-specification:'Devil Breeze Light';text-align:end;letter-spacing:0px;word-spacing:0px;writing-mode:lr-tb;text-anchor:end;fill:#ffffff;fill-opacity:1;stroke:none">
        <path
           id="path2796"
           style="fill:#ffffff;fill-opacity:1;fill-rule:evenodd;stroke:none"
           d="m 334.75417,982.12054 16.12704,0 c 0,0 4.61687,0.0953 4.61687,4.63536 l 0,16.5507 c 0,0 0.0555,3.8548 -4.61687,3.8548 l -16.12704,0 c 0,0 -4.70503,0.074 -4.70503,-3.8548 l 0,-16.5507 c 0,0 -0.0583,-4.63536 4.70503,-4.63536 m -2.90919,15.67917 10.80492,-12.62068 10.96845,12.49413 -5.25956,6.39284 -5.52261,-6.22932 5.09746,-5.85677 -10.41816,0 5.13442,5.85677 -5.32069,6.11692 -5.48423,-6.15389 z"
           inkscape:connector-curvature="0" />
        <path
           id="path2808"
           style="fill:#ffffff;fill-opacity:1;fill-rule:evenodd;stroke:none"
           d="m 320.96327,1017.2085 -1.96504,0 4.34102,-6.9943 c 0,0 1.06357,-1.8542 2.18829,0.064 l 4.41922,6.9303 -1.91812,0 -1.20292,-1.7119 -4.78465,0 -1.0778,1.7119 z m 1.85415,-3.0699 3.24759,0 -1.66219,-2.6532 -1.5854,2.6532 z"
           inkscape:connector-curvature="0" />
        <path
           id="path2820"
           style="fill:#ffffff;fill-opacity:1;fill-rule:evenodd;stroke:none"
           d="m 353.82452,1017.2085 -5.46573,0 c 0,0 -1.74324,-0.017 -1.74324,-1.7119 l 0,-4.2131 c 0,0 0.0626,-1.8129 1.74324,-1.8129 l 5.49702,0 c 0,0 1.64227,0.057 1.64227,1.8129 l 0,4.2131 c 0,0 0.0825,1.7119 -1.67356,1.7119 m -5.46573,-5.925 5.25956,0 0,4.2131 -5.25956,0 0,-4.2131 z"
           inkscape:connector-curvature="0" />
        <path
           id="path2832"
           style="fill:#ffffff;fill-opacity:1;fill-rule:evenodd;stroke:none"
           d="m 357.76031,1017.2085 -1.96505,0 4.34103,-6.9943 c 0,0 1.06356,-1.8542 2.18828,0.064 l 4.41923,6.9303 -1.91813,0 -1.20292,-1.7119 -4.78607,0 -1.07637,1.7119 z m 1.85414,-3.0699 3.24759,0 -1.66219,-2.6532 -1.5854,2.6532 z"
           inkscape:connector-curvature="0" />
        <path
           id="path2844"
           style="fill:#ffffff;fill-opacity:1;fill-rule:nonzero;stroke:none"
           d="m 330.04914,1009.4706 1.96505,0 0,6.026 5.28657,0 0,1.7119 -5.28657,0 c 0,0 -1.7347,-0.098 -1.96505,-2.1414 l 0,-5.5965 z"
           inkscape:connector-curvature="0" />
        <path
           id="path2856"
           style="fill:#ffffff;fill-opacity:1;fill-rule:nonzero;stroke:none"
           d="m 345.82641,1009.4706 0,1.8129 -6.05582,0 0,4.2131 6.14682,0 0,1.7119 -6.3203,0 c 0,0 -1.7802,-0.5404 -1.7802,-2.1727 l 0,-3.7523 c 0,0 0.43225,-1.8129 1.85983,-1.8129 l 6.14967,0 z"
           inkscape:connector-curvature="0" />
      </g>
      <g
         id="g6150"
         transform="matrix(0.29714436,0,0,0.29706058,25.268195,615.63893)"
         style="font-style:normal;font-variant:normal;font-weight:300;font-stretch:normal;font-size:medium;line-height:125%;font-family:'Devil Breeze';-inkscape-font-specification:'Devil Breeze Light';text-align:end;letter-spacing:0px;word-spacing:0px;writing-mode:lr-tb;text-anchor:end;fill:#ffffff;fill-opacity:1;stroke:none">
        <g
           transform="matrix(0.94442071,0,0,0.94442071,23.019685,55.447816)"
           id="g6136"
           style="fill:#ffffff">
          <path
             d="m 471.25685,961.93155 c -0.0176,-0.0428 -0.0276,-0.0887 -0.0297,-0.13897 0.002,0.0134 0.002,0.0174 0.002,0.0254 0.0453,0.47665 0.17102,1.37368 0.27314,2.04459 0.15896,-0.30083 0.31641,-0.6206 0.48341,-0.95929 0.12576,-0.25701 0.0628,-0.3367 -0.0473,-0.37754 -0.3159,-0.11256 -0.63835,-0.34915 -0.68161,-0.5942 z"
             id="path3098"
             inkscape:connector-curvature="0"
             style="display:inline;fill:#ffffff" />
          <path
             d="m 476.74292,954.70648 c 0.0453,0.51152 0.43713,0.57378 0.75757,0.12452 0.0845,-0.12452 0.18059,-0.27643 0.29477,-0.44827 -0.0906,-0.12054 -0.1826,-0.23758 -0.27918,-0.35712 -0.4472,-0.52447 -1.5101,-1.6566 -2.5388,-2.54466 1.02316,0.96576 1.64793,2.14471 1.76564,3.22553 z"
             id="path3119"
             inkscape:connector-curvature="0"
             style="display:inline;fill:#ffffff" />
          <path
             d="m 456.2227,919.48565 c 0.0473,0.0658 0.0885,0.13597 0.12979,0.21118 -0.0412,-0.0807 -0.0825,-0.1549 -0.12979,-0.21118 z"
             id="path3413"
             inkscape:connector-curvature="0"
             style="display:inline;fill:#ffffff" />
          <path
             d="m 414.18225,997.63451 c -75.5067,0 -136.71471,-21.09245 -136.71471,-47.11186 0,-26.02388 61.2085,-47.11334 136.71471,-47.11334 75.49917,0 136.70516,21.08946 136.70516,47.11334 0,26.01941 -61.20599,47.11186 -136.70516,47.11186 z m 0,-90.14498 c -72.85371,0 -131.90723,19.26252 -131.90723,43.03263 0,23.7701 59.05352,43.03561 131.90723,43.03561 72.85322,0 131.90272,-19.26551 131.90272,-43.03561 0,-23.77011 -59.0495,-43.03263 -131.90272,-43.03263 z"
             id="path3534"
             inkscape:connector-curvature="0"
             style="display:inline;fill:#ffffff" />
          <path
             d="m 499.30493,935.10676 c 0.18864,-0.32774 -0.0101,-0.56831 -0.42857,-0.56831 -2.18316,0 -5.04693,0.005 -7.32164,0.005 -0.54227,0 -0.82246,0.0653 -1.078,0.56332 -0.83906,1.59334 -11.07175,16.77614 -12.97674,19.72474 -0.32042,0.44926 -0.71229,0.387 -0.75756,-0.12452 -0.19267,-1.75122 -1.72038,-3.76394 -4.12638,-4.72672 -1.83406,-0.73715 -3.62737,-0.87064 -5.49111,-0.62558 -3.36478,0.44726 -6.36336,2.20646 -8.99975,4.1878 -3.97296,2.99144 -7.40012,6.86695 -11.82529,9.73088 -2.41607,1.55847 -5.72301,2.91822 -7.93635,0.88906 -2.00307,-1.83839 -1.77721,-5.9236 1.28726,-9.08188 0.32345,-0.33073 0.71028,-0.0543 0.64941,0.24306 -0.28874,1.42898 0.0669,2.84948 1.16151,3.84563 1.33706,1.18591 3.25009,1.32089 4.88797,0.52945 1.93265,-0.94833 3.06849,-2.77925 3.39949,-4.85722 0.5131,-3.22403 -1.99352,-6.06754 -5.12942,-6.29516 -2.54736,-0.17682 -4.99009,0.70029 -7.37044,2.64627 -1.19269,0.97971 -1.87178,1.70441 -2.903,3.15779 -0.25152,0.35712 -0.63785,0.39397 -0.62577,-0.13448 0.11972,-4.12754 -1.60518,-6.44956 -5.05196,-6.52577 -2.67412,-0.0623 -5.53235,1.37369 -7.75978,3.13239 -2.44173,1.94149 -4.57659,4.51455 -6.86439,6.9322 -0.28471,0.29785 -0.53371,0.2839 -0.61319,-0.29386 -0.0689,-2.73443 -0.76361,-5.38369 -2.04181,-7.26392 -0.45223,-0.65447 -1.40346,-0.97872 -2.20329,-0.53593 -0.36922,0.20023 -1.65547,0.78497 -2.58961,1.53108 -0.4648,0.37854 -0.64438,0.92592 -0.44115,1.62871 1.23494,4.0847 0.96279,8.72974 -0.71029,12.65307 -1.53676,3.59262 -4.52428,6.83408 -8.03494,7.93034 -2.31294,0.7257 -4.71844,0.37057 -6.20591,-1.65958 -2.04382,-2.80266 -1.21835,-7.67532 1.82702,-11.72218 2.6892,-3.56223 6.57664,-5.82597 10.45552,-7.28334 0.45676,-0.17433 0.55033,-0.46421 0.42155,-0.84822 -0.21128,-0.63255 -0.5463,-1.49123 -0.68463,-1.88422 -0.35564,-0.93687 -1.35215,-1.08979 -2.56747,-0.95829 -2.818,0.32475 -5.36032,1.28105 -7.87146,2.6119 -6.57514,3.48652 -9.87202,10.23493 -11.31774,13.84497 -0.69519,1.7333 -1.29028,2.81611 -2.05941,3.77541 -1.03675,1.29001 -2.33709,2.46397 -4.71745,4.53347 -0.21478,0.18977 -0.37526,0.58574 -0.19466,0.95331 0.24296,0.49808 1.48042,2.22789 1.82953,2.38229 0.38783,0.18877 0.83755,-0.0747 1.01713,-0.20321 1.66554,-1.11768 3.65705,-2.88833 4.63243,-4.08969 0.34155,-0.41141 0.69267,-0.23857 0.87376,0.386 0.90999,3.21408 3.29285,5.83793 6.58671,6.9352 6.02935,2.01371 12.28406,-0.90102 17.00402,-5.97391 3.00059,-3.22403 4.08311,-5.29802 5.23204,-6.70756 1.94824,-2.39126 5.79292,-7.73959 10.37102,-11.1738 1.67912,-1.26561 3.66661,-2.23138 4.66563,-1.59036 0.80184,0.51352 1.0609,1.71039 -0.22586,4.02743 -4.66764,8.43987 -11.53655,18.35653 -12.79615,20.76173 -0.22988,0.41739 -0.0297,0.74512 0.41149,0.74512 2.44222,-0.0115 4.86432,-0.006 7.08168,-0.006 0.36923,-0.0174 0.53473,-0.1838 0.71935,-0.4418 3.58209,-5.55253 6.95392,-10.83809 10.5677,-16.30147 0.20222,-0.32176 0.38884,-0.0727 0.39689,0.0682 0.0745,1.2676 0.38886,3.0019 1.14843,4.14049 1.36574,2.10536 3.30191,3.00987 5.44885,3.02332 1.7083,0.0194 2.572,-0.23758 4.41411,-0.91846 1.49904,-0.55037 2.70279,-1.27357 3.62637,-1.92705 0.53925,-0.37056 0.63381,0.25004 0.61973,0.34517 -0.828,4.40796 0.19467,9.63076 4.61986,11.79639 5.29441,2.58452 11.11198,-1.04794 14.45916,-4.32776 0.32697,-0.31628 0.6791,-0.28291 0.7123,0.39796 0.0709,1.25216 0.64237,2.73841 1.68868,3.77839 2.8049,2.78722 8.46503,1.68299 14.14478,-2.67018 3.64698,-2.78722 7.46298,-6.72499 10.91026,-10.89537 0.12778,-0.16038 0.22285,-0.42138 -0.0236,-0.68286 -0.52466,-0.5439 -1.28524,-1.16649 -1.80488,-1.64614 -0.23793,-0.19923 -0.58553,-0.14195 -0.78624,0.008 -3.5328,3.32714 -6.71347,7.12097 -11.31019,10.25933 -1.55034,1.07086 -4.02023,1.93502 -5.13043,0.44827 -0.4321,-0.57677 -0.38331,-1.37668 0.0432,-2.42413 1.3416,-3.31069 22.56001,-35.29703 23.66166,-37.18423 z m -28.04808,26.82479 c 0.0432,0.24505 0.3657,0.48163 0.6816,0.5942 0.11017,0.0409 0.17305,0.12053 0.0473,0.37754 -0.90294,1.91459 -1.73194,3.01882 -2.86276,4.6819 -1.03927,1.53705 -2.21132,2.73642 -3.63038,3.88945 -2.1399,1.75373 -5.11182,3.66285 -7.56914,2.37931 -1.09158,-0.56133 -1.56292,-2.07299 -1.54129,-3.29775 0.0568,-3.44269 1.59864,-6.97703 4.45435,-10.4506 3.482,-4.24409 7.3312,-6.44558 9.85744,-5.24223 2.61325,1.23473 1.77921,4.23065 0.61017,6.58305 -0.0876,0.1818 -0.0936,0.3362 -0.0473,0.48513 z"
             id="path3549"
             inkscape:connector-curvature="0"
             style="display:inline;fill:#ffffff;fill-opacity:1" />
          <path
             d="m 345.39154,980.14065 c -7.91221,0.0562 -14.88223,-4.786 -15.68155,-13.1671 -0.44468,-4.64405 0.88131,-8.78354 3.53481,-12.19286 2.35521,-3.03825 6.34023,-5.56249 9.71356,-6.17911 1.09813,-0.19923 2.57301,-0.0722 3.18219,0.647 0.95677,1.10224 0.68111,2.31256 -0.27415,2.79569 -2.57352,1.30147 -5.67069,3.52836 -7.20243,6.5691 -1.24399,2.48241 -1.49451,5.47484 0.40394,8.32432 3.17765,4.75013 12.03405,4.88063 20.26869,-2.69459 2.0388,-1.85332 3.8643,-3.63444 5.71899,-5.74429 3.62686,-4.10612 4.83313,-5.60233 9.6542,-12.22423 0.0579,-0.0757 0.0734,-0.17682 0.0483,-0.22563 -0.0398,-0.0847 -0.10715,-0.10808 -0.2475,-0.11655 -3.2179,0.0877 -6.02431,1.03799 -8.75075,3.05668 -0.78574,0.56632 -1.91555,0.48662 -2.41053,-0.25949 -0.55032,-0.84324 -0.15644,-1.94349 0.75052,-2.5631 4.38695,-3.02131 9.17985,-3.5692 14.07435,-4.38753 -0.004,0 0.34056,0.0164 0.62024,-0.35214 2.00861,-2.55263 3.52676,-4.85622 5.66767,-7.43825 2.15751,-2.61987 4.94682,-5.02506 7.07666,-6.83208 2.97293,-2.53171 4.87891,-3.38291 6.8166,-4.42788 0.51008,-0.26298 -0.0659,-0.57976 -0.22033,-0.57976 -10.81872,-2.01271 -22.06301,-4.61765 -32.80829,-0.67887 -7.43985,2.74987 -10.70001,8.59228 -9.13155,12.49619 1.11472,2.76879 4.7939,3.21905 8.23716,1.5505 2.86074,-1.38813 5.50619,-3.62349 7.383,-6.50335 1.05084,-1.59833 3.26217,-0.44528 2.06797,2.33098 -3.14395,7.31721 -9.15066,13.12127 -16.46728,13.36533 -6.22603,0.20023 -10.24375,-4.33474 -10.23067,-9.93061 0.0232,-11.03633 12.43447,-18.30622 25.47458,-19.39302 15.70518,-1.28503 30.57935,2.85645 46.17286,4.72972 11.94703,1.43196 23.40108,1.46283 35.40898,-1.2696 1.41956,-0.30482 2.41606,0.59171 2.32351,2.01122 -0.11771,2.05257 -1.72239,4.02843 -5.67774,6.16467 -4.49761,2.44256 -9.20298,3.18319 -14.1171,3.22304 -11.88415,0.0976 -22.95389,-4.48864 -34.40895,-6.95312 0.0166,0.49609 0.14537,1.08929 -0.27516,1.40159 -6.34475,4.63458 -12.08032,9.33989 -15.92198,15.94883 -0.12979,0.15291 -0.0593,0.29884 0.16448,0.28291 3.33511,-0.17532 6.33519,-0.2605 9.44897,-0.50704 0.54328,-0.0448 0.5639,-0.17881 0.51561,-0.57278 -0.27415,-2.2782 0.39689,-4.87566 2.4211,-6.66275 2.07098,-1.83939 4.66563,-2.04858 6.38398,-0.7237 1.9563,1.50867 1.78325,4.22118 0.71331,6.25532 -1.08857,2.06451 -2.8854,3.16725 -4.61181,3.70368 0,0 -0.36067,0.0787 -0.30836,0.40394 0.0689,0.52148 2.41908,1.81149 2.6203,2.15466 0.19367,0.32674 0.0945,0.83378 -0.26309,1.22178 -0.25051,0.28191 -0.63885,0.54788 -1.13786,0.53792 -0.40393,-0.008 -0.64942,-0.14593 -1.16351,-0.42236 -1.05638,-0.56632 -2.37382,-1.49622 -3.25211,-2.59248 -0.30081,-0.37057 -0.45172,-0.37854 -1.20074,-0.33869 -3.36931,0.19275 -8.62399,0.69531 -12.18395,1.1361 -0.8617,0.10609 -0.98896,0.26548 -1.16654,0.56133 -5.67471,9.26668 -11.73474,19.25954 -18.38735,25.94968 -7.13652,7.17376 -13.06879,9.06196 -19.36524,9.11078 z m 54.08154,-41.17481 c 0.0896,0.47565 0.27717,0.5673 0.49397,0.52745 1.08052,-0.21417 2.26466,-1.09526 2.96337,-2.11482 0.63935,-0.92492 0.93816,-2.26076 0.30534,-2.79569 -0.56691,-0.48064 -1.48646,-0.34417 -2.16757,0.25202 -1.35718,1.18692 -1.77118,2.8729 -1.59511,4.13104 l 0,0"
             id="path3564"
             inkscape:connector-curvature="0"
             style="display:inline;fill:#ffffff;fill-opacity:1" />
        </g>
        <g
           style="font-style:normal;font-variant:normal;font-weight:normal;font-stretch:normal;font-size:54.08856583px;line-height:125%;font-family:ChunkFive;-inkscape-font-specification:ChunkFive;letter-spacing:0px;word-spacing:0px;display:inline;fill:#ffffff;fill-opacity:1;stroke:none"
           id="text5950">
          <path
             d="m 329.057,899.53888 10.81771,0 0,-13.52214 2.16354,0 0,-5.78748 -17.9574,0 0,5.78748 3.2994,0 0,2.27172 c -0.81133,1.4063 -2.10946,2.65034 -5.1925,2.65034 -4.7057,0 -7.41014,-4.43527 -7.41014,-9.9523 0,-5.40885 3.02897,-10.16865 7.41014,-10.16865 3.19122,0 6.00383,2.48808 6.16609,6.86925 l 9.68186,0 0,-15.95613 -8.0592,0 -1.13586,3.89438 c -0.86541,-0.86542 -2.70443,-4.54344 -10.54727,-4.54344 -8.43781,0 -16.60519,8.1133 -16.60519,19.90459 0,11.68312 7.51832,19.03918 16.98381,19.03918 4.16482,0 7.51831,-1.89311 8.70826,-3.89438 l 1.67675,3.40758"
             style="text-align:center;text-anchor:middle;fill:#ffffff"
             id="path3412"
             inkscape:connector-curvature="0" />
          <path
             d="m 386.52018,892.45328 -3.7862,0 -9.57368,-30.72231 -20.77,0 0,6.97743 2.21763,0 -7.30196,23.74488 -3.67802,0 0,7.0856 17.20016,0 0,-7.0856 -4.21891,0 1.13586,-3.67803 11.08816,0 1.13586,3.67803 -5.13841,0 0,7.0856 21.68951,0 0,-7.0856 m -23.25808,-21.85178 3.56984,11.68313 -7.0856,0 3.51576,-11.68313"
             style="text-align:center;text-anchor:middle;fill:#ffffff"
             id="path3414"
             inkscape:connector-curvature="0" />
          <path
             d="m 388.644,868.87066 2.97487,0 0,23.47444 -2.97487,0 0,7.19378 30.2896,0 0,-14.06303 -9.08688,0 0,6.86925 -6.97743,0 0,-23.47444 2.8667,0 0,-7.13969 -17.09199,0 0,7.13969"
             style="text-align:center;text-anchor:middle;fill:#ffffff"
             id="path3416"
             inkscape:connector-curvature="0" />
          <path
             d="m 421.60422,868.81657 3.02896,0 0,23.58262 -3.02896,0 0,7.13969 17.41652,0 0,-7.13969 -3.2994,0 0,-8.38373 4.11073,0 c 7.73465,0 14.22529,-3.56985 14.22529,-10.70954 0,-6.16609 -2.37991,-11.57495 -14.92844,-11.57495 l -17.5247,0 0,7.0856 m 16.82154,-0.0541 c 3.13714,0 5.03024,1.73083 5.03024,4.92205 0,2.8667 -2.16355,4.48936 -5.30068,4.48936 l -2.43398,0 0,-9.41141 2.70442,0"
             style="text-align:center;text-anchor:middle;fill:#ffffff"
             id="path3418"
             inkscape:connector-curvature="0" />
          <path
             d="m 456.2547,868.87066 3.40758,0 0,23.47444 -3.40758,0 0,7.19378 17.95741,0 0,-7.19378 -3.35349,0 0,-23.47444 3.35349,0 0,-7.13969 -17.95741,0 0,7.13969"
             style="text-align:center;text-anchor:middle;fill:#ffffff"
             id="path3420"
             inkscape:connector-curvature="0" />
          <path
             d="m 518.39232,861.73097 -16.28065,0 0,6.97743 3.67802,0 0.0541,12.87308 -13.30579,-19.85051 -15.52342,0 0,6.97743 3.13714,0 0,23.85305 -3.19123,0 0,6.97743 16.60519,0 0,-6.97743 -4.16482,0 0,-13.63031 13.79259,20.60774 11.62904,0 0,-30.83048 3.56984,0 0,-6.97743"
             style="text-align:center;text-anchor:middle;fill:#ffffff"
             id="path3422"
             inkscape:connector-curvature="0" />
        </g>
      </g>
      <path
         style="font-style:normal;font-variant:normal;font-weight:300;font-stretch:normal;font-size:medium;line-height:125%;font-family:'Devil Breeze';-inkscape-font-specification:'Devil Breeze Light';text-align:end;letter-spacing:0px;word-spacing:0px;writing-mode:lr-tb;text-anchor:end;fill:#ffffff;fill-opacity:1;stroke:none"
         d="m 14.336572,913.16664 c -0.222764,-0.0647 -0.332902,-0.20648 -0.313706,-0.40391 0.02384,-0.24524 0.220469,-0.33726 0.848622,-0.3971 0.605068,-0.0576 0.701071,-0.0819 0.701071,-0.17733 0,-0.116 -0.175607,-0.17437 -0.524651,-0.17437 -0.263093,0 -0.350557,0.0204 -0.430698,0.10056 -0.118452,0.11844 -0.502816,0.14439 -0.502816,0.0339 0,-0.11777 0.219401,-0.27642 0.468664,-0.33889 0.308072,-0.0772 1.018733,-0.0362 1.225421,0.0708 0.19733,0.10204 0.216615,0.15906 0.216615,0.64064 0,0.39115 0.0022,0.39814 0.125704,0.39814 0.09892,0 0.125703,0.0255 0.125703,0.11985 0,0.18544 -0.309347,0.24278 -0.57171,0.10595 -0.128196,-0.0668 -0.172749,-0.0668 -0.398808,0 -0.277789,0.0825 -0.725208,0.0924 -0.969411,0.0215 z m 1.046703,-0.28023 c 0.125824,-0.0639 0.237787,-0.28764 0.175217,-0.35021 -0.05244,-0.0524 -0.960699,0.079 -1.030881,0.14916 -0.09389,0.0939 -0.0052,0.26817 0.15234,0.29922 0.170012,0.0335 0.547743,-0.0191 0.703324,-0.0982 z m 1.347458,0.27188 c -0.341568,-0.12409 -0.399755,-0.51283 -0.09996,-0.66787 0.08511,-0.044 0.39642,-0.0999 0.709228,-0.12738 0.597698,-0.0524 0.646073,-0.0656 0.646073,-0.17432 0,-0.11646 -0.175243,-0.17479 -0.525143,-0.17479 -0.268405,0 -0.346832,0.0189 -0.416734,0.10056 -0.0612,0.0714 -0.148324,0.10055 -0.301195,0.10055 -0.118302,0 -0.215095,-0.0236 -0.215095,-0.0526 0,-0.10052 0.239762,-0.29145 0.433544,-0.34527 0.252817,-0.0703 0.819556,-0.0698 1.099824,0 0.325286,0.0818 0.370591,0.1576 0.387692,0.64783 0.01414,0.40542 0.02022,0.42503 0.140486,0.45308 0.170592,0.0398 0.198628,0.22699 0.04035,0.26938 -0.189731,0.0508 -0.342158,0.037 -0.519074,-0.0469 -0.13466,-0.0639 -0.188932,-0.0676 -0.279606,-0.0191 -0.164648,0.0881 -0.89143,0.11187 -1.10039,0.036 z m 1.06003,-0.26745 c 0.132975,-0.0688 0.195311,-0.16637 0.195311,-0.30584 0,-0.0617 -0.06176,-0.0689 -0.364542,-0.042 -0.526925,0.0468 -0.69137,0.10624 -0.69137,0.24999 0,0.21937 0.512848,0.27768 0.860601,0.0978 z m 1.479579,0.25616 c -0.225942,-0.0607 -0.42948,-0.21899 -0.42948,-0.33414 0,-0.0908 0.458396,-0.0474 0.589657,0.0558 0.225829,0.17765 0.918789,0.12089 0.918789,-0.0753 0,-0.0845 -0.244967,-0.15363 -0.703943,-0.19871 -0.571404,-0.0561 -0.754222,-0.1574 -0.754222,-0.41792 0,-0.34044 0.845694,-0.53106 1.497442,-0.33751 0.228164,0.0678 0.413259,0.21853 0.413259,0.33662 0,0.0865 -0.462861,0.0383 -0.589662,-0.0614 -0.0912,-0.0717 -0.203981,-0.10055 -0.3935,-0.10055 -0.328214,0 -0.424722,0.0347 -0.424722,0.15284 0,0.10597 0.0637,0.1289 0.477675,0.17202 0.779888,0.0812 1.003829,0.18667 0.971688,0.45765 -0.01973,0.16632 -0.205526,0.31413 -0.472766,0.37609 -0.280511,0.0651 -0.808268,0.0528 -1.100215,-0.0255 z m 6.176425,0.002 c -0.272399,-0.11857 -0.320709,-0.24192 -0.320709,-0.81889 l 0,-0.51674 0.226266,0 0.226267,0 0,0.44133 c 0,0.51195 0.05891,0.6364 0.324854,0.6863 0.233864,0.0439 0.557694,-0.0477 0.653796,-0.18494 0.05439,-0.0776 0.07726,-0.2335 0.07726,-0.5265 l 0,-0.41619 0.226266,0 0.226269,0 0,0.67878 0,0.6788 -0.226269,0 c -0.174298,0 -0.226266,-0.0186 -0.226266,-0.0809 0,-0.0576 -0.02521,-0.0701 -0.08799,-0.0435 -0.447352,0.18969 -0.819454,0.22431 -1.099743,0.10233 z m 2.535403,0.0245 c -0.316204,-0.0615 -0.342035,-0.10963 -0.342035,-0.63722 l 0,-0.47153 -0.201127,0 c -0.181011,0 -0.201125,-0.0127 -0.201125,-0.12571 0,-0.11311 0.02012,-0.12569 0.201125,-0.12569 0.201127,0 0.201127,0 0.201127,-0.20114 l 0,-0.20111 0.226268,0 0.226267,0 0,0.20111 0,0.20114 0.251408,0 c 0.234647,0 0.251407,0.009 0.251407,0.12569 0,0.11735 -0.01676,0.12571 -0.251407,0.12571 l -0.251408,0 0,0.34786 c 0,0.47616 0.0171,0.50694 0.281926,0.50694 0.198995,0 0.220889,0.0119 0.220889,0.11941 0,0.16727 -0.209172,0.21313 -0.613315,0.13454 z m 1.368088,-0.0508 c -0.4697,-0.16213 -0.655517,-0.51428 -0.47084,-0.89234 0.134587,-0.27551 0.426121,-0.42005 0.9148,-0.45354 0.527427,-0.0361 0.893425,0.0693 1.114496,0.32108 0.147042,0.16746 0.159584,0.20734 0.137514,0.43699 -0.02004,0.20853 -0.05499,0.28086 -0.199841,0.41361 -0.299863,0.27479 -0.976428,0.35357 -1.496129,0.1742 z m 0.865326,-0.20539 c 0.224418,-0.0623 0.340883,-0.21218 0.340883,-0.43864 0,-0.46652 -0.837925,-0.63148 -1.15569,-0.22751 -0.129328,0.16442 -0.12857,0.31852 0.0024,0.485 0.160493,0.20406 0.4764,0.27446 0.81243,0.18115 z m 5.138683,0.24987 c -0.407506,-0.1183 -0.456229,-0.56339 -0.07744,-0.70741 0.06805,-0.0259 0.350621,-0.0687 0.62793,-0.0951 0.589133,-0.0561 0.685496,-0.0809 0.685496,-0.17585 0,-0.116 -0.175608,-0.17436 -0.524652,-0.17436 -0.265915,0 -0.350213,0.0201 -0.433344,0.10322 -0.08017,0.0802 -0.154863,0.0998 -0.334564,0.088 l -0.231353,-0.0152 0.133748,-0.15847 c 0.176135,-0.2087 0.514931,-0.29063 1.060794,-0.25659 0.423062,0.0264 0.69568,0.12318 0.75067,0.26647 0.01718,0.0448 0.03123,0.26057 0.03123,0.47955 0,0.39116 0.0022,0.39814 0.125705,0.39814 0.09892,0 0.125703,0.0255 0.125703,0.11983 0,0.18546 -0.309346,0.2428 -0.57171,0.10596 -0.128195,-0.0668 -0.17275,-0.0668 -0.398808,0 -0.27779,0.0825 -0.725208,0.0924 -0.96941,0.0215 z m 1.024582,-0.28088 c 0.120473,-0.0758 0.248351,-0.29852 0.199466,-0.34742 -0.05801,-0.058 -0.961666,0.0757 -1.039821,0.15383 -0.09772,0.0977 -0.02514,0.23386 0.151449,0.28409 0.16689,0.0475 0.549557,-0.003 0.688906,-0.0905 z m 1.604161,0.28637 c -0.105111,-0.0203 -0.218244,-0.0641 -0.251407,-0.0973 -0.0355,-0.0354 -0.06746,-0.25565 -0.07772,-0.53546 l -0.01742,-0.47524 -0.17113,0 c -0.149021,0 -0.171133,-0.0162 -0.171133,-0.12571 0,-0.11014 0.02179,-0.12568 0.175986,-0.12568 0.171794,0 0.175986,-0.005 0.175986,-0.20115 l 0,-0.20111 0.251407,0 0.251409,0 0,0.20111 0,0.20115 0.256787,0 c 0.213498,0 0.25164,0.0134 0.226266,0.0796 -0.01679,0.0438 -0.03052,0.1003 -0.03052,0.1257 0,0.0254 -0.102735,0.0461 -0.228302,0.0461 l -0.228299,0 0.01459,0.41483 0.01459,0.41482 0.238839,0.0152 c 0.211899,0.0136 0.238837,0.0285 0.238837,0.13198 0,0.16693 -0.240129,0.21395 -0.668789,0.13095 z m 2.318822,-0.0309 c -0.402284,-0.1238 -0.64025,-0.45663 -0.557961,-0.78038 0.09158,-0.36033 0.398749,-0.54598 0.967855,-0.585 0.765012,-0.0524 1.258656,0.23131 1.258656,0.72342 0,0.44778 -0.456487,0.72752 -1.171521,0.71793 -0.143826,-0.002 -0.36749,-0.0361 -0.497029,-0.0759 z m 0.993202,-0.29528 c 0.163711,-0.10727 0.225659,-0.32719 0.145717,-0.5173 -0.07603,-0.18083 -0.183226,-0.24858 -0.464545,-0.29356 -0.376326,-0.0602 -0.765678,0.17196 -0.765678,0.45653 0,0.15957 0.179966,0.36749 0.367704,0.42481 0.200872,0.0613 0.571191,0.0249 0.716802,-0.0705 z m 8.459731,0.29825 c -0.562268,-0.18012 -0.751672,-0.71357 -0.38393,-1.0813 0.401845,-0.40184 1.485985,-0.3931 1.830174,0.0146 l 0.13721,0.16257 -0.232398,0.0152 c -0.179719,0.0119 -0.267909,-0.0111 -0.389057,-0.10056 -0.328814,-0.24311 -0.903575,-0.11314 -1.026502,0.23214 -0.160209,0.44997 0.650111,0.76938 1.029581,0.40581 0.101598,-0.0973 0.183649,-0.12527 0.368115,-0.12527 l 0.237377,0 -0.07775,0.15037 c -0.172124,0.33287 -0.944949,0.50172 -1.492822,0.32623 z m -38.707547,-0.87884 0,-0.90507 0.276548,0 c 0.152102,0 0.273869,0.017 0.270595,0.0377 -0.0032,0.0207 -0.0032,0.17911 0,0.35193 l 0.006,0.31428 0.754225,0 0.754225,0 0,-0.35197 0,-0.35197 0.251407,0 0.251407,0 0,0.90507 0,0.90506 -0.251407,0 -0.251407,0 0,-0.42739 0,-0.42737 -0.754225,0 -0.754225,0 0,0.42737 0,0.42739 -0.276548,0 -0.276547,0 0,-0.90506 z m 11.22251,0.71261 c 0.06379,-0.10587 0.30831,-0.51402 0.543376,-0.90704 l 0.427394,-0.71454 0.324459,0.0144 0.324461,0.0144 0.515075,0.85478 c 0.283291,0.47016 0.516282,0.87177 0.517757,0.89249 0.0016,0.0207 -0.120071,0.0377 -0.2701,0.0377 -0.268924,0 -0.274447,-0.003 -0.390561,-0.21369 l -0.117779,-0.21371 -0.58689,-0.0142 -0.586892,-0.0142 -0.133522,0.22782 c -0.132535,0.22616 -0.13555,0.22784 -0.408141,0.22784 l -0.274621,0 0.115984,-0.19246 z m 1.514945,-0.90118 c -0.100652,-0.18668 -0.196774,-0.35561 -0.213603,-0.37545 -0.01685,-0.0198 -0.12472,0.1329 -0.239762,0.33941 l -0.209166,0.37546 0.422767,0 0.42277,0 -0.183006,-0.33942 z m 7.576299,0.41483 0,-0.67878 0.251407,0 c 0.216449,0 0.251409,0.0138 0.251409,0.0989 0,0.0965 0.0044,0.0963 0.184254,-0.01 0.256493,-0.15132 0.775104,-0.15639 1.022852,-0.01 0.169966,0.10047 0.181584,0.10105 0.321774,0.0162 0.321393,-0.19441 0.928422,-0.16316 1.165969,0.06 0.113262,0.10639 0.120917,0.14805 0.120917,0.65793 l 0,0.54432 -0.226266,0 -0.226269,0 0,-0.46986 c 0,-0.39138 -0.01537,-0.48379 -0.09195,-0.5531 -0.136881,-0.12389 -0.562275,-0.11166 -0.730915,0.021 -0.12545,0.0987 -0.132483,0.12804 -0.132483,0.5531 l 0,0.44887 -0.226269,0 -0.226267,0 0,-0.44133 c 0,-0.57843 -0.05504,-0.66486 -0.423464,-0.66486 -0.193895,0 -0.303159,0.0285 -0.399398,0.10422 -0.125453,0.0987 -0.132486,0.12804 -0.132486,0.5531 l 0,0.44887 -0.251409,0 -0.251407,0 0,-0.6788 z m 7.592517,0 0,-0.67878 0.226268,0 0.226266,0 0,0.67878 0,0.6788 -0.226266,0 -0.226268,0 0,-0.6788 z m 3.352104,0.64529 c -0.01844,-0.0186 -0.03352,-0.3239 -0.03352,-0.67882 l 0,-0.64525 0.251409,0 c 0.216449,0 0.251406,0.0138 0.251406,0.0989 0,0.0963 0.0048,0.096 0.186507,-0.0113 0.240512,-0.14192 0.808794,-0.15238 1.060124,-0.0195 0.219017,0.11575 0.261817,0.24898 0.261817,0.81506 l 0,0.47437 -0.251409,0 -0.251406,0 0,-0.47408 c 0,-0.58356 -0.0345,-0.63211 -0.449345,-0.63211 -0.218581,0 -0.324396,0.026 -0.423802,0.10422 -0.12545,0.0987 -0.132486,0.12804 -0.132486,0.5531 l 0,0.44887 -0.217886,0 c -0.119837,0 -0.23297,-0.015 -0.251407,-0.0335 z m 3.637033,-0.87155 0,-0.90507 0.251409,0 0.251407,0 0,0.90507 0,0.90506 -0.251407,0 -0.251409,0 0,-0.90506 z m 0.95535,0.22626 0,-0.67878 0.226268,0 c 0.196845,0 0.226266,0.0138 0.226266,0.10633 0,0.0999 0.0071,0.1017 0.117678,0.0292 0.346266,-0.22689 0.971826,-0.22776 1.240443,-0.002 0.150001,0.12622 0.150326,0.12768 0.150326,0.67513 l 0,0.54861 -0.226267,0 -0.226268,0 0,-0.45253 c 0,-0.57151 -0.0605,-0.65367 -0.481542,-0.65367 -0.242891,0 -0.300085,0.0197 -0.427393,0.14698 -0.138186,0.1382 -0.146977,0.17127 -0.146977,0.5531 l 0,0.40612 -0.226266,0 -0.226268,0 0,-0.67879 z m 4.776748,0.50281 0,-0.17598 0.251409,0 0.251407,0 0,0.17598 0,0.17599 -0.251407,0 -0.251409,0 0,-0.17599 z m -12.721235,-1.53358 c 0,-0.14525 0.0083,-0.15083 0.226268,-0.15083 0.217886,0 0.226266,0.006 0.226266,0.15083 0,0.14525 -0.0083,0.15084 -0.226266,0.15084 -0.217888,0 -0.226268,-0.006 -0.226268,-0.15084 z m -27.144667,-1.76345 c -0.307299,-0.0606 -0.639189,-0.26879 -0.814501,-0.51081 -0.274613,-0.37908 -0.299074,-0.55984 -0.299074,-2.20993 l 0,-1.49932 3.322684,0 3.322685,0 -0.100489,0.16344 c -0.191048,0.31067 -1.172354,2.02395 -1.181107,2.06212 -0.0048,0.021 0.545166,0.0389 1.222219,0.0395 l 1.231008,0.002 0.482315,-0.84412 c 0.265271,-0.46427 1.474876,-2.58637 2.688006,-4.7158 1.21313,-2.12942 2.248851,-3.94522 2.301601,-4.03511 l 0.09591,-0.16339 -1.207468,0 -1.207468,0 -0.246164,0.43996 c -0.238375,0.42604 -2.689373,4.67453 -2.799278,4.85217 -0.0511,0.0826 -0.296076,0.088 -3.989446,0.088 l -3.935006,0 0,-7.41652 0,-7.41653 -2.9101748,0 c -2.5051152,0 -2.9187508,-0.0102 -2.9717976,-0.0743 -0.076434,-0.092 -0.1483743,0.042 2.0372984,-3.79743 0.3384789,-0.59457 0.6765173,-1.19418 0.751201,-1.33245 0.2696203,-0.49923 0.1912979,-0.47769 1.7375635,-0.47769 l 1.3536875,0 0.01369,-5.32085 0.01367,-5.32087 0.151369,-0.29595 c 0.09389,-0.18355 0.233158,-0.35831 0.366759,-0.46021 0.448144,-0.34182 -0.508502,-0.31772 12.610554,-0.31772 l 11.878525,0 0.339953,-0.59081 c 0.186972,-0.32494 0.556678,-0.96414 0.821564,-1.42047 l 0.481614,-0.82963 3.199374,-0.0131 c 2.949783,-0.0119 3.201891,-0.007 3.231609,0.0711 0.03148,0.082 -0.131504,0.39084 -1.094199,2.07309 -0.211836,0.37015 -0.385155,0.68126 -0.385155,0.69136 0,0.0101 1.329319,0.018 2.954042,0.0174 l 2.954042,-0.002 0.646995,-1.10452 c 0.37292,-0.63662 0.669085,-1.09088 0.699141,-1.07228 0.02949,0.0184 0.03713,0.008 0.0176,-0.0236 -0.03181,-0.0514 0.23335,-0.58444 0.316256,-0.63566 0.01993,-0.0125 1.403657,-0.0378 3.074946,-0.0564 2.971263,-0.0334 3.041399,-0.0319 3.159974,0.0647 l 0.121264,0.0987 -0.151478,0.272 c -0.433915,0.77922 -0.539109,0.944 -0.584683,0.91581 -0.02743,-0.017 -0.03434,-0.006 -0.01537,0.025 0.01898,0.0307 -0.501984,0.99018 -1.157683,2.13217 -0.6557,1.14199 -1.425545,2.48363 -1.71077,2.98142 l -0.518591,0.90506 -3.95e-4,11.14822 -3.94e-4,11.1482 -3.984814,0.0148 c -4.251105,0.0156 -4.101887,0.007 -4.500425,0.26146 -0.09,0.0574 -0.250727,0.22894 -0.357172,0.38103 -0.252821,0.36126 -2.119367,3.64337 -2.201833,3.87167 -0.135397,0.37485 -0.06924,0.76418 0.174053,1.0244 0.254788,0.27251 0.327328,0.28294 1.96874,0.28294 0.830533,0 1.510059,0.009 1.510059,0.0187 0,0.0316 -0.850038,1.50996 -0.917234,1.59522 -0.03479,0.0442 -0.142449,0.12332 -0.23924,0.17596 -0.160858,0.0875 -0.329429,0.0979 -1.960983,0.12088 l -1.784994,0.0251 0,1.02025 0,1.02023 2.220228,-0.003 c 2.387472,-0.003 2.455799,-0.01 2.903767,-0.27218 0.277412,-0.16256 0.522645,-0.44569 0.736211,-0.84993 0.09064,-0.17158 0.542208,-0.99076 1.003473,-1.82041 0.85429,-1.53654 1.021731,-1.89218 1.078156,-2.28979 0.04039,-0.28463 -0.07859,-0.5324 -0.324177,-0.67511 -0.165571,-0.0963 -0.273179,-0.10318 -1.81833,-0.11737 l -1.642344,-0.015 0.399433,-0.71397 c 0.219691,-0.39269 0.456563,-0.76489 0.526384,-0.82711 l 0.126949,-0.11316 3.542045,0 3.542048,0 -5.92e-4,4.31167 -5.92e-4,4.31164 -0.117964,0.25333 c -0.134794,0.28945 -0.487415,0.62387 -0.769705,0.72995 -0.16599,0.0624 -2.870583,0.0733 -19.70165,0.0797 -10.730086,0.004 -19.607747,-0.0121 -19.728136,-0.0358 z m 11.880597,-2.92892 c 0.588299,-1.03242 1.937553,-3.38445 3.206841,-5.59021 1.437459,-2.49799 1.799789,-3.13496 1.799789,-3.16403 0,-0.0158 -0.526071,-0.028 -1.169047,-0.0269 l -1.169046,0.002 -1.131335,1.94036 c -1.299949,2.22955 -2.165699,3.70475 -2.18862,3.7293 -0.0087,0.009 -0.0808,-0.031 -0.160168,-0.0897 -0.169528,-0.12534 -0.679229,-0.21595 -1.091408,-0.19404 l -0.2878,0.0152 -0.549518,1.00254 c -0.302233,0.5514 -0.549518,1.02089 -0.549518,1.04335 0,0.0225 0.293627,0.0408 0.652502,0.0408 0.637868,0 0.654322,0.003 0.73363,0.12383 0.07629,0.11642 0.07378,0.13967 -0.04215,0.38967 -0.06781,0.14623 -0.316068,0.59851 -0.551707,1.00507 -0.235636,0.40658 -0.421711,0.74597 -0.413501,0.75423 0.0082,0.008 0.542923,0.008 1.18825,-0.002 l 1.173317,-0.0162 0.549484,-0.96432 z m 10.55402,-0.76318 c 2.050967,-3.59454 4.444849,-7.79833 4.502546,-7.90678 l 0.06019,-0.11313 -1.221097,0 -1.221099,0 -0.989643,1.67126 c -0.544308,0.91919 -1.443718,2.43901 -1.998693,3.37739 l -1.009048,1.70611 0,-3.11147 c 0,-1.88357 -0.01815,-3.09265 -0.04602,-3.06373 -0.02532,0.0263 -0.477847,0.79084 -1.005633,1.69903 l -0.95961,1.65131 0,0.79404 0,0.79407 -0.208918,-0.0719 c -0.114904,-0.0395 -0.310928,-0.0652 -0.435608,-0.0569 l -0.226693,0.015 -0.569577,1.00564 c -0.313267,0.55309 -0.569777,1.02261 -0.570021,1.04335 -1.92e-4,0.0207 0.350995,0.0377 0.780535,0.0377 1.278254,0 1.280564,0.002 1.280564,1.31012 0,0.5147 0.0094,0.94522 0.02086,0.95674 0.01148,0.0115 0.655507,0.01 1.431183,-0.004 l 1.410318,-0.0251 0.975449,-1.70958 z m -6.790639,0.0606 c 0.519201,-0.91832 1.420904,-2.50688 2.003783,-3.5301 2.142009,-3.76025 2.55805,-4.49583 2.55805,-4.52286 0,-0.0152 -0.514759,-0.0271 -1.143907,-0.0263 l -1.143904,0.002 -2.81577,4.8292 c -1.548673,2.65603 -2.82331,4.85026 -2.832527,4.876 -0.01006,0.0282 0.471717,0.0459 1.206757,0.0447 l 1.223519,-0.002 0.943999,-1.6697 z m 11.701814,-2.92673 c 0,-2.5304 -0.01697,-4.60008 -0.03771,-4.59927 -0.02075,0 -0.252664,0.38755 -0.515384,0.85938 -0.641446,1.15199 -0.625781,1.12398 -1.095765,1.95918 l -0.412685,0.73337 -7.89e-4,0.74993 c -3.95e-4,0.41249 -0.01785,0.72308 -0.03873,0.69025 -0.06063,-0.0954 -0.299822,-0.16668 -0.554578,-0.16536 l -0.235564,0.002 -0.24763,0.43873 c -0.559402,0.99112 -0.883705,1.58875 -0.883705,1.6285 0,0.0232 0.352949,0.0421 0.784334,0.0421 0.894213,0 1.081364,0.05 1.173148,0.31328 0.03042,0.0872 0.05378,0.54419 0.05378,1.05183 l 0,0.89759 1.005633,0 1.00563,0 0,-4.60077 z M 28.83418,894.44882 c 0.02954,-0.0648 0.703754,-1.25839 1.49825,-2.65236 1.526074,-2.6775 3.670004,-6.44158 4.257448,-7.47475 0.206668,-0.36348 0.372205,-0.60253 0.403738,-0.58304 0.03222,0.0199 0.03862,0.009 0.01611,-0.0274 -0.03233,-0.0523 0.66355,-1.34398 1.072926,-1.99152 0.06993,-0.11061 0.12814,-0.21243 0.129345,-0.22628 0.0048,-0.0548 1.55417,-2.74234 1.597529,-2.7711 0.02549,-0.017 0.0388,-0.0395 0.02957,-0.0502 -0.01767,-0.0205 0.157124,-0.3341 1.258142,-2.25706 0.372107,-0.64986 0.74469,-1.30604 0.82796,-1.45816 0.08328,-0.15211 0.201079,-0.35606 0.261793,-0.45322 0.06071,-0.0971 0.170846,-0.29601 0.24474,-0.44185 0.08235,-0.1625 0.156133,-0.25167 0.190616,-0.23034 0.03404,0.021 0.04222,0.0121 0.02069,-0.0228 -0.01957,-0.0317 0.136391,-0.35338 0.346568,-0.71495 0.210174,-0.36158 0.448725,-0.78048 0.53011,-0.93091 0.08138,-0.15043 0.204769,-0.36345 0.274186,-0.47342 0.06942,-0.10997 0.126211,-0.209 0.126211,-0.22007 0,-0.0111 0.384654,-0.69371 0.854786,-1.51693 0.470133,-0.82322 0.854787,-1.50475 0.854787,-1.51446 0,-0.01 -1.379706,-0.0178 -3.066016,-0.0178 l -3.066015,0 -0.06902,0.11315 c -0.03796,0.0622 -0.551859,0.95466 -1.142,1.98322 -0.59014,1.02854 -1.094828,1.85657 -1.121527,1.84006 -0.0267,-0.0166 -0.03325,-0.005 -0.01455,0.025 0.01868,0.0302 -0.147507,0.36516 -0.369344,0.74424 -0.221834,0.37909 -0.403334,0.69593 -0.403334,0.70409 0,0.008 -0.147075,0.26636 -0.32683,0.57375 -0.179758,0.30738 -0.326832,0.56848 -0.326832,0.58016 0,0.0117 -0.0758,0.14049 -0.168448,0.28622 -0.09265,0.14572 -0.243154,0.40071 -0.334463,0.56663 -0.396913,0.7213 -1.130143,1.96411 -1.178741,1.99796 -0.02918,0.0203 -0.03789,0.0373 -0.01935,0.0377 0.01856,0 -0.197961,0.40238 -0.48112,0.89327 -0.283162,0.49088 -0.954157,1.65593 -1.491101,2.58903 l -0.976261,1.69653 -10.533206,0 c -8.339412,0 -10.5457059,0.0138 -10.5932181,0.0633 -0.033002,0.0344 -0.2506672,0.40202 -0.4836954,0.81685 -1.0188744,1.81375 -1.2667586,2.22964 -1.3121924,2.20158 -0.026574,-0.0164 -0.032854,-0.005 -0.013964,0.0257 0.0189,0.0306 -0.098597,0.28865 -0.2611133,0.57345 -0.7892729,1.38316 -0.9141949,1.6054 -0.9141949,1.62634 0,0.0125 4.7148585,0.0283 10.4774661,0.0352 l 10.477467,0.0129 -0.462481,0.80448 c -0.679684,1.18235 -2.89012,5.0016 -3.004688,5.19158 l -0.09854,0.16341 3.21405,0 3.214052,0 0.05371,-0.11787 z m 13.364492,-1.88081 c 0.631173,-1.09929 1.520032,-2.64354 1.97524,-3.43172 0.455209,-0.78815 0.884132,-1.53484 0.953165,-1.65928 0.06903,-0.12446 0.210033,-0.37335 0.313328,-0.5531 0.103298,-0.17974 0.454223,-0.79068 0.779834,-1.3576 0.325611,-0.56693 0.710303,-1.23442 0.854872,-1.4833 0.144568,-0.2489 0.371909,-0.64487 0.505201,-0.87996 0.133289,-0.23505 0.266218,-0.44399 0.295393,-0.46431 0.02917,-0.0203 0.03794,-0.0373 0.01949,-0.0377 -0.01846,0 0.192904,-0.39107 0.4697,-0.86811 0.276797,-0.47706 0.583679,-1.01445 0.681958,-1.1942 0.09828,-0.17975 0.195003,-0.34947 0.214937,-0.3771 0.01993,-0.0277 0.392794,-0.67252 0.828584,-1.43304 0.435792,-0.76051 0.866519,-1.50718 0.957171,-1.65929 0.09065,-0.15209 0.662101,-1.14767 1.269889,-2.21239 0.607784,-1.0647 1.669891,-2.92009 2.360238,-4.12307 0.690341,-1.203 1.282156,-2.23818 1.315135,-2.3004 l 0.05997,-0.11313 -3.011487,0 -3.011483,0 -0.972997,1.64672 c -0.535149,0.90571 -1.378237,2.33684 -1.873528,3.1803 -0.49529,0.84348 -0.943115,1.59366 -0.995164,1.66706 -0.05205,0.0734 -0.09463,0.14454 -0.09463,0.15809 0,0.0777 -0.719466,1.21452 -0.761388,1.20308 -0.02783,-0.008 -0.03639,0.009 -0.01904,0.0373 0.03189,0.0516 -0.295119,0.65436 -0.385869,0.71129 -0.02698,0.017 -0.04147,0.04 -0.03219,0.0514 0.0093,0.0113 -0.60537,1.07946 -1.365879,2.37357 -0.760507,1.29411 -1.461935,2.49492 -1.558728,2.66846 -0.0968,0.17351 -0.390147,0.68832 -0.6519,1.14398 l -0.475913,0.82849 -0.0955,-0.19304 c -0.201624,-0.40751 -0.673914,-0.6633 -1.475647,-0.79914 -0.358506,-0.0607 -2.339612,-0.10178 -2.421191,-0.0502 -0.0432,0.0274 -1.561816,2.79443 -2.210144,4.02712 -0.152725,0.29037 -0.36534,0.68382 -0.472477,0.87431 -0.107138,0.19052 -0.185689,0.3555 -0.174557,0.36663 0.01115,0.0111 0.617027,0.0285 1.346432,0.0387 0.80512,0.0113 1.401567,0.0413 1.518019,0.0766 0.471168,0.14287 0.781994,0.71727 0.719908,1.33034 -0.03893,0.38439 -0.09497,0.49467 -1.453681,2.86091 -0.600711,1.04615 -1.092199,1.91163 -1.092199,1.92326 0,0.0116 1.354401,0.0212 3.009779,0.0212 l 3.00978,0 1.147586,-1.99869 z"
         id="path3559"
         inkscape:connector-curvature="0" />
    </g>
    <text
       xml:space="preserve"
       style="font-style:normal;font-weight:normal;font-size:12.5px;line-height:125%;font-family:sans-serif;text-align:center;letter-spacing:0px;word-spacing:0px;text-anchor:middle;fill:#000000;fill-opacity:1;stroke:none;stroke-width:1px;stroke-linecap:butt;stroke-linejoin:miter;stroke-opacity:1"
       x="190.8252"
       y="817.73279"
       id="text4411"
       sodipodi:linespacing="125%"><tspan
         sodipodi:role="line"
         id="tspan4413"
         x="190.8252"
         y="817.73279"
         style="font-style:normal;font-variant:normal;font-weight:normal;font-stretch:normal;font-family:'Big John';-inkscape-font-specification:'Big John';fill:#b3b3b3">centers of learning robotics</tspan></text>
    <text
       xml:space="preserve"
       style="font-style:normal;font-weight:normal;font-size:19.52574921px;line-height:125%;font-family:sans-serif;text-align:center;letter-spacing:0px;word-spacing:0px;text-anchor:middle;fill:#000000;fill-opacity:1;stroke:none;stroke-width:1px;stroke-linecap:butt;stroke-linejoin:miter;stroke-opacity:1"
       x="88.191803"
       y="992.81494"
       id="text4415"
       sodipodi:linespacing="125%"><tspan
         sodipodi:role="line"
         id="tspan4417"
         x="88.191803"
         y="992.81494"
         style="font-style:normal;font-variant:normal;font-weight:normal;font-stretch:normal;font-family:'Big John';-inkscape-font-specification:'Big John';fill:#ffffff">OUR sponsors</tspan></text>
    <text
       xml:space="preserve"
       style="font-style:normal;font-weight:normal;font-size:12.5px;line-height:125%;font-family:sans-serif;text-align:center;letter-spacing:0px;word-spacing:0px;text-anchor:middle;fill:#000000;fill-opacity:1;stroke:none;stroke-width:1px;stroke-linecap:butt;stroke-linejoin:miter;stroke-opacity:1"
       x="100.19581"
       y="987.41107"
       id="text4419"
       sodipodi:linespacing="125%"><tspan
         sodipodi:role="line"
         id="tspan4421"
         x="102.18555"
         y="987.41107" /></text>
  </g>
</svg>
